<svg width="141" height="135" viewBox="0 0 141 135" fill="none" xmlns="http://www.w3.org/2000/svg">
<path d="M135.166 68.0347C136.713 68.0347 138.197 67.42 139.291 66.3259C140.385 65.2318 141 63.7479 141 62.2006C141 60.6533 140.385 59.1694 139.291 58.0753C138.197 56.9812 136.713 56.3665 135.166 56.3665H117.42C116.998 56.3659 116.577 56.4123 116.165 56.5047H114.936C113.459 56.5469 112.021 56.0257 110.915 55.047C109.808 54.0683 109.115 52.7052 108.976 51.2343C108.837 49.7634 109.263 48.2948 110.167 47.1263C111.071 45.9578 112.386 45.1769 113.845 44.942H127.113C128.66 44.942 130.144 44.3274 131.238 43.2333C132.333 42.1392 132.947 40.6553 132.947 39.108C132.947 37.5607 132.333 36.0767 131.238 34.9826C130.144 33.8885 128.66 33.2739 127.113 33.2739H121.756C123.303 33.2739 124.787 32.6592 125.881 31.5651C126.975 30.471 127.59 28.9871 127.59 27.4398C127.59 25.8925 126.975 24.4086 125.881 23.3145C124.787 22.2204 123.303 21.6057 121.756 21.6057H112.957C104.77 12.9067 93.9384 7.1564 82.146 5.24888C70.3535 3.34136 58.2613 5.38351 47.7493 11.0578H31.3818C30.0185 11.0409 28.6926 11.5032 27.6353 12.364C26.578 13.2248 25.8565 14.4295 25.5967 15.768C25.3369 17.1064 25.5552 18.4936 26.2137 19.6874C26.8721 20.8813 27.9289 21.8061 29.1995 22.3004H20.1065C18.5597 22.3004 17.0762 22.9149 15.9825 24.0087C14.8887 25.1024 14.2742 26.5859 14.2742 28.1327C14.2742 29.6795 14.8887 31.163 15.9825 32.2567C17.0762 33.3505 18.5597 33.965 20.1065 33.965H27.2681C28.649 34.3211 29.851 35.172 30.646 36.3559C31.441 37.5398 31.7736 38.9744 31.5806 40.3874C31.3877 41.8003 30.6827 43.0933 29.5994 44.0207C28.5161 44.9482 27.13 45.4456 25.7041 45.4185H7.09256C5.54574 45.4185 4.06229 46.033 2.96852 47.1267C1.87476 48.2205 1.26029 49.704 1.26029 51.2508C1.26029 52.7976 1.87476 54.2811 2.96852 55.3748C4.06229 56.4686 5.54574 57.083 7.09256 57.083H15.0617C13.9129 57.6971 13.0033 58.6788 12.4785 59.871C11.9537 61.0633 11.8441 62.3971 12.1672 63.6591C12.4904 64.921 13.2275 66.038 14.2607 66.8313C15.2939 67.6246 16.5634 68.0484 17.866 68.0347H32.4148C33.9582 67.957 35.4693 68.4957 36.6156 69.5321C37.7619 70.5686 38.4495 72.018 38.5271 73.5614C38.6048 75.1049 38.0661 76.6159 37.0297 77.7622C35.9932 78.9085 34.5438 79.5961 33.0004 79.6738H20.8594C19.6838 79.6661 18.5335 80.0147 17.56 80.6735C16.5864 81.3324 15.8352 82.2707 15.4052 83.3648C14.9753 84.4589 14.8868 85.6576 15.1514 86.803C15.416 87.9484 16.0213 88.9869 16.8876 89.7815H5.83408C4.28679 89.7815 2.80287 90.3962 1.70876 91.4903C0.614661 92.5844 0 94.0683 0 95.6156C0 97.1629 0.614661 98.6468 1.70876 99.7409C2.80287 100.835 4.28679 101.45 5.83408 101.45H32.0729C30.7536 101.886 29.6338 102.78 28.9162 103.97C28.1986 105.16 27.9304 106.567 28.1602 107.938C28.39 109.308 29.1026 110.551 30.1691 111.442C31.2356 112.332 32.5857 112.812 33.9752 112.794H69.929C71.1111 112.874 72.3041 112.914 73.5007 112.914C74.6973 112.914 75.9158 112.874 77.1052 112.794H79.2293C79.5808 112.795 79.9316 112.762 80.2768 112.696H118.329C119.876 112.696 121.36 112.081 122.453 110.988C123.547 109.894 124.162 108.411 124.162 106.864C124.162 105.317 123.547 103.833 122.453 102.74C121.36 101.646 119.876 101.031 118.329 101.031H102.58C101.174 100.712 99.9362 99.8828 99.1068 98.7032C98.2775 97.5236 97.9156 96.0781 98.0914 94.6468C98.2671 93.2156 98.9679 91.9006 100.058 90.9567C101.148 90.0128 102.55 89.5072 103.991 89.5379H114.227C114.575 89.6008 114.928 89.6324 115.281 89.6324H133.06C134.607 89.6324 136.09 89.018 137.184 87.9242C138.278 86.8304 138.892 85.347 138.892 83.8002C138.892 82.2534 138.278 80.7699 137.184 79.6761C136.09 78.5824 134.607 77.9679 133.06 77.9679H124.167C125.385 74.7508 126.292 71.4246 126.877 68.0347H135.166Z" fill="#FCEEB6"/>
<path d="M118.053 27.0616L119.144 18.2777L111.357 21.4603L113.783 23.4971L109.113 30.0841L107.941 20.2636C107.915 20.039 107.825 19.8266 107.681 19.6517C107.538 19.4769 107.347 19.3469 107.132 19.2772C106.916 19.2075 106.686 19.201 106.467 19.2585C106.248 19.3161 106.05 19.4351 105.897 19.6017L97.3863 28.8183C97.1828 29.0509 97.0782 29.3538 97.0947 29.6624C97.1112 29.9709 97.2475 30.2609 97.4746 30.4705C97.7017 30.68 98.0017 30.7927 98.3106 30.7844C98.6195 30.776 98.913 30.6475 99.1285 30.426L105.897 23.0934L107.123 33.4085C107.15 33.6392 107.244 33.8569 107.393 34.0347C107.542 34.2126 107.741 34.3426 107.963 34.4087H108.011C108.243 34.4673 108.487 34.4542 108.712 34.3711C108.937 34.288 109.131 34.1388 109.269 33.9432L115.601 25.0102L118.053 27.0616Z" fill="#E2306C"/>
<path d="M20.7103 35.1362C20.8238 35.5807 20.9772 36.0141 21.1686 36.431C22.8162 39.9991 27.7483 41.2358 30.3489 40.0355C32.9495 38.8352 35.2118 34.2815 33.5642 30.7097C33.3732 30.2935 33.143 29.8965 32.8767 29.524L20.7103 35.1362Z" fill="#C1EAE7"/>
<path d="M33.8042 27.498C34.012 27.948 34.0325 28.4622 33.8613 28.9273C33.6901 29.3925 33.3412 29.7706 32.8913 29.9786L21.2231 35.3617C20.7729 35.5684 20.2592 35.5884 19.7943 35.4173C19.3294 35.2462 18.9513 34.898 18.7425 34.4487C18.5349 33.9977 18.5148 33.4827 18.6866 33.0169C18.8585 32.5511 19.2083 32.1726 19.6591 31.9645L31.3236 26.5851C31.5464 26.4817 31.7873 26.4233 32.0327 26.4133C32.2781 26.4033 32.523 26.4418 32.7534 26.5266C32.9839 26.6114 33.1953 26.7409 33.3757 26.9076C33.556 27.0743 33.7016 27.2749 33.8042 27.498Z" fill="#E2306C"/>
<path d="M40.0311 44.5384C39.9216 44.0952 39.7719 43.663 39.5837 43.2472C37.9361 39.6754 33.004 38.4424 30.4034 39.6427C27.8028 40.843 25.5368 45.3967 27.1845 48.9648C27.3774 49.3811 27.6075 49.7792 27.8719 50.1542L40.0311 44.5384Z" fill="#C1EAE7"/>
<path d="M38.689 45.1566C38.5983 44.8105 38.4765 44.4733 38.3252 44.1491C37.0413 41.3666 33.1932 40.4064 31.1672 41.3412C29.1413 42.276 27.3773 45.8259 28.6612 48.6156C28.8105 48.9405 28.9895 49.251 29.1959 49.5431L38.689 45.1566Z" fill="#FFDC78"/>
<path d="M26.9372 52.1874C26.8338 51.9647 26.7754 51.7237 26.7654 51.4784C26.7553 51.233 26.7938 50.9881 26.8786 50.7576C26.9635 50.5272 27.0929 50.3157 27.2596 50.1354C27.4263 49.9551 27.627 49.8095 27.8501 49.7069L39.5146 44.3238C39.7374 44.2204 39.9783 44.1621 40.2237 44.152C40.4691 44.142 40.714 44.1805 40.9444 44.2653C41.1749 44.3501 41.3863 44.4796 41.5667 44.6463C41.747 44.813 41.8926 45.0136 41.9952 45.2367C42.0986 45.4595 42.1569 45.7004 42.167 45.9458C42.177 46.1912 42.1385 46.4361 42.0537 46.6665C41.9689 46.897 41.8394 47.1084 41.6727 47.2887C41.506 47.4691 41.3054 47.6147 41.0823 47.7173L29.4177 53.1004C29.195 53.2037 28.954 53.2621 28.7087 53.2721C28.4633 53.2822 28.2184 53.2437 27.9879 53.1589C27.7575 53.0741 27.546 52.9446 27.3657 52.7779C27.1854 52.6112 27.0398 52.4105 26.9372 52.1874Z" fill="#E2306C"/>
<path d="M78.2072 13.7457C75.6066 17.8521 70.2818 19.147 66.3136 16.6337C62.3454 14.1204 61.2433 8.75185 63.8439 4.63089C66.4445 0.509934 71.773 -0.766724 75.7376 1.74295C79.7021 4.25262 80.8115 9.63933 78.2072 13.7457Z" fill="#F77736"/>
<path d="M77.3052 13.1747C74.7046 17.2811 69.4234 18.6014 65.5097 16.1244C61.5961 13.6475 60.5377 8.30445 63.1419 4.19804C65.7462 0.0916357 71.0238 -1.22867 74.9338 1.2519C78.8437 3.73248 79.9094 9.06826 77.3052 13.1747Z" fill="#FCAF45"/>
<path d="M75.9922 12.3418C73.8717 15.688 69.5725 16.7646 66.3863 14.7423C63.2001 12.7201 62.3345 8.37722 64.455 5.03099C66.5754 1.68476 70.8746 0.611782 74.0608 2.63043C77.247 4.64908 78.1127 8.99555 75.9922 12.3418Z" fill="#FFDC80"/>
<path d="M70.8928 8.99194C71.5184 9.90851 71.7294 10.7342 71.122 11.6944C70.3945 12.8328 69.1833 13.0511 68.0085 12.4691L67.4957 13.2802C67.452 13.342 67.4047 13.3566 67.3502 13.3202L66.8483 13.1384C66.7937 13.102 66.7864 13.0547 66.8264 12.9929L67.3938 12.0945C66.9079 11.7485 66.4889 11.3172 66.1572 10.8215L65.8917 10.4323C65.8834 10.4212 65.8776 10.4085 65.8744 10.3951C65.8712 10.3816 65.8708 10.3677 65.8732 10.3541C65.8755 10.3404 65.8807 10.3275 65.8882 10.3159C65.8958 10.3043 65.9056 10.2944 65.9171 10.2868L65.9717 9.65391C66.0299 9.60299 66.4372 9.89396 66.47 9.94488L66.7391 10.3341C67.0275 10.7588 67.3897 11.1283 67.8085 11.4252L69.6453 8.51546L69.347 8.07536C68.6196 7.00602 68.6196 6.20947 69.1761 5.32199C69.8635 4.23083 70.9947 3.99805 72.1186 4.61637L72.6641 3.75436C72.7042 3.68889 72.7514 3.67434 72.8096 3.71071L73.2497 3.99077C73.3043 4.02351 73.3116 4.07443 73.2716 4.13626L72.7151 5.01283C73.0279 5.26785 73.3088 5.55973 73.5516 5.88212L73.9154 6.34041C73.9255 6.35205 73.933 6.36579 73.9373 6.38065C73.9416 6.39551 73.9425 6.41112 73.9401 6.42639C73.9377 6.44166 73.9319 6.45621 73.9232 6.46901C73.9146 6.4818 73.9032 6.49254 73.8899 6.50045L73.4898 6.86417C73.4352 6.90418 73.388 6.90418 73.3552 6.86417L72.9479 6.60593C72.7697 6.27951 72.5549 5.97445 72.3077 5.69662L70.5509 8.46818L70.8928 8.99194ZM71.6967 5.31108C70.9437 4.94736 70.2127 5.0783 69.7908 5.74027C69.4816 6.22766 69.387 6.80233 69.9726 7.64617L70.0999 7.82803L71.6967 5.31108ZM68.4232 11.818C69.2015 12.149 70.0308 12.0399 70.4964 11.3016C70.8928 10.6796 70.6491 10.0249 70.2745 9.46114L70.0854 9.19198L68.4232 11.818Z" fill="#F77736"/>
<path d="M70.5 8.7336C71.1292 9.65018 71.3366 10.4758 70.7291 11.436C70.0017 12.5745 68.7905 12.7927 67.6157 12.2108L67.041 13.1164C67.0022 13.1795 66.9549 13.194 66.8992 13.1601L66.4591 12.88C66.4009 12.8436 66.3936 12.7964 66.4336 12.7345L67.001 11.8361C66.517 11.4895 66.0983 11.0597 65.7643 10.5668L65.4988 10.1739C65.4906 10.1628 65.4847 10.1502 65.4815 10.1367C65.4784 10.1233 65.4779 10.1093 65.4803 10.0957C65.4827 10.0821 65.4878 10.0691 65.4954 10.0576C65.5029 10.046 65.5128 10.0361 65.5243 10.0284L65.9353 9.66473C65.9971 9.61381 66.0444 9.61744 66.0771 9.66473L66.3463 10.0539C66.6341 10.4842 66.9962 10.8598 67.4156 11.1633L69.2524 8.25349L68.9396 7.85703C68.2122 6.78769 68.2122 5.99115 68.7687 5.10731C69.4561 4.01614 70.5873 3.77972 71.7112 4.37986L72.2568 3.51784C72.2968 3.45237 72.3477 3.43782 72.4022 3.4742L72.8424 3.75426C72.8969 3.787 72.9042 3.83792 72.8642 3.89975L72.3186 4.77996C72.6317 5.03583 72.9137 5.32759 73.1588 5.64925L73.5225 6.10754C73.5327 6.11918 73.5402 6.13292 73.5445 6.14777C73.5487 6.16263 73.5497 6.17825 73.5473 6.19352C73.5448 6.20879 73.5391 6.22333 73.5304 6.23613C73.5217 6.24893 73.5103 6.25966 73.497 6.26757L73.097 6.63129C73.046 6.6713 72.9951 6.6713 72.9624 6.63129L72.6205 6.19483C72.4174 5.92314 72.1802 5.67865 71.9149 5.46739L70.1363 8.22075L70.5 8.7336ZM71.3038 5.04911C70.5509 4.68539 69.8198 4.81633 69.3979 5.48194C69.0924 5.96569 68.9978 6.54036 69.5798 7.3842L69.7071 7.56969L71.3038 5.04911ZM68.0303 11.5561C68.8087 11.8871 69.638 11.7779 70.1035 11.0396C70.5 10.4176 70.2563 9.76293 69.8817 9.19916L69.6925 8.93365L68.0303 11.5561Z" fill="#FFF4B6"/>
<path d="M89.5735 22.275C89.0752 25.7631 85.9363 28.2036 82.5719 27.7308C79.2075 27.258 76.876 24.0318 77.3743 20.5437C77.8726 17.0556 81.0115 14.6187 84.3723 15.0879C87.7331 15.5571 90.0682 18.7869 89.5735 22.275Z" fill="#F77736"/>
<path d="M88.8061 22.1659C88.3078 25.654 85.2125 28.0982 81.8954 27.6217C78.5782 27.1452 76.2832 23.9372 76.7778 20.4491C77.2725 16.961 80.3714 14.5168 83.6885 14.9933C87.0057 15.4698 89.3044 18.6778 88.8061 22.1659Z" fill="#FCAF45"/>
<path d="M87.6894 22.0058C87.2857 24.8501 84.7797 26.8397 82.059 26.4541C79.3384 26.0686 77.4871 23.4534 77.8908 20.6128C78.2945 17.7721 80.8188 15.7789 83.5248 16.1645C86.2309 16.55 88.0968 19.1652 87.6894 22.0058Z" fill="#FFDC80"/>
<path d="M83.3212 21.3148C84.0122 21.7331 84.3942 22.2168 84.2778 23.0315C84.1395 23.999 83.4012 24.4864 82.4592 24.4864L82.3609 25.1739C82.3609 25.2284 82.3282 25.2502 82.2809 25.2466L81.8954 25.2721C81.8481 25.2721 81.8263 25.2357 81.8372 25.1811L81.9427 24.421C81.5185 24.3369 81.1131 24.1767 80.746 23.9481L80.4551 23.7699C80.4465 23.765 80.4391 23.7585 80.4332 23.7507C80.4273 23.7429 80.423 23.7339 80.4206 23.7244C80.4182 23.7149 80.4178 23.705 80.4193 23.6953C80.4209 23.6856 80.4244 23.6764 80.4296 23.6681L80.2768 23.2316C80.2987 23.1807 80.6405 23.2498 80.6915 23.2752L80.9861 23.4535C81.3051 23.6504 81.6558 23.7907 82.0227 23.8681L82.3864 21.4057L82.0554 21.202C81.2516 20.7146 81.0152 20.1873 81.1243 19.4343C81.1421 19.2294 81.2021 19.0303 81.3005 18.8496C81.399 18.6689 81.5337 18.5106 81.6963 18.3845C81.8589 18.2585 82.0459 18.1674 82.2454 18.1171C82.4449 18.0668 82.6527 18.0583 82.8556 18.0922L82.9611 17.3648C82.9611 17.3102 82.9975 17.2884 83.0447 17.2957L83.4085 17.3466C83.4557 17.3466 83.4776 17.383 83.4667 17.4375L83.3612 18.165C83.6447 18.2417 83.9181 18.3516 84.1759 18.4923L84.5396 18.6924C84.5499 18.6968 84.5591 18.7035 84.5665 18.7119C84.5739 18.7204 84.5793 18.7303 84.5824 18.7411C84.5856 18.7518 84.5863 18.7631 84.5845 18.7742C84.5828 18.7853 84.5786 18.7958 84.5724 18.8051L84.4087 19.1688C84.3869 19.2088 84.3541 19.2234 84.3178 19.2016L83.954 19.1506C83.74 18.987 83.5067 18.8502 83.2593 18.7433L82.9247 21.0966L83.3212 21.3148ZM82.7574 18.6414C82.6272 18.6225 82.4945 18.6294 82.3669 18.662C82.2394 18.6946 82.1196 18.7521 82.0145 18.8313C81.9093 18.9104 81.8208 19.0096 81.7542 19.1231C81.6876 19.2366 81.6441 19.3621 81.6262 19.4925C81.568 19.9072 81.6772 20.3146 82.3137 20.6965L82.4519 20.7801L82.7574 18.6414ZM82.5319 23.9154C82.818 23.9382 83.1023 23.8525 83.3281 23.6753C83.5539 23.498 83.7046 23.2422 83.7504 22.9588C83.8231 22.4278 83.4703 22.0677 83.0557 21.8058L82.8665 21.6785L82.5319 23.9154Z" fill="#F77736"/>
<path d="M82.9756 21.2638C83.6667 21.6821 84.0486 22.1659 83.9322 22.9806C83.794 23.9445 83.0556 24.4355 82.1136 24.4173L82.0045 25.1884C82.0045 25.2429 81.9681 25.2648 81.9208 25.2575L81.5571 25.2066C81.5098 25.2066 81.488 25.1702 81.4989 25.1156L81.6044 24.3555C81.1807 24.2697 80.7756 24.1096 80.4078 23.8826L80.1168 23.7044C80.1082 23.6992 80.1006 23.6923 80.0947 23.6842C80.0887 23.676 80.0844 23.6668 80.0821 23.657C80.0797 23.6472 80.0793 23.637 80.0809 23.627C80.0825 23.6171 80.086 23.6075 80.0913 23.5989L80.2586 23.2352C80.2841 23.1843 80.3168 23.1697 80.3532 23.1916L80.6478 23.3698C80.9653 23.5698 81.3166 23.7103 81.6844 23.7844L82.0481 21.322L81.7172 21.122C80.9133 20.631 80.6769 20.1036 80.786 19.3507C80.8086 19.1502 80.8716 18.9564 80.9711 18.7809C81.0706 18.6054 81.2045 18.4519 81.3649 18.3295C81.5253 18.2072 81.7088 18.1186 81.9044 18.0691C82.0999 18.0195 82.3035 18.0101 82.5028 18.0413L82.6083 17.3138C82.6083 17.2593 82.6446 17.2338 82.6883 17.2411L83.052 17.2956C83.0993 17.2956 83.1211 17.332 83.1102 17.3866L83.0047 18.114C83.2882 18.1908 83.5617 18.3007 83.8195 18.4414L84.1832 18.6378C84.1936 18.6427 84.2028 18.6497 84.2102 18.6585C84.2176 18.6672 84.223 18.6775 84.2261 18.6885C84.2292 18.6995 84.2299 18.7111 84.2282 18.7224C84.2264 18.7338 84.2222 18.7446 84.2159 18.7542L84.0522 19.1179C84.0304 19.1615 83.9977 19.1761 83.9613 19.1506L83.5976 18.9651C83.3828 18.8442 83.1528 18.7524 82.9138 18.6923L82.5792 21.0456L82.9756 21.2638ZM82.4119 18.5869C82.2814 18.5684 82.1486 18.5759 82.0211 18.6089C81.8935 18.6419 81.7738 18.6998 81.6687 18.7792C81.5636 18.8586 81.4752 18.958 81.4086 19.0717C81.342 19.1854 81.2986 19.3111 81.2807 19.4416C81.2225 19.8526 81.3316 20.26 81.9681 20.6455L82.1063 20.7292L82.4119 18.5869ZM82.1864 23.8608C82.4727 23.8819 82.7565 23.795 82.982 23.6173C83.2075 23.4396 83.3584 23.1839 83.4048 22.9006C83.4776 22.3732 83.1248 22.0131 82.7101 21.7512L82.5028 21.6312L82.1864 23.8608Z" fill="#FFF4B6"/>
<path d="M131.096 46.7134C130.972 46.4297 130.834 46.1569 130.689 45.8877H114.943V41.2867C112.986 42.3722 111.386 44.0036 110.339 45.982C109.293 47.9604 108.844 50.2005 109.047 52.4295C109.251 54.6585 110.098 56.7802 111.486 58.5361C112.875 60.2921 114.743 61.6065 116.865 62.3193C118.987 63.0322 121.27 63.1126 123.437 62.5509C125.603 61.9892 127.56 60.8095 129.068 59.1557C130.576 57.5018 131.571 55.445 131.931 53.2359C132.291 51.0268 132.001 48.7606 131.096 46.7134Z" fill="#3B5BE3"/>
<path d="M109.371 54.2934C109.371 54.2934 120.184 50.1069 126.513 47.8046C129.179 46.8334 130.925 46.3497 130.838 46.1897C129.878 44.2777 128.405 42.6707 126.584 41.5484C124.763 40.4262 122.665 39.833 120.526 39.8355C117.465 39.8364 114.53 41.0531 112.365 43.218C110.201 45.383 108.985 48.3188 108.985 51.38C108.986 52.2902 109.093 53.1973 109.305 54.0824L109.371 54.2934Z" fill="#6B2A9E"/>
<path d="M123.44 40.2028C120.642 39.427 117.669 39.5789 114.965 40.6356C110.684 42.3306 108.996 46.4915 108.996 51.38C108.996 52.2902 109.104 53.1973 109.316 54.0824L109.371 54.2934" fill="#DD4017"/>
<path d="M119.184 50.2851L123.098 40.5156C120.462 39.569 117.572 39.6117 114.965 40.6356L119.184 50.2851Z" fill="#EF6629"/>
<path d="M129.743 46.7134C129.108 45.2885 128.193 44.0063 127.051 42.9438C125.909 41.8813 124.565 41.0604 123.098 40.5302L119.184 50.2997L129.743 46.7134Z" fill="#843AB5"/>
<path d="M119.184 50.2851L107.963 54.0824C108.337 55.6433 109.031 57.1092 110.003 58.3866C110.975 59.6639 112.202 60.7246 113.607 61.5009C115.012 62.2773 116.563 62.7522 118.161 62.8953C119.76 63.0385 121.371 62.8468 122.891 62.3324C124.411 61.818 125.808 60.9923 126.991 59.9079C128.174 58.8235 129.118 57.5044 129.763 56.0346C130.408 54.5649 130.739 52.9768 130.736 51.3719C130.732 49.7669 130.394 48.1803 129.743 46.7134L119.184 50.2851Z" fill="#746BFF"/>
<path d="M114.965 40.6356C112.367 41.6517 110.226 43.5755 108.938 46.0503C107.651 48.525 107.304 51.3826 107.963 54.0933L119.184 50.296L114.965 40.6356Z" fill="#E2306C"/>
<path d="M121.785 71.5082L95.8696 81.0377C95.5393 81.1593 95.2363 81.3448 94.9779 81.5836C94.7194 81.8224 94.5106 82.1098 94.3633 82.4293C94.216 82.7489 94.1331 83.0944 94.1195 83.446C94.1059 83.7976 94.1617 84.1485 94.2837 84.4785L102.286 106.193C102.532 106.859 103.033 107.4 103.678 107.698C104.322 107.996 105.059 108.026 105.726 107.782L131.631 98.2344C132.298 97.988 132.84 97.4869 133.138 96.8411C133.436 96.1953 133.466 95.4576 133.22 94.79L125.218 73.0795C124.97 72.417 124.469 71.8798 123.826 71.5854C123.182 71.2909 122.448 71.2632 121.785 71.5082ZM114.874 79.6701L106.741 82.6672C106.492 82.7597 106.222 82.7762 105.964 82.7145C105.706 82.6529 105.472 82.5159 105.292 82.321C105.111 82.1261 104.993 81.882 104.952 81.6199C104.911 81.3577 104.949 81.0892 105.061 80.8486C105.134 80.6887 105.238 80.5449 105.368 80.4257C105.497 80.3064 105.648 80.214 105.814 80.1539L113.946 77.1568C114.277 77.0489 114.636 77.0732 114.948 77.2246C115.261 77.376 115.503 77.6426 115.623 77.9685C115.743 78.2944 115.732 78.6541 115.592 78.9721C115.453 79.2901 115.195 79.5416 114.874 79.6738V79.6701Z" fill="#C1EAE7"/>
<path d="M121.785 71.5082L95.8696 81.0377C95.5393 81.1593 95.2363 81.3448 94.9779 81.5836C94.7194 81.8224 94.5106 82.1098 94.3633 82.4294C94.216 82.7489 94.1331 83.0944 94.1195 83.446C94.1059 83.7976 94.1617 84.1485 94.2837 84.4785L96.9716 91.753L127.906 80.3539L125.215 73.0613C124.962 72.403 124.461 71.8707 123.819 71.5799C123.177 71.2891 122.446 71.2634 121.785 71.5082ZM114.874 79.6701L106.741 82.6672C106.492 82.7597 106.222 82.7762 105.964 82.7145C105.706 82.6529 105.472 82.5159 105.292 82.321C105.111 82.1261 104.993 81.8821 104.952 81.6199C104.911 81.3577 104.949 81.0893 105.061 80.8486C105.134 80.6887 105.238 80.545 105.368 80.4257C105.497 80.3064 105.648 80.214 105.814 80.1539L113.946 77.1568C114.277 77.049 114.636 77.0733 114.948 77.2246C115.261 77.376 115.503 77.6426 115.623 77.9685C115.743 78.2944 115.732 78.6541 115.592 78.9722C115.453 79.2902 115.195 79.5416 114.874 79.6738V79.6701Z" fill="#C91B5E"/>
<path d="M121.785 71.5082L95.8696 81.0377C95.5393 81.1593 95.2363 81.3448 94.9779 81.5836C94.7194 81.8224 94.5106 82.1098 94.3633 82.4293C94.216 82.7489 94.1331 83.0944 94.1195 83.446C94.1059 83.7976 94.1617 84.1485 94.2837 84.4785L96.0769 89.3305L126.993 77.9315L125.2 73.0686C124.949 72.4124 124.451 71.8811 123.812 71.5892C123.173 71.2973 122.445 71.2682 121.785 71.5082ZM114.874 79.6701L106.741 82.6672C106.492 82.7597 106.222 82.7762 105.964 82.7145C105.706 82.6529 105.472 82.5159 105.292 82.321C105.111 82.1261 104.993 81.882 104.952 81.6199C104.911 81.3577 104.949 81.0892 105.061 80.8486C105.134 80.6887 105.238 80.5449 105.368 80.4257C105.497 80.3064 105.648 80.214 105.814 80.1539L113.946 77.1568C114.277 77.0489 114.636 77.0732 114.948 77.2246C115.261 77.376 115.503 77.6426 115.623 77.9685C115.743 78.2944 115.732 78.6541 115.592 78.9721C115.453 79.2901 115.195 79.5416 114.874 79.6738V79.6701Z" fill="#E2306C"/>
<path d="M105.755 92.7168C105.883 93.0699 105.867 93.4593 105.708 93.8001C105.55 94.1408 105.264 94.4051 104.912 94.5354L102.984 95.2446C102.631 95.3738 102.242 95.358 101.901 95.2005C101.56 95.043 101.295 94.7567 101.165 94.4045C101.036 94.0518 101.052 93.6624 101.209 93.3215C101.367 92.9806 101.653 92.716 102.005 92.5858L103.933 91.8584C104.286 91.7304 104.676 91.7473 105.016 91.9054C105.357 92.0635 105.622 92.3499 105.752 92.7022L105.755 92.7168Z" fill="white"/>
<path d="M112.644 90.1744C112.773 90.527 112.756 90.9161 112.599 91.2567C112.441 91.5973 112.156 91.862 111.804 91.993L109.876 92.7204C109.524 92.8486 109.135 92.8322 108.794 92.6749C108.453 92.5175 108.189 92.2318 108.058 91.8802C107.929 91.5271 107.945 91.1373 108.103 90.7963C108.262 90.4553 108.549 90.1911 108.902 90.0616L110.829 89.3342C111.182 89.205 111.571 89.2208 111.912 89.3783C112.253 89.5358 112.518 89.8221 112.648 90.1744H112.644Z" fill="white"/>
<path d="M119.537 87.6356C119.666 87.9882 119.65 88.3777 119.493 88.7186C119.335 89.0595 119.049 89.324 118.697 89.4542L116.765 90.1816C116.413 90.3098 116.024 90.2935 115.683 90.1361C115.342 89.9787 115.078 89.6931 114.947 89.3414C114.818 88.9888 114.835 88.5997 114.992 88.2591C115.15 87.9185 115.435 87.6538 115.787 87.5228L117.718 86.7954C118.071 86.6662 118.46 86.6821 118.801 86.8396C119.142 86.9971 119.407 87.2833 119.537 87.6356Z" fill="white"/>
<path d="M126.429 85.0969C126.557 85.45 126.54 85.8395 126.382 86.1802C126.224 86.5209 125.938 86.7852 125.586 86.9155L123.658 87.6429C123.305 87.769 122.916 87.7511 122.576 87.5933C122.236 87.4354 121.971 87.1502 121.839 86.7991C121.711 86.446 121.728 86.0565 121.886 85.7158C122.044 85.3751 122.331 85.1108 122.683 84.9805L124.611 84.2531C124.964 84.125 125.353 84.1419 125.694 84.3C126.035 84.4581 126.299 84.7446 126.429 85.0969Z" fill="white"/>
<path d="M107.381 97.1251C107.51 97.4782 107.494 97.868 107.336 98.209C107.177 98.55 106.89 98.8143 106.537 98.9437L104.61 99.6712C104.257 99.8004 103.868 99.7845 103.527 99.627C103.186 99.4695 102.921 99.1832 102.791 98.831C102.663 98.4783 102.679 98.0893 102.837 97.7486C102.994 97.408 103.28 97.1433 103.631 97.0124L105.559 96.3031C105.912 96.1749 106.301 96.1913 106.641 96.3486C106.982 96.506 107.247 96.7917 107.378 97.1433L107.381 97.1251Z" fill="white"/>
<path d="M114.27 94.5863C114.399 94.9389 114.383 95.3284 114.226 95.6693C114.068 96.0102 113.782 96.2747 113.43 96.4049L111.499 97.1324C111.146 97.2604 110.756 97.2435 110.415 97.0854C110.075 96.9273 109.81 96.6408 109.68 96.2885C109.551 95.9355 109.567 95.5456 109.726 95.2046C109.884 94.8636 110.171 94.5994 110.524 94.4699L112.452 93.7607C112.626 93.6962 112.812 93.6668 112.998 93.6741C113.184 93.6815 113.366 93.7254 113.535 93.8035C113.704 93.8815 113.856 93.9921 113.982 94.129C114.108 94.2658 114.206 94.4261 114.27 94.6009V94.5863Z" fill="white"/>
<path d="M121.163 92.0476C121.291 92.4003 121.274 92.7893 121.117 93.1299C120.96 93.4706 120.674 93.7352 120.322 93.8662L118.391 94.5755C118.039 94.7047 117.649 94.6888 117.308 94.5313C116.967 94.3738 116.703 94.0875 116.573 93.7353C116.443 93.3826 116.459 92.9932 116.617 92.6523C116.774 92.3114 117.06 92.0468 117.413 91.9167L119.344 91.1892C119.697 91.0612 120.087 91.0781 120.427 91.2362C120.768 91.3943 121.032 91.6807 121.163 92.033V92.0476Z" fill="#E2306C"/>
<path d="M128.055 89.5052C128.181 89.8584 128.163 90.247 128.006 90.5872C127.848 90.9274 127.562 91.192 127.211 91.3238L125.284 92.033C124.931 92.1612 124.542 92.1449 124.201 91.9875C123.861 91.8301 123.596 91.5445 123.465 91.1928C123.337 90.8397 123.354 90.4503 123.512 90.1096C123.67 89.7688 123.957 89.5045 124.309 89.3742L126.237 88.6468C126.589 88.5186 126.978 88.535 127.319 88.6923C127.66 88.8497 127.924 89.1353 128.055 89.487V89.5052Z" fill="white"/>
<path d="M109.007 101.537C109.135 101.89 109.118 102.28 108.96 102.62C108.802 102.961 108.516 103.225 108.163 103.356L106.236 104.065C106.061 104.129 105.875 104.159 105.69 104.151C105.504 104.144 105.321 104.1 105.152 104.022C104.983 103.944 104.831 103.833 104.705 103.697C104.579 103.56 104.481 103.399 104.417 103.225C104.353 103.05 104.323 102.865 104.33 102.679C104.338 102.493 104.382 102.31 104.46 102.141C104.538 101.972 104.648 101.82 104.785 101.694C104.922 101.568 105.082 101.47 105.257 101.406L107.185 100.679C107.538 100.551 107.927 100.568 108.268 100.726C108.609 100.884 108.873 101.17 109.003 101.522L109.007 101.537Z" fill="white"/>
<path d="M115.896 98.9983C116.025 99.3509 116.009 99.7403 115.852 100.081C115.694 100.422 115.408 100.687 115.056 100.817L113.124 101.544C112.772 101.674 112.382 101.658 112.041 101.5C111.701 101.343 111.436 101.056 111.306 100.704C111.177 100.351 111.193 99.962 111.35 99.6211C111.508 99.2802 111.794 99.0157 112.146 98.8855L114.077 98.1581C114.252 98.0937 114.438 98.0644 114.624 98.072C114.81 98.0796 114.993 98.1239 115.162 98.2023C115.331 98.2807 115.483 98.3917 115.609 98.5289C115.735 98.6661 115.832 98.8269 115.896 99.0019V98.9983Z" fill="white"/>
<path d="M122.789 96.4558C122.917 96.8085 122.9 97.1975 122.743 97.5382C122.586 97.8788 122.3 98.1434 121.948 98.2744L120.017 99.0018C119.664 99.1301 119.275 99.1137 118.935 98.9563C118.594 98.7989 118.329 98.5133 118.198 98.1617C118.07 97.809 118.087 97.42 118.244 97.0793C118.401 96.7387 118.687 96.474 119.039 96.3431L120.966 95.6156C121.319 95.4874 121.708 95.5038 122.049 95.6612C122.389 95.8185 122.654 96.1042 122.785 96.4558H122.789Z" fill="white"/>
<path d="M129.681 93.917C129.809 94.2701 129.792 94.6596 129.634 95.0003C129.476 95.341 129.19 95.6054 128.837 95.7356L126.909 96.463C126.556 96.5911 126.167 96.5742 125.826 96.4161C125.485 96.258 125.221 95.9715 125.091 95.6192C124.963 95.2661 124.98 94.8767 125.138 94.5359C125.296 94.1952 125.582 93.9309 125.935 93.8006L127.862 93.0914C128.215 92.9622 128.604 92.978 128.945 93.1355C129.286 93.293 129.551 93.5793 129.681 93.9316V93.917Z" fill="white"/>
<path d="M101.274 80.714C101.315 80.8241 101.333 80.9411 101.329 81.0583C101.324 81.1756 101.296 81.2907 101.247 81.3972C101.198 81.5036 101.128 81.5993 101.041 81.6787C100.955 81.758 100.854 81.8196 100.743 81.8597C100.633 81.9003 100.516 81.9188 100.399 81.9141C100.282 81.9094 100.167 81.8815 100.06 81.8322C99.9538 81.7828 99.8581 81.713 99.7787 81.6266C99.6994 81.5402 99.6378 81.4389 99.5977 81.3287L98.8266 79.2337C98.7859 79.1238 98.7672 79.007 98.7717 78.89C98.7762 78.7729 98.8037 78.6579 98.8527 78.5515C98.9017 78.445 98.9712 78.3493 99.0572 78.2698C99.1432 78.1903 99.244 78.1285 99.354 78.0879C99.5763 78.0056 99.8223 78.0149 100.038 78.1138C100.253 78.2127 100.421 78.3931 100.503 78.6153L101.274 80.714Z" fill="white"/>
<path d="M119.082 74.1489C119.123 74.2592 119.141 74.3765 119.137 74.4939C119.132 74.6114 119.104 74.7269 119.055 74.8336C119.006 74.9404 118.936 75.0363 118.849 75.1161C118.763 75.1958 118.662 75.2577 118.551 75.2982C118.332 75.3765 118.092 75.3664 117.881 75.2699C117.669 75.1734 117.504 74.9983 117.42 74.7817L116.645 72.6867C116.605 72.5766 116.586 72.4596 116.591 72.3424C116.596 72.2251 116.623 72.11 116.673 72.0035C116.722 71.8971 116.792 71.8014 116.878 71.7221C116.965 71.6427 117.066 71.5811 117.176 71.541C117.286 71.5003 117.403 71.4816 117.52 71.4861C117.637 71.4906 117.752 71.5181 117.859 71.5671C117.965 71.6161 118.061 71.6856 118.14 71.7716C118.22 71.8576 118.282 71.9585 118.322 72.0684L119.082 74.1489Z" fill="white"/>
<path d="M44.0393 80.1975C44.1807 80.3908 44.2825 80.6101 44.339 80.8428C44.3954 81.0755 44.4053 81.3171 44.3681 81.5537C44.331 81.7902 44.2474 82.0171 44.1224 82.2213C43.9973 82.4255 43.8331 82.603 43.6392 82.7436L24.4275 96.6996C24.2342 96.841 24.0149 96.9428 23.7822 96.9992C23.5495 97.0556 23.3079 97.0656 23.0714 97.0284C22.8348 96.9912 22.6079 96.9077 22.4037 96.7826C22.1995 96.6575 22.022 96.4933 21.8814 96.2995L3.0407 70.3698C2.89931 70.1765 2.79748 69.9573 2.74105 69.7245C2.68462 69.4918 2.67471 69.2502 2.71188 69.0137C2.74906 68.7771 2.83258 68.5502 2.95767 68.346C3.08276 68.1418 3.24694 67.9643 3.4408 67.8238L22.6525 53.8678C23.4636 53.2749 24.5584 53.2677 25.0858 53.9696L44.0393 80.1975Z" fill="#EF8D43"/>
<path d="M44.7631 80.092C44.9045 80.2853 45.0063 80.5046 45.0628 80.7373C45.1192 80.97 45.1291 81.2116 45.0919 81.4482C45.0548 81.6847 44.9712 81.9116 44.8462 82.1158C44.7211 82.32 44.5569 82.4975 44.363 82.6381L25.1513 96.605C24.958 96.7464 24.7387 96.8482 24.506 96.9046C24.2733 96.961 24.0317 96.971 23.7952 96.9338C23.5586 96.8966 23.3317 96.8131 23.1275 96.688C22.9233 96.5629 22.7458 96.3987 22.6052 96.2049L3.7645 70.2716C3.62311 70.0783 3.52128 69.859 3.46485 69.6263C3.40842 69.3936 3.39851 69.152 3.43568 68.9154C3.47286 68.6789 3.55638 68.452 3.68147 68.2478C3.80656 68.0436 3.97074 67.8661 4.1646 67.7255L23.3763 53.7659C23.5698 53.6247 23.7893 53.5231 24.0222 53.467C24.255 53.4108 24.4967 53.4012 24.7332 53.4388C24.9698 53.4763 25.1967 53.5602 25.4007 53.6856C25.6048 53.811 25.7821 53.9755 25.9224 54.1697L44.7631 80.092Z" fill="#F2BF6D"/>
<path d="M23.7786 56.7329L6.88235 69.0087L23.962 92.5168L40.8582 80.241L23.7786 56.7329Z" fill="white"/>
<path d="M16.0619 56.6612L14.0505 58.076C13.2831 57.2358 12.0464 57.2431 11.1044 57.9269C10.6857 58.2337 10.3851 58.6748 10.2527 59.1766C10.1203 59.6785 10.1641 60.2105 10.377 60.6839C10.4061 60.7494 8.34012 62.2079 8.34012 62.2079L9.34035 68.3366L9.64224 68.4021L21.645 59.5891L16.4511 56.6466L16.0619 56.6612ZM13.0321 60.5675C12.8715 60.6845 12.6799 60.7512 12.4814 60.7592C12.2829 60.7672 12.0865 60.7161 11.917 60.6124C11.7476 60.5087 11.6127 60.357 11.5295 60.1767C11.4463 59.9963 11.4184 59.7952 11.4495 59.599C11.4806 59.4028 11.5692 59.2202 11.7041 59.0744C11.839 58.9286 12.0142 58.8261 12.2074 58.7798C12.4006 58.7336 12.6032 58.7457 12.7895 58.8147C12.9758 58.8836 13.1374 59.0063 13.254 59.1672C13.4099 59.3824 13.4741 59.6507 13.4325 59.9132C13.3909 60.1757 13.2469 60.411 13.0321 60.5675Z" fill="#A7B4BC"/>
<path d="M16.4293 56.6466L14.3815 58.1342C14.006 57.7256 13.4934 57.4693 12.9412 57.414C12.389 57.3586 11.8357 57.5082 11.3866 57.8343C10.9375 58.1603 10.6239 58.6401 10.5055 59.1823C10.3871 59.7244 10.4721 60.2912 10.7443 60.7748L8.66747 62.2843L9.63133 68.4021L21.8996 59.5055L16.4293 56.6466ZM13.3049 60.473C13.1443 60.5895 12.9527 60.6557 12.7544 60.6634C12.5561 60.6711 12.36 60.6198 12.1908 60.5161C12.0216 60.4124 11.887 60.2608 11.8039 60.0806C11.7208 59.9004 11.693 59.6996 11.724 59.5036C11.755 59.3076 11.8433 59.1252 11.9779 58.9793C12.1125 58.8335 12.2874 58.7309 12.4803 58.6844C12.6732 58.6379 12.8756 58.6496 13.0618 58.718C13.2481 58.7865 13.4099 58.9086 13.5268 59.069C13.6045 59.1757 13.6605 59.2967 13.6915 59.425C13.7224 59.5534 13.7277 59.6866 13.7071 59.817C13.6865 59.9474 13.6404 60.0725 13.5713 60.185C13.5023 60.2976 13.4118 60.3954 13.3049 60.473Z" fill="#D4D8DB"/>
<path d="M10.9116 70.6498C10.8934 70.6564 10.8735 70.6568 10.8551 70.6509C10.8367 70.645 10.8207 70.6331 10.8098 70.6171C10.8028 70.6073 10.7978 70.5963 10.7951 70.5845C10.7925 70.5728 10.7921 70.5607 10.7942 70.5489C10.7962 70.537 10.8005 70.5257 10.807 70.5156C10.8134 70.5054 10.8218 70.4967 10.8316 70.4898L24.162 61.033C24.1717 61.0261 24.1828 61.0211 24.1945 61.0184C24.2062 61.0157 24.2183 61.0154 24.2302 61.0174C24.242 61.0194 24.2533 61.0238 24.2635 61.0302C24.2736 61.0367 24.2824 61.045 24.2893 61.0549C24.2962 61.0646 24.3012 61.0757 24.3039 61.0874C24.3066 61.0991 24.3069 61.1112 24.3049 61.1231C24.3029 61.1349 24.2985 61.1462 24.2921 61.1564C24.2856 61.1665 24.2773 61.1753 24.2674 61.1822L10.9371 70.6389L10.9116 70.6498Z" fill="#A7B4BC"/>
<path d="M11.7809 71.8719C11.7627 71.8786 11.7428 71.8789 11.7244 71.873C11.706 71.8671 11.69 71.8552 11.6791 71.8392C11.6721 71.8294 11.6671 71.8184 11.6645 71.8067C11.6618 71.795 11.6614 71.7829 11.6635 71.771C11.6655 71.7592 11.6698 71.7479 11.6763 71.7377C11.6827 71.7276 11.6911 71.7188 11.7009 71.7119L25.0349 62.2552C25.0447 62.2482 25.0558 62.2433 25.0675 62.2407C25.0792 62.238 25.0913 62.2377 25.1031 62.2397C25.1149 62.2417 25.1262 62.2461 25.1364 62.2525C25.1465 62.2589 25.1553 62.2672 25.1622 62.277C25.1691 62.2868 25.1741 62.2978 25.1767 62.3095C25.1794 62.3212 25.1797 62.3333 25.1777 62.3452C25.1756 62.357 25.1713 62.3683 25.1649 62.3784C25.1585 62.3886 25.1502 62.3974 25.1404 62.4043L11.8064 71.8719C11.798 71.874 11.7893 71.874 11.7809 71.8719Z" fill="#A7B4BC"/>
<path d="M12.6684 73.1231C12.6497 73.13 12.6292 73.1305 12.6101 73.1246C12.5911 73.1187 12.5745 73.1067 12.5629 73.0904C12.556 73.0806 12.551 73.0696 12.5483 73.0579C12.5456 73.0462 12.5453 73.034 12.5473 73.0222C12.5493 73.0104 12.5537 72.9991 12.5601 72.9889C12.5665 72.9788 12.5749 72.97 12.5848 72.9631L25.9188 63.5064C25.9285 63.4994 25.9396 63.4944 25.9513 63.4917C25.963 63.4891 25.9751 63.4887 25.987 63.4907C25.9988 63.4928 26.0101 63.4971 26.0203 63.5036C26.0304 63.51 26.0392 63.5184 26.0461 63.5282C26.053 63.538 26.058 63.549 26.0607 63.5607C26.0634 63.5724 26.0637 63.5845 26.0617 63.5964C26.0596 63.6082 26.0553 63.6195 26.0489 63.6297C26.0424 63.6398 26.0341 63.6486 26.0242 63.6555L12.6684 73.1122V73.1231Z" fill="#A7B4BC"/>
<path d="M13.5231 74.3598C13.5043 74.3661 13.484 74.3663 13.4651 74.3604C13.4462 74.3546 13.4296 74.3429 13.4177 74.3271C13.4107 74.3173 13.4057 74.3062 13.403 74.2945C13.4003 74.2828 13.4 74.2707 13.402 74.2589C13.4041 74.247 13.4084 74.2357 13.4148 74.2256C13.4213 74.2154 13.4296 74.2067 13.4395 74.1998L26.7735 64.743C26.7933 64.729 26.8178 64.7235 26.8416 64.7276C26.8655 64.7317 26.8868 64.7451 26.9008 64.7649C26.9148 64.7846 26.9203 64.8091 26.9162 64.833C26.9121 64.8569 26.8987 64.8782 26.879 64.8921L13.545 74.3489L13.5231 74.3598Z" fill="#A7B4BC"/>
<path d="M14.3924 75.5965C14.3742 75.6025 14.3545 75.6026 14.3362 75.5967C14.3179 75.5908 14.3019 75.5793 14.2906 75.5637C14.2831 75.5542 14.2777 75.5431 14.2747 75.5313C14.2718 75.5195 14.2713 75.5072 14.2733 75.4953C14.2754 75.4833 14.2799 75.4719 14.2867 75.4617C14.2934 75.4516 14.3022 75.443 14.3124 75.4364L27.6428 65.9797C27.6521 65.9704 27.6633 65.9633 27.6756 65.9588C27.6879 65.9543 27.7011 65.9525 27.7142 65.9536C27.7273 65.9547 27.74 65.9586 27.7514 65.965C27.7628 65.9714 27.7727 65.9802 27.7804 65.9909C27.7881 66.0015 27.7935 66.0137 27.796 66.0265C27.7986 66.0394 27.7983 66.0527 27.7953 66.0654C27.7922 66.0782 27.7864 66.0901 27.7783 66.1005C27.7702 66.1108 27.7599 66.1192 27.7483 66.1252L14.4143 75.5819L14.3924 75.5965Z" fill="#A7B4BC"/>
<path d="M15.2617 76.8295C15.2436 76.8368 15.2235 76.8375 15.2049 76.8315C15.1863 76.8255 15.1704 76.8132 15.1599 76.7967C15.1525 76.7874 15.1471 76.7767 15.1442 76.7652C15.1412 76.7537 15.1408 76.7417 15.1428 76.73C15.1449 76.7183 15.1494 76.7071 15.1561 76.6973C15.1628 76.6875 15.1716 76.6792 15.1817 76.6731L28.5157 67.2163C28.5248 67.2087 28.5353 67.2032 28.5467 67.1999C28.558 67.1967 28.5699 67.1959 28.5816 67.1977C28.5933 67.1994 28.6045 67.2035 28.6144 67.2099C28.6244 67.2162 28.6329 67.2246 28.6394 67.2345C28.6469 67.2441 28.6523 67.2551 28.6552 67.2669C28.6582 67.2787 28.6587 67.291 28.6566 67.303C28.6546 67.315 28.65 67.3264 28.6433 67.3365C28.6366 67.3467 28.6278 67.3553 28.6175 67.3618L15.2872 76.8186L15.2617 76.8295Z" fill="#A7B4BC"/>
<path d="M24.9767 77.2259C24.9584 77.2314 24.9389 77.2312 24.9207 77.2253C24.9025 77.2195 24.8865 77.2083 24.8749 77.1932C24.8582 77.1762 24.8489 77.1533 24.8489 77.1295C24.8489 77.1057 24.8582 77.0829 24.8749 77.0659L31.0108 72.5994C31.0201 72.5923 31.0307 72.5872 31.0419 72.5843C31.0532 72.5813 31.065 72.5807 31.0765 72.5824C31.088 72.5841 31.0991 72.5881 31.109 72.5941C31.119 72.6002 31.1277 72.6081 31.1345 72.6176C31.1422 72.6269 31.1478 72.6378 31.151 72.6494C31.1543 72.6611 31.1551 72.6733 31.1534 72.6852C31.1517 72.6972 31.1475 72.7087 31.1411 72.7189C31.1347 72.7292 31.1263 72.738 31.1163 72.7449L25.0022 77.2114L24.9767 77.2259Z" fill="#A7B4BC"/>
<path d="M58.9264 14.826C58.9429 14.8747 58.9496 14.9262 58.9461 14.9775C58.9425 15.0288 58.9289 15.0789 58.9059 15.1249C58.8829 15.1709 58.851 15.2119 58.8121 15.2455C58.7731 15.2791 58.7279 15.3046 58.6791 15.3206L50.7136 28.9529L35.8956 22.9515C35.8469 22.968 35.7954 22.9747 35.7441 22.9712C35.6928 22.9676 35.6427 22.954 35.5967 22.931C35.5507 22.908 35.5097 22.8761 35.4761 22.8372C35.4425 22.7982 35.417 22.753 35.4009 22.7042C35.4009 22.7042 42.0716 8.7482 43.6356 8.2208C45.1996 7.69341 58.9264 14.826 58.9264 14.826Z" fill="#ACDDDB"/>
<path d="M60.6359 27.9381C60.6525 27.9866 60.6593 28.0378 60.656 28.089C60.6528 28.1401 60.6394 28.1901 60.6168 28.236C60.5941 28.282 60.5626 28.323 60.5241 28.3568C60.4856 28.3905 60.4408 28.4164 60.3922 28.4328L41.8425 34.6451C41.7937 34.6616 41.7422 34.6683 41.6909 34.6648C41.6396 34.6612 41.5895 34.6476 41.5435 34.6246C41.4975 34.6016 41.4566 34.5697 41.423 34.5308C41.3894 34.4918 41.3638 34.4466 41.3478 34.3978L35.0118 15.4843C34.9952 15.4358 34.9883 15.3846 34.9916 15.3334C34.9949 15.2823 35.0083 15.2323 35.0309 15.1864C35.0535 15.1404 35.085 15.0994 35.1236 15.0656C35.1621 15.0318 35.2069 15.006 35.2555 14.9896L53.8052 8.77729C53.8539 8.76079 53.9054 8.75411 53.9567 8.75763C54.008 8.76115 54.0581 8.7748 54.1041 8.7978C54.1501 8.8208 54.1911 8.85269 54.2247 8.89162C54.2583 8.93055 54.2839 8.97575 54.2999 9.02462L60.6359 27.9381Z" fill="white"/>
<path d="M53.5943 12.2472L37.4887 17.6412C37.444 17.6465 37.3989 17.6363 37.3609 17.6123C37.3229 17.5883 37.2942 17.5519 37.2797 17.5094C37.2652 17.4668 37.2658 17.4205 37.2814 17.3783C37.2969 17.3361 37.3264 17.3005 37.365 17.2775L53.4706 11.8835C53.5153 11.8782 53.5604 11.8884 53.5984 11.9124C53.6365 11.9364 53.6651 11.9727 53.6796 12.0153C53.6941 12.0579 53.6935 12.1042 53.678 12.1464C53.6624 12.1886 53.6329 12.2242 53.5943 12.2472Z" fill="#353593"/>
<path d="M54.1326 13.884L38.027 19.2816C37.9778 19.2978 37.9242 19.2938 37.8779 19.2707C37.8316 19.2475 37.7963 19.207 37.7797 19.1579C37.7711 19.1338 37.7674 19.1083 37.7688 19.0827C37.7702 19.0572 37.7767 19.0321 37.7879 19.0091C37.799 18.9861 37.8147 18.9655 37.8339 18.9486C37.8531 18.9317 37.8755 18.9188 37.8997 18.9106L54.0089 13.513C54.0581 13.4978 54.1113 13.5022 54.1574 13.5252C54.2035 13.5482 54.2389 13.5882 54.2562 13.6367C54.2724 13.6859 54.2685 13.7394 54.2453 13.7858C54.2222 13.8321 54.1816 13.8674 54.1326 13.884Z" fill="#353593"/>
<path d="M54.6927 15.5244L38.5835 20.9184C38.5343 20.9345 38.4807 20.9306 38.4344 20.9074C38.3881 20.8843 38.3528 20.8437 38.3362 20.7947C38.321 20.7455 38.3254 20.6923 38.3484 20.6462C38.3714 20.6001 38.4113 20.5647 38.4598 20.5474L54.5654 15.1534C54.6151 15.1371 54.6692 15.1409 54.7161 15.164C54.763 15.1871 54.799 15.2277 54.8164 15.277C54.8325 15.3262 54.8286 15.3798 54.8054 15.4262C54.7823 15.4725 54.7417 15.5078 54.6927 15.5244Z" fill="#353593"/>
<path d="M55.2419 17.1647L39.1327 22.5587C39.0881 22.5639 39.0429 22.5537 39.0049 22.5297C38.9669 22.5057 38.9382 22.4694 38.9237 22.4268C38.9093 22.3843 38.9098 22.338 38.9254 22.2958C38.9409 22.2536 38.9704 22.218 39.0091 22.1949L55.1146 16.801C55.1387 16.7924 55.1643 16.7887 55.1898 16.7901C55.2154 16.7915 55.2404 16.798 55.2634 16.8091C55.2865 16.8203 55.307 16.836 55.3239 16.8552C55.3408 16.8744 55.3538 16.8967 55.3619 16.921C55.3772 16.9692 55.3732 17.0215 55.3508 17.0669C55.3285 17.1123 55.2895 17.1473 55.2419 17.1647Z" fill="#353593"/>
<path d="M55.7875 18.8015L39.682 24.1954C39.6328 24.2116 39.5792 24.2077 39.5328 24.1845C39.4865 24.1613 39.4512 24.1208 39.4346 24.0718C39.4194 24.0226 39.4238 23.9694 39.4468 23.9233C39.4699 23.8772 39.5098 23.8418 39.5583 23.8244L55.6638 18.4305C55.713 18.4143 55.7666 18.4182 55.813 18.4414C55.8593 18.4645 55.8946 18.5051 55.9112 18.5541C55.9197 18.5785 55.9232 18.6043 55.9216 18.63C55.9199 18.6557 55.9131 18.6809 55.9016 18.7039C55.8901 18.727 55.874 18.7475 55.8544 18.7643C55.8348 18.781 55.8121 18.7937 55.7875 18.8015Z" fill="#353593"/>
<path d="M56.3367 20.4382L40.2312 25.8358C40.206 25.8508 40.1779 25.86 40.1487 25.8627C40.1196 25.8654 40.0902 25.8616 40.0627 25.8515C40.0352 25.8414 40.0104 25.8253 39.9899 25.8043C39.9695 25.7834 39.954 25.7581 39.9446 25.7304C39.9351 25.7027 39.932 25.6732 39.9355 25.6441C39.9389 25.6151 39.9488 25.5871 39.9644 25.5624C39.98 25.5376 40.001 25.5167 40.0257 25.5011C40.0505 25.4854 40.0784 25.4755 40.1075 25.4721L56.2131 20.0745C56.2623 20.0583 56.3159 20.0623 56.3622 20.0854C56.4085 20.1086 56.4438 20.1491 56.4604 20.1982C56.4683 20.222 56.4713 20.2472 56.4694 20.2723C56.4674 20.2974 56.4605 20.3218 56.4489 20.3442C56.4374 20.3665 56.4216 20.3863 56.4023 20.4025C56.383 20.4186 56.3607 20.4308 56.3367 20.4382Z" fill="#A3B7B6"/>
<path d="M56.8859 22.0786L40.7804 27.4726C40.756 27.4811 40.7302 27.4846 40.7045 27.483C40.6788 27.4813 40.6536 27.4746 40.6306 27.463C40.6075 27.4515 40.587 27.4355 40.5703 27.4159C40.5535 27.3963 40.5409 27.3735 40.5331 27.3489C40.5179 27.2997 40.5222 27.2465 40.5453 27.2005C40.5683 27.1544 40.6082 27.119 40.6567 27.1016L56.7623 21.7076C56.8115 21.6915 56.8651 21.6954 56.9114 21.7186C56.9577 21.7417 56.993 21.7822 57.0096 21.8313C57.0181 21.8556 57.0216 21.8814 57.02 21.9071C57.0184 21.9329 57.0116 21.958 57 21.9811C56.9885 22.0041 56.9725 22.0247 56.9529 22.0414C56.9333 22.0582 56.9105 22.0708 56.8859 22.0786Z" fill="#A3B7B6"/>
<path d="M57.4351 23.7153L41.3296 29.1129C41.2804 29.1291 41.2268 29.1252 41.1805 29.102C41.1342 29.0788 41.0989 29.0383 41.0823 28.9893C41.0738 28.9649 41.0702 28.9391 41.0719 28.9134C41.0735 28.8877 41.0803 28.8625 41.0918 28.8395C41.1034 28.8164 41.1194 28.7959 41.139 28.7791C41.1586 28.7624 41.1814 28.7497 41.2059 28.7419L57.3115 23.348C57.3356 23.3394 57.3612 23.3357 57.3867 23.3371C57.4123 23.3385 57.4373 23.345 57.4603 23.3561C57.4833 23.3673 57.5039 23.383 57.5208 23.4022C57.5377 23.4214 57.5506 23.4437 57.5588 23.468C57.575 23.5172 57.571 23.5708 57.5479 23.6171C57.5247 23.6634 57.4842 23.6987 57.4351 23.7153Z" fill="#A3B7B6"/>
<path d="M57.9844 25.3557L41.8788 30.7497C41.8341 30.755 41.789 30.7447 41.751 30.7207C41.713 30.6967 41.6843 30.6604 41.6698 30.6178C41.6554 30.5753 41.6559 30.529 41.6715 30.4868C41.687 30.4446 41.7165 30.409 41.7551 30.386L57.8607 24.992C57.8858 24.977 57.914 24.9678 57.9432 24.9651C57.9723 24.9624 58.0017 24.9662 58.0292 24.9763C58.0566 24.9864 58.0815 25.0025 58.1019 25.0235C58.1224 25.0444 58.1379 25.0697 58.1473 25.0974C58.1567 25.1251 58.1598 25.1546 58.1564 25.1837C58.153 25.2127 58.1431 25.2407 58.1275 25.2654C58.1118 25.2902 58.0909 25.3111 58.0661 25.3268C58.0414 25.3424 58.0134 25.3523 57.9844 25.3557Z" fill="#A3B7B6"/>
<path d="M58.5336 26.9924L42.428 32.3901C42.3788 32.4062 42.3252 32.4023 42.2789 32.3791C42.2326 32.356 42.1973 32.3155 42.1807 32.2664C42.1722 32.2421 42.1687 32.2163 42.1703 32.1905C42.1719 32.1648 42.1787 32.1397 42.1903 32.1166C42.2018 32.0935 42.2178 32.073 42.2374 32.0563C42.257 32.0395 42.2798 32.0269 42.3044 32.0191L58.4099 26.6214C58.4591 26.6063 58.5123 26.6106 58.5584 26.6337C58.6045 26.6567 58.6399 26.6966 58.6573 26.7451C58.6734 26.7943 58.6695 26.8479 58.6463 26.8942C58.6232 26.9405 58.5826 26.9759 58.5336 26.9924Z" fill="#A3B7B6"/>
<path d="M63.8039 29.3894C63.8204 29.4381 63.8271 29.4896 63.8236 29.5409C63.82 29.5922 63.8064 29.6423 63.7834 29.6883C63.7604 29.7343 63.7285 29.7753 63.6896 29.8089C63.6507 29.8425 63.6054 29.868 63.5566 29.8841L40.7731 37.5222C40.6747 37.5545 40.5675 37.5467 40.4749 37.5003C40.3822 37.454 40.3116 37.373 40.2785 37.2749L35.4628 22.9006C35.4305 22.8022 35.4383 22.695 35.4846 22.6024C35.531 22.5098 35.612 22.4392 35.7101 22.406L49.1678 24.8029L58.4972 14.7678C58.5457 14.7513 58.597 14.7444 58.6481 14.7477C58.6992 14.751 58.7492 14.7643 58.7952 14.787C58.8411 14.8096 58.8822 14.8411 58.9159 14.8796C58.9497 14.9182 58.9755 14.963 58.9919 15.0115L63.8039 29.3894Z" fill="#C1EAE7"/>
<path d="M44.3412 24.0463L40.2784 37.2676C40.3116 37.3657 40.3822 37.4467 40.4749 37.4931C40.5675 37.5394 40.6747 37.5472 40.7731 37.5149L63.5566 29.8768C63.6054 29.8608 63.6506 29.8352 63.6896 29.8016C63.7285 29.768 63.7604 29.727 63.7834 29.681C63.8064 29.635 63.82 29.5849 63.8235 29.5336C63.8271 29.4823 63.8204 29.4308 63.8039 29.3821L52.5285 21.293L44.3412 24.0463Z" fill="#D9F4F1"/>
<path d="M102.195 3.39421H102.133L102.071 3.37239C100.427 2.82447 98.6331 2.95054 97.0821 3.723C95.5311 4.49545 94.3495 5.85127 93.7963 7.49334C93.4931 8.46217 93.3973 9.48398 93.5151 10.4923C93.6329 11.5006 93.9617 12.4728 94.4801 13.3456C94.7522 13.8468 94.8877 14.4107 94.8731 14.9808C94.8584 15.5509 94.694 16.1071 94.3965 16.5936L100.394 18.5905C100.448 18.0229 100.65 17.4796 100.981 17.0154C101.312 16.5511 101.759 16.1823 102.278 15.9462C103.217 15.5588 104.063 14.978 104.762 14.2416C105.46 13.5052 105.996 12.6298 106.334 11.6725C106.882 10.0258 106.754 8.22886 105.978 6.67656C105.202 5.12425 103.841 3.94364 102.195 3.39421Z" fill="#FFDC80"/>
<path d="M101.936 11.3597C101.839 11.2378 101.712 11.143 101.567 11.0844C101.423 11.0258 101.266 11.0054 101.111 11.0251C100.471 11.1306 100.056 11.9526 99.9796 12.1163C99.8777 12.3345 99.7613 12.6291 99.6377 12.971C99.1393 12.9218 98.6583 12.7615 98.2301 12.5018C98.3319 12.1381 98.4156 11.8471 98.4629 11.6107C98.5029 11.4361 98.6666 10.5195 98.2155 10.0612C98.1038 9.95191 97.9657 9.87335 97.8147 9.83319C97.6636 9.79304 97.5048 9.79266 97.3535 9.8321C97.1623 9.86804 96.9861 9.95975 96.8469 10.0957C96.7078 10.2316 96.6119 10.4056 96.5715 10.5959C96.4115 11.2579 96.8225 12.0508 97.6627 12.6873C97.1535 14.3095 96.3024 16.5682 96.2915 16.6009C96.2799 16.6305 96.2744 16.6621 96.2753 16.6938C96.2762 16.7256 96.2835 16.7568 96.2968 16.7856C96.31 16.8145 96.3289 16.8404 96.3524 16.8618C96.3758 16.8831 96.4033 16.8996 96.4333 16.9101C96.4927 16.93 96.5574 16.9259 96.6138 16.8988C96.6702 16.8716 96.7138 16.8234 96.7352 16.7646C96.7788 16.6519 97.5608 14.5823 98.07 12.9746C98.5003 13.211 98.9698 13.3675 99.4558 13.4366C98.903 15.026 98.2846 17.1502 98.2483 17.2702C98.2319 17.3305 98.2389 17.3947 98.2679 17.45C98.2969 17.5054 98.3458 17.5477 98.4047 17.5684C98.435 17.5773 98.4668 17.5802 98.4982 17.5768C98.5296 17.5734 98.5601 17.5638 98.5878 17.5486C98.6155 17.5333 98.6399 17.5128 98.6597 17.4881C98.6795 17.4635 98.6941 17.4351 98.7029 17.4048C98.7029 17.3757 99.3867 15.0588 99.9541 13.4548C101.02 13.4548 101.813 13.0619 102.082 12.4327C102.166 12.2594 102.197 12.0651 102.171 11.8743C102.145 11.6834 102.064 11.5044 101.936 11.3597ZM97.0516 10.7087C97.0706 10.6102 97.1184 10.5195 97.189 10.4483C97.2596 10.377 97.3498 10.3284 97.4481 10.3086C97.5468 10.2809 97.6512 10.2809 97.75 10.3086C97.8003 10.3224 97.8457 10.3501 97.8809 10.3886C98.0955 10.6105 98.07 11.1742 98.0009 11.5016C97.9646 11.6834 97.9027 11.9162 97.8264 12.1781C96.9461 11.4579 97.0007 10.876 97.0516 10.7087ZM101.671 12.2472C101.605 12.4072 101.307 12.9055 100.165 12.9746C100.26 12.72 100.351 12.4982 100.431 12.3272C100.569 12.0253 100.889 11.5598 101.198 11.5125C101.247 11.499 101.298 11.499 101.347 11.5125C101.443 11.5493 101.528 11.6093 101.594 11.6871C101.661 11.7629 101.702 11.857 101.714 11.957C101.726 12.057 101.707 12.1582 101.66 12.2472H101.671Z" fill="white"/>
<path d="M98.0373 20.9002C97.993 21.0329 97.9229 21.1556 97.8309 21.2612C97.739 21.3668 97.6272 21.4532 97.5018 21.5154C97.3764 21.5776 97.2399 21.6144 97.1002 21.6236C96.9605 21.6329 96.8204 21.6145 96.6879 21.5694L95.4403 21.1548C95.1732 21.0659 94.9523 20.8746 94.8261 20.623C94.6999 20.3713 94.6788 20.0798 94.7674 19.8126C94.8563 19.5455 95.0476 19.3246 95.2992 19.1984C95.5509 19.0722 95.8424 19.0511 96.1096 19.1398L97.3571 19.558C97.6243 19.6469 97.8452 19.8382 97.9714 20.0898C98.0976 20.3415 98.1186 20.633 98.03 20.9002H98.0373Z" fill="#D9F4F1"/>
<path d="M100.725 18.9215C100.664 19.1034 100.533 19.2536 100.361 19.3395C100.19 19.4253 99.9909 19.4398 99.8086 19.3798L94.3528 17.5612C94.1709 17.4998 94.0207 17.369 93.9349 17.1973C93.849 17.0256 93.8345 16.827 93.8945 16.6446C93.9559 16.4628 94.0867 16.3125 94.2584 16.2267C94.4301 16.1409 94.6288 16.1264 94.8111 16.1863L100.267 18.005C100.449 18.0664 100.599 18.1972 100.685 18.3688C100.771 18.5405 100.785 18.7392 100.725 18.9215Z" fill="#D9F4F1"/>
<path d="M99.9323 20.1654C99.8709 20.3473 99.7401 20.4975 99.5684 20.5833C99.3967 20.6692 99.198 20.6837 99.0157 20.6237L94.251 19.0342C94.0691 18.9728 93.9189 18.842 93.833 18.6703C93.7472 18.4987 93.7327 18.3 93.7927 18.1177C93.8541 17.9358 93.9849 17.7856 94.1566 17.6997C94.3283 17.6139 94.5269 17.5994 94.7093 17.6594L99.474 19.2488C99.6559 19.3102 99.8061 19.441 99.8919 19.6127C99.9778 19.7844 99.9923 19.9831 99.9323 20.1654Z" fill="#C1EAE7"/>
<path d="M104.268 61.5459L91.7558 62.1242C100.012 53.8678 102.216 51.9401 102.216 48.0192C102.216 44.0982 86.4564 56.6175 86.4564 56.6175C89.268 52.8494 92.4724 43.8655 92.4724 43.8655C98.8338 23.9663 76.1631 45.3022 76.1631 45.3022C76.0957 40.9564 75.2977 36.653 73.8026 32.5719C66.8301 16.4664 67.863 52.0528 67.863 52.0528L53.4961 52.2638C41.5951 51.1362 39.0345 54.8535 39.0345 54.8535L57.4461 74.0106V114.536H85.4526V87.4574C108.691 66.0197 104.268 61.5459 104.268 61.5459Z" fill="#FF7D87"/>
<path d="M89.2826 114.536V92.9605L55.6638 105.269V114.536H89.2826Z" fill="white"/>
<path d="M92.4724 100.74V127.158C92.4851 127.489 92.4309 127.819 92.313 128.128C92.1951 128.438 92.0159 128.721 91.7861 128.96C91.5564 129.198 91.2808 129.388 90.9759 129.518C90.6711 129.648 90.3431 129.715 90.0118 129.715C89.6805 129.715 89.3526 129.648 89.0477 129.518C88.7428 129.388 88.4672 129.198 88.2375 128.96C88.0078 128.721 87.8286 128.438 87.7106 128.128C87.5927 127.819 87.5385 127.489 87.5512 127.158L87.5949 120.516C87.5949 119.937 87.365 119.382 86.9557 118.973C86.5464 118.564 85.9913 118.334 85.4126 118.334C84.8338 118.334 84.2787 118.564 83.8694 118.973C83.4601 119.382 83.2302 119.937 83.2302 120.516V131.886C83.2102 132.684 82.8808 133.443 82.3116 134.003C81.7423 134.562 80.9779 134.879 80.1796 134.886C79.3813 134.892 78.6117 134.588 78.0333 134.038C77.4549 133.488 77.1129 132.734 77.0797 131.937C77.0778 131.92 77.0778 131.903 77.0797 131.886C77.0797 131.886 77.1779 124.717 77.0433 122.331C76.9314 120.951 76.3227 119.659 75.3302 118.694C74.7811 118.128 74.1241 117.679 73.3981 117.372C72.6721 117.065 71.8919 116.908 71.1038 116.908C69.5021 116.925 67.9728 117.578 66.8522 118.722C65.7316 119.867 65.1114 121.409 65.1278 123.011V124.513C65.1278 125.179 64.8478 127.059 62.3599 127.059C60.745 127.059 59.4756 125.968 59.5447 124.401C59.5811 123.604 59.5447 121.211 59.5447 121.211C59.5477 120.766 59.3797 120.338 59.0755 120.014C58.9318 119.858 58.7574 119.734 58.5634 119.649C58.3694 119.564 58.1599 119.52 57.948 119.519C57.5129 119.534 57.1011 119.72 56.8026 120.036C56.5041 120.353 56.3431 120.775 56.3549 121.211V122.324V122.345C56.3568 122.377 56.3568 122.409 56.3549 122.44V128.187C56.3003 128.529 56.1257 128.84 55.8624 129.064C55.5991 129.289 55.2643 129.412 54.9182 129.412C54.5721 129.412 54.2373 129.289 53.974 129.064C53.7107 128.84 53.5361 128.529 53.4815 128.187V122.429C53.4815 122.393 53.4815 122.353 53.4815 122.313V113.049L92.4724 100.74Z" fill="#746BFF"/>
<path d="M56.3694 122.429V126.306C56.3694 126.263 56.3694 126.219 56.3694 126.176V122.338C56.3712 122.369 56.3712 122.399 56.3694 122.429Z" fill="#E45B49"/>
<path d="M77.0906 123.011V131.922C77.0887 131.905 77.0887 131.888 77.0906 131.871V122.855C77.0906 122.906 77.0906 122.96 77.0906 123.011Z" fill="#E45B49"/>
<path d="M93.218 65.8233C93.218 70.3928 91.8627 74.8597 89.3237 78.6588C86.7846 82.458 83.1758 85.4187 78.9538 87.1666C74.7318 88.9144 70.0863 89.3708 65.6048 88.478C61.1234 87.5852 57.0074 85.3834 53.7775 82.151C50.5477 78.9186 48.3491 74.8009 47.4598 70.3187C46.5706 65.8366 47.0306 61.1914 48.7818 56.9707C50.5329 52.7501 53.4965 49.1436 57.2977 46.6076C61.0988 44.0715 65.5668 42.7198 70.1363 42.7234C76.2593 42.7292 82.1296 45.1653 86.4575 49.4967C90.7855 53.828 93.217 59.7003 93.218 65.8233Z" fill="white"/>
<path d="M70.6746 90.9455C65.6834 90.9455 60.8044 89.4654 56.6544 86.6924C52.5045 83.9194 49.2701 79.978 47.3602 75.3667C45.4503 70.7554 44.9508 65.6813 45.9248 60.7861C46.8988 55.8909 49.3025 51.3945 52.8321 47.8655C56.3616 44.3364 60.8584 41.9333 65.7537 40.96C70.6491 39.9868 75.7231 40.487 80.3341 42.3975C84.9451 44.3081 88.886 47.5431 91.6585 51.6934C94.4309 55.8438 95.9103 60.723 95.9095 65.7142C95.9018 72.4042 93.2406 78.818 88.5097 83.5482C83.7788 88.2784 77.3646 90.9388 70.6746 90.9455ZM70.6746 44.0728C66.3943 44.0728 62.2102 45.342 58.6513 47.72C55.0924 50.098 52.3185 53.4779 50.6806 57.4324C49.0426 61.3868 48.614 65.7382 49.449 69.9362C50.2841 74.1342 52.3452 77.9904 55.3718 81.017C58.3984 84.0436 62.2546 86.1047 66.4526 86.9397C70.6506 87.7748 75.002 87.3462 78.9564 85.7082C82.9108 84.0702 86.2908 81.2964 88.6688 77.7375C91.0467 74.1786 92.316 69.9944 92.316 65.7142C92.3093 59.9766 90.027 54.4759 85.9699 50.4189C81.9128 46.3618 76.4122 44.0795 70.6746 44.0728Z" fill="#E2306C"/>
<path d="M70.6164 66.2124C70.4842 66.2124 70.3575 66.1599 70.264 66.0665C70.1706 65.973 70.1181 65.8463 70.1181 65.7142V55.4754C70.1181 55.3433 70.1706 55.2165 70.264 55.1231C70.3575 55.0296 70.4842 54.9771 70.6164 54.9771C70.7485 54.9771 70.8753 55.0296 70.9687 55.1231C71.0622 55.2165 71.1147 55.3433 71.1147 55.4754V65.7142C71.1147 65.8463 71.0622 65.973 70.9687 66.0665C70.8753 66.1599 70.7485 66.2124 70.6164 66.2124Z" fill="#5951D8"/>
<path d="M69.4088 65.4159C69.5223 65.4295 69.6277 65.4816 69.7073 65.5635C69.7869 65.6455 69.8359 65.7523 69.8461 65.8661C69.8564 65.9799 69.8272 66.0938 69.7635 66.1886C69.6997 66.2835 69.6054 66.3535 69.4961 66.3871L62.4981 68.5512C62.3718 68.5903 62.2351 68.5775 62.1181 68.5158C62.0011 68.4541 61.9134 68.3484 61.8744 68.222C61.8353 68.0957 61.848 67.959 61.9098 67.842C61.9715 67.725 62.0772 67.6373 62.2035 67.5982L69.2015 65.4341C69.2683 65.4121 69.3393 65.4059 69.4088 65.4159Z" fill="#5951D8"/>
<path d="M62.2726 76.1202C62.2498 76.1189 62.228 76.1099 62.2108 76.0947C62.2005 76.0869 62.1918 76.0771 62.1853 76.0659C62.1788 76.0547 62.1746 76.0423 62.1729 76.0294C62.1712 76.0166 62.1721 76.0035 62.1755 75.991C62.1789 75.9785 62.1847 75.9668 62.1926 75.9565L73.297 62.1351C73.3062 62.1256 73.3172 62.1179 73.3294 62.1127C73.3416 62.1075 73.3547 62.1049 73.3679 62.1049C73.3812 62.1049 73.3943 62.1075 73.4065 62.1127C73.4187 62.1179 73.4297 62.1256 73.4389 62.1351C73.4571 62.1535 73.4673 62.1784 73.4673 62.2042C73.4673 62.2301 73.4571 62.255 73.4389 62.2734L62.3345 76.0947C62.3176 76.1105 62.2957 76.1195 62.2726 76.1202Z" fill="#E2306C"/>
<path d="M73.1042 65.7141C73.1042 66.1947 72.9617 66.6644 72.6948 67.064C72.4278 67.4635 72.0483 67.775 71.6044 67.9588C71.1604 68.1427 70.6719 68.1909 70.2006 68.0971C69.7293 68.0034 69.2964 67.772 68.9566 67.4322C68.6168 67.0924 68.3854 66.6594 68.2916 66.1881C68.1979 65.7168 68.246 65.2283 68.4299 64.7844C68.6138 64.3404 68.9252 63.9609 69.3247 63.694C69.7243 63.427 70.194 63.2845 70.6746 63.2845C71.319 63.2845 71.937 63.5405 72.3926 63.9961C72.8483 64.4518 73.1042 65.0698 73.1042 65.7141Z" fill="#5951D8"/>
<path d="M72.2131 65.7142C72.2131 66.0185 72.1229 66.316 71.9538 66.569C71.7848 66.822 71.5445 67.0192 71.2634 67.1356C70.9822 67.2521 70.6729 67.2825 70.3744 67.2232C70.076 67.1638 69.8019 67.0173 69.5867 66.8021C69.3715 66.5869 69.225 66.3128 69.1656 66.0144C69.1063 65.7159 69.1367 65.4066 69.2532 65.1254C69.3696 64.8443 69.5668 64.604 69.8198 64.435C70.0728 64.2659 70.3703 64.1757 70.6746 64.1757C71.0826 64.1757 71.474 64.3378 71.7625 64.6263C72.051 64.9148 72.2131 65.3062 72.2131 65.7142Z" fill="white"/>
<path d="M70.3218 51.5509V53.3949C70.3208 53.4406 70.302 53.4841 70.2694 53.516C70.2368 53.548 70.1929 53.5659 70.1472 53.5659C70.1246 53.5664 70.1022 53.5623 70.0812 53.5539C70.0602 53.5455 70.0412 53.5329 70.0252 53.5169C70.0093 53.5009 69.9967 53.4819 69.9883 53.4609C69.9798 53.44 69.9758 53.4175 69.9763 53.3949V51.8673L69.849 51.94C69.8228 51.9561 69.7923 51.9638 69.7617 51.9619C69.7322 51.962 69.7032 51.9543 69.6777 51.9396C69.6521 51.9249 69.6309 51.9037 69.6162 51.8782C69.6038 51.8591 69.5955 51.8376 69.5917 51.8151C69.5879 51.7926 69.5888 51.7696 69.5943 51.7474C69.5997 51.7253 69.6096 51.7045 69.6234 51.6863C69.6372 51.6682 69.6545 51.653 69.6744 51.6418L70.0563 51.4126H70.1545C70.1616 51.4106 70.1692 51.4106 70.1763 51.4126H70.1945C70.1945 51.4126 70.1945 51.4127 70.1945 51.4308C70.1925 51.438 70.1925 51.4455 70.1945 51.4527L70.3218 51.5509Z" fill="#5951D8"/>
<path d="M72.1331 53.3949C72.1331 53.4403 72.1151 53.4838 72.083 53.5158C72.051 53.5479 72.0075 53.5659 71.9622 53.5659H70.8637C70.839 53.5665 70.8144 53.5616 70.7917 53.5515C70.7691 53.5414 70.7489 53.5265 70.7328 53.5077C70.7166 53.4918 70.7038 53.4728 70.695 53.4519C70.6863 53.431 70.6817 53.4085 70.6817 53.3858C70.6817 53.3632 70.6863 53.3407 70.695 53.3198C70.7038 53.2989 70.7166 53.2799 70.7328 53.264L71.6566 52.4274C71.6989 52.3903 71.7325 52.3443 71.7552 52.2928C71.7778 52.2413 71.7888 52.1854 71.7876 52.1292C71.7895 52.0286 71.7531 51.9311 71.6857 51.8564C71.6479 51.814 71.6013 51.7804 71.5492 51.7578C71.497 51.7352 71.4406 51.7242 71.3838 51.7255C71.2846 51.7248 71.1887 51.7611 71.1147 51.8273L71.0165 51.9146C70.9827 51.945 70.9383 51.9607 70.8929 51.9583C70.8476 51.9559 70.805 51.9356 70.7746 51.9019C70.7442 51.8681 70.7285 51.8236 70.7309 51.7783C70.7333 51.7329 70.7536 51.6904 70.7873 51.66L70.8819 51.5727C71.0191 51.4472 71.198 51.3772 71.3838 51.3763C71.4892 51.3769 71.5933 51.3991 71.6896 51.4417C71.786 51.4842 71.8726 51.5462 71.944 51.6236C72.0693 51.7621 72.1381 51.9425 72.1368 52.1292C72.1363 52.234 72.1141 52.3376 72.0716 52.4334C72.029 52.5292 71.967 52.6151 71.8894 52.6857L71.2966 53.2203H71.9549C71.9783 53.2193 72.0016 53.2231 72.0234 53.2315C72.0452 53.2399 72.0651 53.2527 72.0818 53.269C72.0985 53.2854 72.1117 53.305 72.1205 53.3267C72.1294 53.3483 72.1336 53.3716 72.1331 53.3949Z" fill="#5951D8"/>
<path d="M71.4384 79.2882C71.439 79.4826 71.3647 79.6698 71.231 79.8109C71.0972 79.952 70.9143 80.0363 70.7201 80.0461C70.5259 80.0559 70.3354 79.9906 70.1881 79.8637C70.0408 79.7368 69.948 79.5581 69.929 79.3646C69.929 79.3027 69.929 79.2445 69.929 79.1863C69.9273 78.9682 69.9643 78.7515 70.0381 78.5462C70.1133 78.33 70.2545 78.143 70.4418 78.0115C70.5808 77.918 70.7436 77.8663 70.911 77.8624C70.9339 77.8614 70.9568 77.865 70.9784 77.8729C71 77.8808 71.0197 77.8928 71.0366 77.9083C71.0535 77.9239 71.0672 77.9426 71.0768 77.9634C71.0865 77.9843 71.0919 78.0068 71.0929 78.0297C71.093 78.0761 71.0753 78.1208 71.0435 78.1546C71.0117 78.1884 70.9682 78.2088 70.9219 78.2116C70.8185 78.2117 70.7174 78.2421 70.6309 78.2989C70.5475 78.3542 70.4788 78.4291 70.4309 78.5171C70.4309 78.5426 70.4054 78.5717 70.3909 78.5971C70.5061 78.5479 70.6318 78.528 70.7566 78.5391C70.8814 78.5503 71.0015 78.5921 71.1063 78.6608C71.211 78.7296 71.2972 78.8232 71.357 78.9333C71.4169 79.0433 71.4486 79.1665 71.4493 79.2918L71.4384 79.2882ZM71.0747 79.2882C71.0747 79.1792 71.0314 79.0746 70.9543 78.9976C70.8772 78.9205 70.7727 78.8772 70.6637 78.8772C70.5547 78.8772 70.4501 78.9205 70.3731 78.9976C70.296 79.0746 70.2527 79.1792 70.2527 79.2882C70.2527 79.3972 70.296 79.5017 70.3731 79.5788C70.4501 79.6559 70.5547 79.6992 70.6637 79.6992C70.7727 79.6992 70.8772 79.6559 70.9543 79.5788C71.0314 79.5017 71.0747 79.3972 71.0747 79.2882Z" fill="#5951D8"/>
<path d="M56.3149 65.154C56.3206 64.9633 56.3977 64.7817 56.531 64.6453C56.6643 64.5088 56.8441 64.4275 57.0346 64.4174C57.2251 64.4073 57.4125 64.4692 57.5594 64.5909C57.7064 64.7125 57.8023 64.885 57.828 65.074C57.828 65.1322 57.828 65.194 57.828 65.2522C57.8296 65.4704 57.7927 65.6871 57.7189 65.8924C57.6437 66.1085 57.5025 66.2956 57.3151 66.427C57.1754 66.5189 57.0131 66.5705 56.8459 66.5762C56.7999 66.5772 56.7552 66.5603 56.7213 66.5291C56.6874 66.498 56.6669 66.4548 56.6641 66.4089C56.6648 66.3633 56.6822 66.3195 56.713 66.286C56.7439 66.2525 56.786 66.2315 56.8314 66.227C56.9358 66.2257 57.0378 66.1955 57.126 66.1397C57.2093 66.0852 57.2769 66.01 57.3224 65.9215C57.3393 65.8967 57.3528 65.8698 57.3624 65.8415C57.2685 65.8829 57.1668 65.9039 57.0642 65.9033C56.8663 65.9005 56.6774 65.8206 56.5375 65.6807C56.3976 65.5408 56.3177 65.3519 56.3149 65.154ZM56.6604 65.154C56.6614 65.2637 56.7054 65.3686 56.7829 65.4462C56.8605 65.5237 56.9654 65.5677 57.0751 65.5687C57.1291 65.5682 57.1824 65.5571 57.2321 65.536C57.2818 65.5149 57.3268 65.4842 57.3646 65.4457C57.4025 65.4072 57.4324 65.3616 57.4526 65.3116C57.4728 65.2615 57.4829 65.208 57.4825 65.154C57.4834 65.1001 57.4736 65.0465 57.4535 64.9964C57.4334 64.9464 57.4035 64.9008 57.3655 64.8625C57.3276 64.8242 57.2823 64.7939 57.2324 64.7734C57.1825 64.7528 57.129 64.7425 57.0751 64.743C57.0205 64.742 56.9663 64.752 56.9156 64.7722C56.8649 64.7924 56.8187 64.8225 56.7798 64.8608C56.7408 64.8991 56.7099 64.9447 56.6888 64.995C56.6677 65.0454 56.6568 65.0994 56.6568 65.154H56.6604Z" fill="#5951D8"/>
<path d="M84.6197 65.2559C84.6914 65.3275 84.7482 65.4126 84.7871 65.5062C84.8259 65.5998 84.8458 65.7001 84.8458 65.8015C84.8458 65.9028 84.8259 66.0032 84.7871 66.0968C84.7482 66.1904 84.6914 66.2754 84.6197 66.3471C84.4742 66.4932 84.2766 66.5756 84.0704 66.5762C83.8646 66.574 83.6676 66.4918 83.5212 66.3471C83.4898 66.3128 83.4723 66.268 83.4723 66.2216C83.4723 66.1751 83.4898 66.1303 83.5212 66.0961C83.5546 66.063 83.5997 66.0444 83.6467 66.0444C83.6937 66.0444 83.7388 66.063 83.7722 66.0961C83.811 66.1358 83.8574 66.1672 83.9087 66.1884C83.9599 66.2097 84.015 66.2203 84.0704 66.2197C84.1823 66.2197 84.2897 66.1753 84.3688 66.0962C84.4479 66.017 84.4924 65.9097 84.4924 65.7978C84.4924 65.6859 84.4479 65.5786 84.3688 65.4995C84.2897 65.4204 84.1823 65.3759 84.0704 65.3759C84.0491 65.3758 84.0281 65.3712 84.0087 65.3624C83.9893 65.3536 83.9719 65.3409 83.9577 65.325C83.9414 65.3088 83.9285 65.2895 83.9197 65.2683C83.9109 65.2471 83.9063 65.2243 83.9063 65.2013C83.9063 65.1784 83.9109 65.1556 83.9197 65.1344C83.9285 65.1132 83.9414 65.0939 83.9577 65.0777L84.2741 64.7503H83.7686C83.7203 64.7503 83.6741 64.7312 83.64 64.6971C83.6058 64.6629 83.5867 64.6167 83.5867 64.5685C83.5867 64.5202 83.6058 64.474 83.64 64.4399C83.6741 64.4058 83.7203 64.3866 83.7686 64.3866H84.6851C84.7318 64.3866 84.7766 64.4049 84.8099 64.4375C84.8432 64.4701 84.8624 64.5145 84.8634 64.5612C84.8626 64.5904 84.8552 64.619 84.8415 64.6448C84.8327 64.662 84.8217 64.6779 84.8088 64.6921L84.416 65.0959C84.4933 65.136 84.5623 65.1903 84.6197 65.2559Z" fill="#5951D8"/>
<path d="M54.4674 55.884L54.3802 56.0225C54.2625 56.2095 54.3187 56.4565 54.5057 56.5742L55.4045 57.14C55.5915 57.2577 55.8385 57.2016 55.9562 57.0146L56.0434 56.876C56.1611 56.689 56.1049 56.442 55.9179 56.3243L55.0191 55.7585C54.8321 55.6408 54.5851 55.697 54.4674 55.884Z" fill="#5951D8"/>
<path d="M60.6161 49.3548L60.477 49.4399C60.2891 49.5548 60.23 49.8002 60.3449 49.988L60.8972 50.8908C61.0121 51.0786 61.2575 51.1377 61.4453 51.0228L61.5845 50.9377C61.7723 50.8228 61.8314 50.5774 61.7165 50.3896L61.1642 49.4868C61.0493 49.299 60.8039 49.2399 60.6161 49.3548Z" fill="#5951D8"/>
<path d="M86.3971 55.7585L85.4982 56.3241C85.3111 56.4418 85.2549 56.6888 85.3726 56.8759L85.4598 57.0144C85.5775 57.2014 85.8245 57.2576 86.0115 57.1399L86.9104 56.5743C87.0974 56.4566 87.1536 56.2096 87.036 56.0226L86.9488 55.8841C86.8311 55.697 86.5841 55.6408 86.3971 55.7585Z" fill="#5951D8"/>
<path d="M79.3054 50.4789L79.8598 49.5731C79.9152 49.4826 80.0043 49.4178 80.1074 49.393C80.2106 49.3682 80.3194 49.3853 80.4099 49.4407L80.5526 49.5281C80.6431 49.5835 80.7079 49.6725 80.7327 49.7757C80.7576 49.8789 80.7404 49.9877 80.685 50.0782L80.1286 50.9871C80.0738 51.0768 79.9855 51.141 79.8833 51.1656C79.781 51.1902 79.6732 51.1732 79.5835 51.1183L79.4408 51.031C79.396 51.0035 79.357 50.9675 79.3261 50.9251C79.2952 50.8826 79.273 50.8344 79.2607 50.7833C79.2484 50.7322 79.2463 50.6792 79.2545 50.6273C79.2627 50.5754 79.281 50.5257 79.3085 50.4808L79.3054 50.4789Z" fill="#5951D8"/>
<path d="M54.5015 75.109L55.4034 74.5413C55.4932 74.4847 55.6018 74.4662 55.7052 74.4897C55.8087 74.5132 55.8986 74.5769 55.9551 74.6667L56.0442 74.8083C56.1008 74.8981 56.1193 75.0067 56.0958 75.1101C56.0723 75.2136 56.0086 75.3035 55.9188 75.36L55.02 75.9258C54.9302 75.9824 54.8216 76.0009 54.7181 75.9774C54.6147 75.9538 54.5248 75.8902 54.4682 75.8004L54.3791 75.6588C54.3508 75.6147 54.3315 75.5655 54.3223 75.5139C54.3132 75.4624 54.3143 75.4095 54.3257 75.3584C54.3371 75.3072 54.3585 75.2589 54.3886 75.2161C54.4188 75.1733 54.4572 75.1369 54.5015 75.109Z" fill="#5951D8"/>
<path d="M61.8398 80.5722C61.7491 80.5173 61.6403 80.5006 61.5373 80.5258C61.4344 80.5511 61.3456 80.6162 61.2906 80.7068L60.7377 81.6124C60.7099 81.657 60.6912 81.7066 60.6827 81.7585C60.6742 81.8103 60.6761 81.8633 60.6883 81.9144C60.7005 81.9655 60.7227 82.0137 60.7537 82.0561C60.7846 82.0986 60.8237 82.1345 60.8687 82.1617L61.0105 82.249C61.1015 82.3029 61.2099 82.319 61.3126 82.2939C61.4153 82.2687 61.504 82.2043 61.5597 82.1144L62.1126 81.2087C62.1404 81.1642 62.1591 81.1145 62.1676 81.0627C62.1761 81.0108 62.1742 80.9578 62.162 80.9067C62.1498 80.8556 62.1276 80.8074 62.0966 80.765C62.0657 80.7226 62.0266 80.6867 61.9817 80.6595L61.8398 80.5722Z" fill="#5951D8"/>
<path d="M85.4599 74.6617C85.5161 74.5723 85.6053 74.5087 85.7082 74.4849C85.8111 74.461 85.9193 74.4788 86.0091 74.5344L86.9111 75.1018C86.9999 75.1586 87.0627 75.2481 87.0859 75.351C87.109 75.4538 87.0907 75.5617 87.0348 75.651L86.9475 75.7929C86.8906 75.8825 86.8007 75.9462 86.6972 75.97C86.5937 75.9938 86.485 75.9759 86.3946 75.9202L85.4962 75.3528C85.4518 75.3246 85.4133 75.288 85.383 75.245C85.3527 75.2019 85.3312 75.1534 85.3197 75.102C85.3082 75.0506 85.307 74.9975 85.316 74.9457C85.3251 74.8938 85.3443 74.8443 85.3726 74.7999L85.4599 74.6617Z" fill="#5951D8"/>
<path d="M79.0622 80.4533L78.923 80.5384C78.7352 80.6533 78.6761 80.8987 78.791 81.0865L79.3433 81.9893C79.4582 82.1771 79.7036 82.2362 79.8914 82.1213L80.0305 82.0362C80.2183 81.9213 80.2775 81.6759 80.1626 81.4881L79.6103 80.5853C79.4954 80.3975 79.25 80.3384 79.0622 80.4533Z" fill="#5951D8"/>
<path d="M70.7146 45.7678H70.5182C70.2972 45.7678 70.1181 45.9469 70.1181 46.1679V49.2086C70.1181 49.4295 70.2972 49.6087 70.5182 49.6087H70.7146C70.9356 49.6087 71.1147 49.4295 71.1147 49.2086V46.1679C71.1147 45.9469 70.9356 45.7678 70.7146 45.7678Z" fill="#5951D8"/>
<path d="M70.7146 82.0453H70.5182C70.2972 82.0453 70.1181 82.2244 70.1181 82.4454V85.4861C70.1181 85.707 70.2972 85.8862 70.5182 85.8862H70.7146C70.9356 85.8862 71.1147 85.707 71.1147 85.4861V82.4454C71.1147 82.2244 70.9356 82.0453 70.7146 82.0453Z" fill="#5951D8"/>
<path d="M87.2312 65.325H90.2755C90.3816 65.325 90.4834 65.3672 90.5584 65.4422C90.6334 65.5172 90.6756 65.619 90.6756 65.7251V65.9251C90.6756 66.0313 90.6334 66.133 90.5584 66.2081C90.4834 66.2831 90.3816 66.3252 90.2755 66.3252H87.2312C87.126 66.3252 87.0252 66.2835 86.9508 66.2091C86.8765 66.1348 86.8347 66.0339 86.8347 65.9288V65.7287C86.8337 65.6761 86.8433 65.6237 86.8628 65.5748C86.8823 65.5258 86.9113 65.4813 86.9482 65.4437C86.9851 65.4061 87.0292 65.3762 87.0777 65.3559C87.1263 65.3355 87.1785 65.325 87.2312 65.325Z" fill="#5951D8"/>
<path d="M50.9573 65.325H54.0016C54.1077 65.325 54.2095 65.3672 54.2845 65.4422C54.3596 65.5172 54.4017 65.619 54.4017 65.7251V65.9251C54.4017 66.0313 54.3596 66.133 54.2845 66.2081C54.2095 66.2831 54.1077 66.3252 54.0016 66.3252H50.9573C50.8522 66.3252 50.7513 66.2835 50.677 66.2091C50.6026 66.1348 50.5608 66.0339 50.5608 65.9288V65.7287C50.5608 65.6236 50.6026 65.5228 50.677 65.4484C50.7513 65.3741 50.8522 65.3323 50.9573 65.3323V65.325Z" fill="#5951D8"/>
<path d="M101.838 64.7939L91.945 67.7037C91.1362 67.9707 90.2558 67.9164 89.486 67.552C88.7162 67.1876 88.116 66.5411 87.8098 65.7464C87.5036 64.9516 87.5148 64.0696 87.8411 63.2829C88.1674 62.4962 88.7838 61.8651 89.5626 61.5204L98.8702 57.0685C99.3627 56.8212 99.8995 56.6743 100.449 56.6365C100.999 56.5987 101.551 56.6706 102.073 56.8482C102.594 57.0257 103.075 57.3053 103.488 57.6706C103.901 58.036 104.236 58.4797 104.476 58.9761C104.715 59.4725 104.853 60.0115 104.882 60.5618C104.911 61.1122 104.83 61.6627 104.645 62.1815C104.459 62.7003 104.171 63.1769 103.8 63.5836C103.428 63.9902 102.979 64.3188 102.478 64.5502C102.271 64.6475 102.057 64.7289 101.838 64.7939Z" fill="#FF919B"/>
<path d="M84.5433 52.231L84.5687 52.2019L84.656 52.111C84.7397 52.0273 84.8597 51.9073 85.0197 51.7473C85.1798 51.5872 85.3398 51.4381 85.5399 51.2417C85.7399 51.0453 85.9654 50.8343 86.2127 50.6052C86.4601 50.376 86.7329 50.1287 87.0275 49.8777C87.3221 49.6268 87.6312 49.3576 87.9586 49.0848C88.2859 48.812 88.6315 48.5429 88.9843 48.2628C89.3371 47.9828 89.7117 47.7136 90.0755 47.4444L90.6429 47.0444C90.832 46.9134 91.0248 46.7788 91.2212 46.6588C91.6104 46.4078 91.985 46.1532 92.3778 45.9314C92.7706 45.7095 93.1343 45.4767 93.5163 45.2876L94.0618 45.0039C94.2364 44.9093 94.4037 44.822 94.5819 44.7456L95.524 44.3201C95.8113 44.1964 96.0768 44.1055 96.2914 44.0255L96.968 43.7745C98.0677 43.3684 99.2836 43.4158 100.348 43.9062C101.413 44.3966 102.24 45.29 102.646 46.3897C103.052 47.4894 103.004 48.7053 102.514 49.7701C102.024 50.8349 101.13 51.6612 100.03 52.0673C99.8731 52.1253 99.7129 52.1751 99.5504 52.2165L99.3722 52.2565L98.9757 52.3547C98.8448 52.3874 98.692 52.4129 98.5101 52.4674L97.8882 52.6638C97.7648 52.6985 97.6434 52.7397 97.5244 52.7875L97.1353 52.9366C96.8661 53.0276 96.5824 53.1658 96.2842 53.3004C95.9859 53.4349 95.684 53.5877 95.3712 53.7332C95.2148 53.8059 95.0584 53.8896 94.8984 53.9769L94.4256 54.2315C94.1091 54.4061 93.7927 54.5952 93.4835 54.7734C93.1744 54.9517 92.8688 55.1371 92.5815 55.3408C92.2941 55.5445 92.0068 55.7046 91.7449 55.8973C91.4831 56.0901 91.2357 56.261 91.0175 56.4174C90.7993 56.5738 90.5883 56.7339 90.4101 56.8685C90.2318 57.003 90.0754 57.1231 89.9554 57.2322L89.6935 57.4395L89.6535 57.465C89.6535 57.465 89.6281 57.4868 89.6208 57.4977C89.6097 57.5044 89.5998 57.513 89.5917 57.5232C88.8899 58.1926 87.9509 58.5559 86.9813 58.533C86.0117 58.5102 85.0909 58.1031 84.4214 57.4013C83.7519 56.6995 83.3887 55.7605 83.4115 54.7909C83.4344 53.8213 83.8415 52.9005 84.5433 52.231Z" fill="#FF919B"/>
<path d="M91.2066 41.4649H91.1775L90.9266 41.5959C90.7011 41.7232 90.3519 41.9232 89.9445 42.1851C89.5371 42.447 89.057 42.7707 88.5733 43.1344C88.326 43.3163 88.0823 43.4981 87.8458 43.7091C87.6094 43.92 87.3585 44.1164 87.1184 44.3274C86.8783 44.5384 86.6601 44.7493 86.4492 44.9639C86.3437 45.0694 86.2418 45.1785 86.1436 45.284C86.0454 45.3895 85.9472 45.4949 85.8563 45.6004C85.6708 45.8077 85.4926 46.0114 85.3544 46.2042C85.2743 46.3024 85.2052 46.3933 85.1398 46.4879C85.0743 46.5825 85.0088 46.6661 84.9543 46.7498C84.8342 46.9207 84.7397 47.0771 84.6524 47.2153C84.5651 47.3536 84.5069 47.47 84.4487 47.5791C84.3469 47.7755 84.2923 47.8882 84.2923 47.8882L84.1213 48.2228C83.6498 49.1543 82.8396 49.8698 81.857 50.2225C80.8744 50.5752 79.794 50.5382 78.8378 50.1193C77.8816 49.7003 77.1221 48.9311 76.7153 47.9696C76.3086 47.0081 76.2854 45.9274 76.6505 44.9494C76.6505 44.9494 76.7414 44.6984 76.9051 44.2583C76.9924 44.0473 77.0943 43.7891 77.2252 43.4981C77.3561 43.2071 77.5089 42.8871 77.6871 42.5524C77.7744 42.3779 77.8726 42.2069 77.9745 42.0287C78.0763 41.8505 78.1782 41.665 78.2909 41.4867C78.5128 41.123 78.7565 40.7593 79.0183 40.3701C79.1493 40.1846 79.2802 40.0064 79.4221 39.81C79.5639 39.6136 79.7021 39.4463 79.8513 39.2499C80.1422 38.8861 80.4478 38.5224 80.7606 38.1587C81.0734 37.795 81.3898 37.4676 81.7099 37.1403C82.03 36.8129 82.3464 36.5001 82.6628 36.2055C83.2921 35.6163 83.9031 35.1144 84.4414 34.667C84.9797 34.2196 85.4126 33.9213 85.7763 33.6813L86.1982 33.3903L86.3873 33.2667L86.4201 33.2448C87.4812 32.557 88.772 32.3189 90.0087 32.5829C91.2454 32.8469 92.3265 33.5913 93.0143 34.6524C93.7021 35.7135 93.9402 37.0044 93.6762 38.2411C93.4123 39.4777 92.6678 40.5589 91.6067 41.2467C91.4777 41.3271 91.3441 41.4 91.2066 41.4649Z" fill="#FF919B"/>
<path d="M63.953 47.0989C63.953 47.0989 63.913 46.848 63.8366 46.4042C63.7602 45.9605 63.673 45.3713 63.5747 44.6438C63.4765 43.9164 63.3711 43.0653 63.2765 42.1414C63.2292 41.6831 63.1856 41.203 63.1492 40.712C63.1128 40.221 63.0764 39.7191 63.0546 39.2098C63.0328 38.7006 63.0146 38.1878 63.0073 37.6713V36.9002C63.0073 36.6383 63.0073 36.3801 63.0255 36.1255C63.0437 35.8709 63.051 35.6126 63.0692 35.358C63.0874 35.1034 63.1055 34.8525 63.1383 34.5942C63.171 34.336 63.1928 34.0959 63.2365 33.834C63.2801 33.5722 63.3129 33.343 63.3711 33.0848L63.4474 32.7211C63.4729 32.6047 63.5129 32.4701 63.5457 32.3573C63.5784 32.2446 63.6148 32.1137 63.6475 31.9936C63.6802 31.8736 63.7311 31.7427 63.7712 31.6299L63.8985 31.2662L63.9312 31.1825L63.9712 31.088C64.0003 31.0298 64.0258 30.9679 64.0512 30.9097L64.2113 30.5751L64.2876 30.4223L64.3822 30.255C64.5131 30.0368 64.6332 29.844 64.7459 29.684C64.7735 29.6376 64.8051 29.5938 64.8405 29.5531L64.9351 29.4294C65.0005 29.353 65.0587 29.2839 65.1096 29.2184C65.3206 28.9711 65.4406 28.8547 65.4406 28.8547C65.8405 28.4408 66.3188 28.1106 66.8476 27.8835C67.3765 27.6563 67.9452 27.5367 68.5207 27.5317C69.0962 27.5266 69.667 27.6362 70.1997 27.854C70.7325 28.0719 71.2165 28.3936 71.6236 28.8004C72.0307 29.2073 72.3527 29.6911 72.5708 30.2237C72.789 30.7563 72.8989 31.327 72.8942 31.9025C72.8895 32.4781 72.7702 33.0469 72.5434 33.5758C72.3165 34.1048 71.9867 34.5833 71.573 34.9834C71.6146 34.9462 71.6535 34.9061 71.6894 34.8634C71.7093 34.8405 71.7275 34.8162 71.7439 34.7906C71.7549 34.777 71.7646 34.7624 71.773 34.747L71.7985 34.7106C71.8272 34.6761 71.8517 34.6383 71.8712 34.5979V34.5615C71.8726 34.5724 71.8726 34.5834 71.8712 34.5942C71.861 34.6071 71.8536 34.622 71.8494 34.6379C71.8426 34.6662 71.8341 34.6942 71.8239 34.7215C71.8108 34.7535 71.7999 34.7863 71.7912 34.8197L71.7585 34.9507C71.733 35.0307 71.7148 35.1507 71.6894 35.2635C71.6639 35.3762 71.6493 35.5181 71.6239 35.6527C71.5984 35.7872 71.5875 35.9545 71.5693 36.1073C71.5511 36.2601 71.5402 36.4419 71.522 36.6129L71.4893 37.1621C71.4893 37.3512 71.4893 37.5476 71.4711 37.744C71.4711 38.1405 71.4711 38.5479 71.4711 38.9662C71.4711 39.3844 71.4893 39.8063 71.5075 40.2246C71.5257 40.6429 71.5511 41.0612 71.5766 41.4649C71.6312 42.2724 71.7003 43.0325 71.7694 43.6836C71.8385 44.3347 71.9003 44.8766 71.9476 45.2512C71.9949 45.6259 72.024 45.815 72.024 45.815V45.9096C72.1062 46.9432 71.7925 47.9695 71.1466 48.7806C70.5006 49.5917 69.5705 50.1271 68.5446 50.2782C67.5188 50.4294 66.4738 50.1851 65.6213 49.5948C64.7688 49.0046 64.1725 48.1124 63.953 47.0989Z" fill="#FF919B"/>
<path d="M50.0553 69.8678C49.1905 69.8682 48.3392 69.6532 47.5783 69.2422C41.6242 66.0342 38.4453 62.1279 38.1216 61.6914C38.1216 61.6914 33.8078 57.6104 38.1216 54.417C39.2664 53.513 40.7129 53.0799 42.1662 53.2058C44.6031 53.4386 48.5131 57.836 52.5577 60.0146C53.5821 60.5682 54.3927 61.4476 54.8612 62.5137C55.3297 63.5798 55.4293 64.7716 55.1442 65.9007C54.8591 67.0297 54.2057 68.0315 53.2873 68.7473C52.3688 69.4632 51.2379 69.8524 50.0734 69.8533L50.0553 69.8678Z" fill="#FF919B"/>
<path d="M54.0635 98.6418C54.2744 99.2565 53.7289 100.439 53.1178 100.65L39.9729 103.516C39.8278 103.566 39.6741 103.587 39.5207 103.578C39.3674 103.568 39.2174 103.529 39.0794 103.461C38.9415 103.393 38.8183 103.299 38.7169 103.184C38.6156 103.068 38.5381 102.934 38.489 102.788L31.8401 81.7652C31.3673 80.3976 32.1711 79.5029 32.7822 79.2955L54.0635 98.6418Z" fill="#3E3EAD"/>
<path d="M53.9689 98.3908C54.0686 98.6846 54.0481 99.0059 53.9118 99.2846C53.7755 99.5633 53.5345 99.7768 53.2414 99.8785L40.6312 102.563C40.338 102.662 40.0172 102.642 39.7391 102.505C39.4609 102.369 39.2482 102.128 39.1473 101.835L32.353 80.6303C32.2533 80.3371 32.2739 80.0163 32.4103 79.7382C32.5466 79.4601 32.7876 79.2473 33.0804 79.1464L44.5012 77.2259C44.7945 77.1263 45.1153 77.1469 45.3934 77.2832C45.6715 77.4196 45.8843 77.6605 45.9852 77.9534L53.9689 98.3908Z" fill="#746BFF"/>
<path d="M51.5065 95.7212C51.5853 95.9532 51.5692 96.207 51.4615 96.4271C51.3538 96.6472 51.1634 96.8158 50.9318 96.896L40.9477 99.0528C40.7152 99.1328 40.4605 99.1172 40.2395 99.0094C40.0185 98.9017 39.8494 98.7106 39.7692 98.4782L34.3389 81.6924C34.2602 81.46 34.2769 81.2058 34.3853 80.9855C34.4937 80.7653 34.685 80.5971 34.9172 80.5176L43.9484 78.9718C44.1809 78.8929 44.4352 78.9089 44.6559 79.0166C44.8766 79.1242 45.0459 79.3147 45.1268 79.5465L51.5065 95.7212Z" fill="#CAFEFF"/>
<path d="M50.9282 96.8959L40.9477 99.0528C40.7152 99.1327 40.4605 99.1171 40.2395 99.0094C40.0185 98.9016 39.8494 98.7105 39.7692 98.4781L39.2928 96.9941L51.0737 94.6299L51.5029 95.7211C51.5424 95.836 51.5589 95.9575 51.5514 96.0788C51.5439 96.2 51.5126 96.3186 51.4592 96.4277C51.4058 96.5368 51.3314 96.6343 51.2403 96.7147C51.1492 96.795 51.0431 96.8566 50.9282 96.8959Z" fill="#353593"/>
<path d="M47.9093 99.7111C47.8924 99.9553 47.802 100.189 47.6502 100.381C47.4983 100.573 47.2919 100.714 47.0582 100.787C46.8244 100.86 46.5741 100.86 46.3402 100.788C46.1062 100.716 45.8994 100.575 45.7469 100.384C45.5945 100.192 45.5034 99.959 45.4857 99.7148C45.468 99.4707 45.5245 99.2268 45.6478 99.0153C45.7711 98.8038 45.9554 98.6345 46.1766 98.5295C46.3977 98.4246 46.6454 98.3889 46.8872 98.4272C47.0387 98.4443 47.1852 98.4912 47.3185 98.565C47.4519 98.6388 47.5693 98.7382 47.6642 98.8574C47.7591 98.9766 47.8296 99.1134 47.8717 99.2599C47.9137 99.4064 47.9265 99.5597 47.9093 99.7111Z" fill="#D6D6D6"/>
<path d="M47.6438 99.6675C47.6312 99.8578 47.5614 100.04 47.4435 100.19C47.3257 100.34 47.1653 100.45 46.9834 100.507C46.8014 100.564 46.6065 100.565 46.4242 100.51C46.2418 100.454 46.0805 100.344 45.9615 100.196C45.8424 100.047 45.7712 99.8651 45.7571 99.675C45.743 99.4849 45.7867 99.2949 45.8825 99.13C45.9783 98.9652 46.1217 98.8331 46.2938 98.7512C46.466 98.6693 46.6589 98.6413 46.8472 98.6709C47.0846 98.6983 47.3016 98.8185 47.4508 99.0052C47.6 99.1918 47.6694 99.4299 47.6438 99.6675Z" fill="#EFE4E8"/>
</svg>
