<svg width="1049" height="700" viewBox="0 0 1049 700" fill="none" xmlns="http://www.w3.org/2000/svg">
<path d="M968.395 435.626L950.044 436.018L940.729 436.172C937.61 436.242 934.477 436.172 931.358 436.256H930.743V435.626L930.659 419.933V419.234H931.358L949.877 419.318C956.059 419.318 962.227 419.472 968.395 419.542H968.787V419.933C968.787 422.591 968.675 425.234 968.605 427.85L968.395 435.626ZM968.395 435.626L968.199 427.724C968.129 425.122 968.045 422.549 968.017 419.975L968.395 420.367C962.227 420.437 956.059 420.591 949.877 420.591L931.358 420.675L932.058 419.975V435.626L931.428 435.011C934.477 435.011 937.526 435.011 940.589 435.081L949.695 435.319L968.395 435.626Z" fill="#66B3FF"/>
<path d="M947.737 455.362L929.386 455.753L920.057 455.907C916.952 455.907 913.819 455.907 910.7 455.991H910.085V455.362V439.711V439.011H910.784L929.302 439.109C935.471 439.109 941.653 439.263 947.821 439.333H948.212V439.711C948.212 442.368 948.1 445.012 948.031 447.627L947.737 455.362ZM947.737 455.362L947.541 447.459C947.471 444.858 947.387 442.284 947.359 439.711L947.737 440.102C941.569 440.172 935.387 440.326 929.218 440.326L910.7 440.41L911.399 439.711V455.362L910.77 454.746C913.819 454.746 916.868 454.746 919.931 454.816L929.121 454.984L947.737 455.362Z" fill="#EBEBEB"/>
<path d="M989.053 455.362L970.703 455.753L961.388 455.907C958.269 455.907 955.136 455.907 952.017 455.991H951.401V455.362L951.317 439.711V439.011H952.017L970.535 439.109C976.717 439.109 982.885 439.263 989.053 439.333H989.445V439.711C989.445 442.368 989.319 445.012 989.263 447.627L989.053 455.362ZM989.053 455.362L988.858 447.459C988.858 444.858 988.704 442.284 988.676 439.711L989.053 440.102C982.885 440.172 976.717 440.326 970.535 440.326L952.017 440.41L952.716 439.711V455.362L952.087 454.746C955.15 454.746 958.185 454.746 961.248 454.816L970.451 454.984L989.053 455.362Z" fill="#66B3FF"/>
<path d="M440.286 249.394L421.936 249.786L412.621 249.94C409.502 249.94 406.369 249.94 403.25 249.94H402.634V249.31L402.55 233.659V232.96H403.25L421.768 233.044C427.95 233.044 434.118 233.197 440.286 233.267H440.678V233.645C440.678 236.303 440.552 238.932 440.482 241.548L440.286 249.394ZM440.286 249.394L440.09 241.478C440.09 238.876 439.937 236.303 439.909 233.743L440.286 234.121C434.118 234.121 427.95 234.344 421.768 234.344L403.25 234.442L403.949 233.743L403.879 249.394L403.25 248.765C406.299 248.765 409.348 248.765 412.411 248.849L421.614 249.002L440.286 249.394Z" fill="#EBEBEB"/>
<path d="M419.6 269.129L401.249 269.521L391.92 269.675C388.815 269.675 385.682 269.675 382.563 269.745H381.948V269.115L381.836 253.492V252.793H382.535L401.054 252.877C407.222 252.877 413.404 253.03 419.572 253.1H419.964V253.492C419.964 256.15 419.852 258.779 419.782 261.395L419.6 269.129ZM419.6 269.129L419.404 261.213C419.334 258.611 419.25 256.038 419.222 253.478L419.6 253.856C413.432 253.926 407.25 254.079 401.082 254.079L382.563 254.177L383.263 253.478L383.235 269.129L382.605 268.5C385.654 268.5 388.703 268.5 391.766 268.584L400.956 268.738L419.6 269.129Z" fill="#EBEBEB"/>
<path d="M460.945 269.129L442.594 269.521L433.279 269.675C430.16 269.675 427.041 269.675 423.908 269.745H423.293V269.115L423.209 253.492V252.793H423.908L442.426 252.877C448.609 252.877 454.777 253.03 460.945 253.1H461.336V253.492C461.336 256.15 461.211 258.779 461.155 261.395L460.945 269.129ZM460.945 269.129L460.749 261.213C460.749 258.611 460.595 256.038 460.567 253.478L460.945 253.856C454.777 253.926 448.609 254.079 442.426 254.079L423.908 254.177L424.607 253.478L424.537 269.129L423.908 268.5C426.971 268.5 430.006 268.5 433.069 268.584L442.273 268.738L460.945 269.129Z" fill="#EBEBEB"/>
<path d="M138.3 352.951L119.95 353.343L110.621 353.497C107.515 353.497 104.382 353.497 101.263 353.567H100.704V352.937V337.286V336.587H101.403L119.922 336.671C126.09 336.671 132.272 336.825 138.44 336.895H138.832V337.272C138.832 339.93 138.72 342.559 138.65 345.175L138.3 352.951ZM138.3 352.951L138.104 345.035C138.104 342.433 137.95 339.86 137.922 337.3L138.3 337.678C132.132 337.748 125.95 337.902 119.782 337.902L101.263 337.999L101.963 337.3L101.893 352.951L101.263 352.322C104.313 352.322 107.362 352.322 110.425 352.406L119.614 352.56L138.3 352.951Z" fill="#66B3FF"/>
<path d="M752.287 249.38L733.937 249.772L724.621 249.925C721.502 249.995 718.369 249.926 715.25 249.995H714.635V249.366L714.551 233.715V233.016H715.25L733.769 233.1C739.951 233.1 746.119 233.267 752.287 233.337H752.679V233.715C752.679 236.372 752.567 239.016 752.497 241.617L752.287 249.38ZM752.287 249.38L752.091 241.478C752.021 238.862 751.937 236.288 751.909 233.729L752.287 234.107C746.119 234.177 739.951 234.33 733.769 234.344L715.25 234.428L715.95 233.729L715.88 249.38L715.25 248.751C718.299 248.751 721.349 248.751 724.412 248.835L733.615 248.988L752.287 249.38Z" fill="#EBEBEB"/>
<path d="M966.255 97.3729L947.904 97.7645L938.575 97.9184C935.47 97.9184 932.337 97.9184 929.218 98.0023H928.603V97.3729V81.7218V81.0225H929.302L947.82 81.1064C953.988 81.1064 960.171 81.2742 966.339 81.3442H966.73V81.7218C966.73 84.3793 966.618 87.0227 966.548 89.6243L966.255 97.3729ZM966.255 97.3729L966.059 89.4704C965.989 86.8549 965.905 84.2814 965.877 81.7218L966.255 82.0994C960.087 82.0994 953.904 82.3232 947.736 82.3372L929.218 82.4211L929.917 81.7218L929.847 97.3729L929.218 96.7435C932.267 96.7435 935.316 96.7435 938.379 96.8274L947.568 96.9812L966.255 97.3729Z" fill="#66B3FF"/>
<path d="M986.913 117.108L968.563 117.5L959.248 117.654C956.129 117.724 952.996 117.654 949.877 117.738H949.261V117.108L949.177 101.457V100.758H949.877L968.395 100.842C974.577 100.842 980.745 101.009 986.913 101.079H987.305V101.457C987.305 104.114 987.179 106.758 987.109 109.359L986.913 117.108ZM986.913 117.108L986.717 109.206C986.717 106.59 986.564 104.017 986.536 101.457L986.913 101.835C980.745 101.905 974.577 102.058 968.395 102.072L949.877 102.156L950.576 101.457V117.108L949.946 116.479C952.996 116.479 956.045 116.479 959.108 116.563L968.311 116.716L986.913 117.108Z" fill="#66B3FF"/>
<path d="M96.9836 97.3869L78.6191 97.7785L69.304 97.9324C66.1989 97.9324 63.0659 97.9324 59.9469 98.0163H59.3175V97.3869V81.7358V81.0365H60.0308L78.5492 81.1344C84.7173 81.1344 90.8854 81.2883 97.0675 81.3582H97.4452V81.7358C97.4452 84.3933 97.3193 87.0368 97.2633 89.6523L96.9836 97.3869ZM96.9836 97.3869L96.7738 89.4844C96.7738 86.8829 96.6199 84.2954 96.592 81.7358L96.9836 82.1135C90.8015 82.1974 84.6334 82.3373 78.4652 82.3512L59.9469 82.4352L60.6462 81.7358L60.5623 97.3869L59.9469 96.8414C62.996 96.8414 66.0311 96.8414 69.0942 96.8414L78.2974 96.9953L96.9836 97.3869Z" fill="#66B3FF"/>
<path d="M550.627 291.522C548.911 293.143 546.782 294.261 544.473 294.753C543.074 295.116 541.522 295.326 540.039 295.592H534.976C532.892 295.27 530.78 295.019 528.752 294.613C521.173 292.986 513.994 289.867 507.632 285.438C490.88 274.363 476.765 259.743 466.288 242.611C462.775 236.957 460.355 230.695 459.154 224.148C458.847 222.428 458.609 220.693 458.343 218.959V213.896C458.763 211.952 459.099 209.98 459.616 208.063C460.126 206.265 461.089 204.628 462.413 203.308C462.665 203.532 462.889 203.714 463.113 203.937C471.169 211.984 479.23 220.031 487.296 228.078C487.557 228.296 487.743 228.589 487.828 228.918C487.914 229.247 487.894 229.594 487.771 229.911C487.158 231.905 487.076 234.024 487.532 236.06C487.988 238.096 488.967 239.978 490.373 241.52C497.252 249.334 504.619 256.706 512.43 263.591C513.987 265.004 515.886 265.987 517.939 266.441C519.993 266.894 522.129 266.804 524.137 266.178C524.724 266.024 525.144 265.926 525.647 266.43C533.881 274.71 542.133 282.971 550.403 291.214C550.445 291.256 550.501 291.382 550.627 291.522Z" fill="#0067CC"/>
<path d="M566.46 273.437V275.116C565.73 276.167 564.941 277.176 564.096 278.137C561.607 280.724 559.033 283.228 556.502 285.759L555.718 286.501L530.85 261.646C534.109 258.429 537.354 255.143 540.711 251.94C541.074 251.602 541.502 251.341 541.969 251.171C542.436 251.002 542.932 250.928 543.427 250.955C543.923 250.981 544.408 251.106 544.855 251.323C545.301 251.541 545.699 251.845 546.026 252.219C547.9 254.038 549.718 255.898 551.62 257.73C555.942 262.066 560.292 266.374 564.572 270.738C565.271 271.587 565.902 272.489 566.46 273.437Z" fill="#0067CC"/>
<path d="M501.268 214.022C498.191 217.001 495.044 219.91 491.995 222.791L467.323 198.133C467.868 197.643 468.498 197.126 469.071 196.566C471.337 194.315 473.561 192.007 475.869 189.797C476.806 188.974 477.791 188.208 478.82 187.503H480.512C481.455 188.082 482.353 188.732 483.198 189.447C489.24 195.433 495.259 201.448 501.254 207.49C503.52 209.756 503.52 211.798 501.268 214.022Z" fill="#0067CC"/>
<path d="M87.7803 227.743H249.648V125.052H87.7803V227.743Z" fill="#F8B607"/>
<path d="M279.929 227.743H249.648V196.203L279.929 227.743Z" fill="#F8B607"/>
<path d="M230.906 142.802H106.509V144.76H230.906V142.802Z" fill="white"/>
<path d="M170.805 153.348H106.509V155.306H170.805V153.348Z" fill="white"/>
<path d="M207.101 174.426H106.509V176.384H207.101V174.426Z" fill="white"/>
<path d="M230.906 184.957H106.509V186.915H230.906V184.957Z" fill="white"/>
<path d="M230.906 195.489H106.509V197.448H230.906V195.489Z" fill="white"/>
<path d="M150.706 206.035H106.509V207.994H150.706V206.035Z" fill="white"/>
<path d="M961.22 268.751H799.352V359.315H961.22V268.751Z" fill="#0081FF"/>
<path d="M769.071 359.329H799.352V327.789L769.071 359.329Z" fill="#0081FF"/>
<path d="M926.756 316.041H818.458V317.999H926.756V316.041Z" fill="white"/>
<path d="M904.49 326.586H818.458V328.544H904.49V326.586Z" fill="white"/>
<path d="M910.979 294.963H818.458V296.921H910.979V294.963Z" fill="white"/>
<path d="M939.26 284.431H818.458V286.389H939.26V284.431Z" fill="white"/>
<path d="M913.413 337.118H818.458V339.077H913.413V337.118Z" fill="white"/>
<path d="M879.44 172.495H582.209V185.531H879.44V172.495Z" fill="#EBEBEB"/>
<path d="M611.902 185.545H598.867V228.652H611.902V185.545Z" fill="#EBEBEB"/>
<path d="M611.902 185.545H598.867V198.874H611.902V185.545Z" fill="#0081FF"/>
<path d="M862.782 185.545H849.746V228.652H862.782V185.545Z" fill="#EBEBEB"/>
<path d="M862.782 185.545H849.746V198.874H862.782V185.545Z" fill="#0081FF"/>
<path d="M658.618 172.495V89.4285H637.694V172.495H658.618Z" fill="#0067CC"/>
<path d="M658.618 94.114V84.9807H637.694V94.114H658.618Z" fill="#0081FF"/>
<path d="M658.604 109.206V105.821H637.68V109.206H658.604Z" fill="#0081FF"/>
<path d="M661.22 161.614V152.48H637.694V161.614H661.22Z" fill="#0081FF"/>
<path d="M673.234 172.495V75.5957H658.618V172.495H673.234Z" fill="#0081FF"/>
<path d="M670.255 121.976V84.701H661.485V121.976H670.255Z" fill="#EBEBEB"/>
<path d="M777.196 162.145L708.284 94.0221L698.009 104.417L766.92 172.539L777.196 162.145Z" fill="#0067CC"/>
<path d="M759.011 148.214L732.503 122.01L726.338 128.246L752.846 154.451L759.011 148.214Z" fill="#0081FF"/>
<path d="M698.047 172.523V98.9115H673.22V172.523H698.047Z" fill="#001A33"/>
<path d="M698.047 164.705V157.851H673.22V164.705H698.047Z" fill="#0067CC"/>
<path d="M698.047 153.361V150.704H673.22V153.361H698.047Z" fill="#0067CC"/>
<path d="M637.694 172.523V103.345H620.546V172.523H637.694Z" fill="#001A33"/>
<path d="M637.694 165.18V158.732H620.546V165.18H637.694Z" fill="#0067CC"/>
<path d="M637.694 124.046V117.598H620.546V124.046H637.694Z" fill="#0067CC"/>
<path d="M637.694 130.969V128.465H620.546V130.969H637.694Z" fill="#0067CC"/>
<path d="M848.193 140.27L846.333 145.207L845.186 148.215L843.312 153.166L836.011 172.509H796.527L789.198 153.166L787.323 148.215L786.191 145.207L784.316 140.27L798.89 119.024L791.338 105.024H841.214L833.619 119.024L848.193 140.27Z" fill="#0081FF"/>
<path d="M848.193 140.27L846.333 145.207H786.191L784.316 140.27H848.193Z" fill="#001A33"/>
<path d="M845.187 148.214L843.312 153.166H789.198L787.324 148.214H845.187Z" fill="#001A33"/>
<path d="M78.0735 549.492L189.687 549.156L301.287 549.03L524.5 548.807L747.713 549.03L859.313 549.156L970.926 549.492L859.313 549.842L747.713 549.967L524.5 550.191L301.287 549.967L189.687 549.842L78.0735 549.492Z" fill="#263238"/>
<path d="M512.388 549.464H683.948L649.751 350.475H521.451L512.388 549.464Z" fill="#DBDBDB"/>
<path d="M512.388 549.464H527.437L535.871 350.475H521.451L512.388 549.464Z" fill="#A6A6A6"/>
<path d="M661.457 389.484C680.871 432.843 727.782 504.804 748.776 486.971C780.176 460.313 801.436 401.345 809.828 377.498C814.542 364.14 746.496 341.79 742.328 353.916C736.398 371.148 727.097 407.163 721.712 412.269C718.915 414.94 696.62 383.652 679.752 368.812C655.401 347.426 655.261 375.638 661.457 389.484Z" fill="#AD6359"/>
<path d="M826.822 357.427C820.766 371.05 797.45 394.086 789.701 397.485C781.953 400.883 741.028 363.917 741.881 355.217C742.734 346.517 767.155 300.949 780.68 293.955C794.205 286.962 833.102 343.3 826.822 357.427Z" fill="#AD6359"/>
<path d="M745.084 345.65C745.084 345.65 746.063 326.265 741.168 309.872C737.056 296.095 729.405 276.108 736.72 273.619C751.77 268.514 770.847 318.376 770.847 318.376C770.847 318.376 775.743 341.734 761.294 348.112C752.231 352.112 745.084 345.65 745.084 345.65Z" fill="#AD6359"/>
<path d="M762.05 308.879C763.029 316.726 771.714 311.075 771.714 311.075C771.714 311.075 761.182 322.264 765.322 329.915C769.351 337.314 779.589 330.111 780.33 329.607C779.771 330.209 770.372 340.699 775.337 348C780.498 355.581 789.533 346.601 790.121 346.014C789.771 346.727 785.379 356.392 790.415 361.091C799.058 369.134 810.975 344.741 820.15 342.014C820.15 342.014 826.556 357.021 826.822 357.399C826.822 357.399 838.641 334.405 834.277 322.236C833.665 320.459 832.466 318.943 830.877 317.938C829.287 316.934 827.403 316.501 825.535 316.712C825.535 316.712 830.165 309.718 826.444 303.844C824.514 300.837 818.052 301.228 818.052 301.228C818.052 301.228 821.521 295.48 817.884 290.473C814.989 286.459 808.905 287.48 808.905 287.48C808.905 287.48 809.674 280.402 805.394 277.269C796.695 270.947 759.938 292.081 762.05 308.879Z" fill="#AD6359"/>
<path d="M807.856 287.522C807.982 287.452 807.856 287.27 807.786 287.312C793.995 291.312 780.079 299.9 771.211 311.327C770.917 311.705 771.393 312.334 771.798 311.984C783.253 301.984 794.093 294.053 807.856 287.522Z" fill="#263238"/>
<path d="M818.136 301.047C818.29 300.977 818.136 300.725 818.01 300.767C803.814 304.963 788.415 315.117 779.729 329.454C779.435 329.943 779.659 330.684 780.051 330.153C786.54 321.09 805.716 306.879 818.136 301.047Z" fill="#263238"/>
<path d="M789.855 347.203C798.709 333.775 810.975 324.53 824.948 316.852C825.115 316.754 824.948 316.516 824.794 316.558C816.933 318.446 808.541 324.264 802.415 329.356C796.617 333.961 792.132 340.01 789.408 346.895C789.282 347.203 789.673 347.51 789.855 347.203Z" fill="#263238"/>
<path d="M771.435 311.061C771.085 311.509 772.134 311.523 771.798 311.984C770.4 313.914 762.917 326.293 766.343 330.167C769.141 333.258 775.141 331.691 777.239 330.167L782.484 326.376L778.876 331.817C777.251 334.201 776.023 336.832 775.239 339.608C774.805 340.872 774.644 342.214 774.767 343.545C774.889 344.876 775.294 346.165 775.952 347.328C776.57 348.406 777.54 349.238 778.699 349.684C779.858 350.13 781.136 350.162 782.316 349.776C784.947 348.871 787.302 347.306 789.156 345.23L794.471 339.636L791.282 346.629C790.39 348.564 789.747 350.603 789.366 352.699C788.938 354.67 789.099 356.722 789.827 358.602C790.188 359.429 790.771 360.141 791.512 360.657C792.252 361.173 793.122 361.473 794.023 361.525C796.066 361.318 798.007 360.532 799.618 359.259C803.149 356.561 806.465 353.591 809.534 350.378C811.143 348.811 812.751 347.231 814.444 345.72C816.033 344.129 817.939 342.89 820.038 342.083C818.043 343.094 816.266 344.486 814.807 346.182C813.255 347.79 811.772 349.468 810.29 351.161C807.376 354.655 804.145 357.871 800.639 360.77C798.758 362.365 796.455 363.381 794.009 363.693C792.661 363.706 791.337 363.328 790.198 362.606C789.059 361.884 788.153 360.848 787.589 359.623C786.61 357.315 786.342 354.768 786.82 352.308C787.196 349.967 787.878 347.687 788.848 345.524L790.974 346.923C788.819 349.41 786.052 351.291 782.946 352.378C781.205 352.934 779.325 352.865 777.631 352.182C775.993 351.464 774.609 350.27 773.659 348.755C772.826 347.279 772.315 345.643 772.161 343.956C772.007 342.268 772.212 340.567 772.763 338.964C773.657 335.925 775.051 333.055 776.889 330.475L778.526 332.069C775.729 333.887 769.239 336.377 764.357 332.139C758.959 325.579 769.379 313.187 771.435 311.061Z" fill="#263238"/>
<path d="M771.714 311.075C770.203 311.678 768.609 312.051 766.987 312.18C766.335 312.247 765.678 312.139 765.083 311.866C764.487 311.593 763.976 311.165 763.602 310.627C762.943 309.333 762.676 307.875 762.833 306.431C762.917 304.837 763.085 303.173 763.336 301.452C762.271 302.858 761.518 304.474 761.127 306.194C760.857 307.122 760.775 308.094 760.883 309.054C760.991 310.014 761.287 310.943 761.756 311.788C762.368 312.666 763.231 313.339 764.232 313.718C765.195 314.033 766.227 314.072 767.211 313.83C768.965 313.409 770.541 312.445 771.714 311.075Z" fill="#263238"/>
<path d="M738.188 355.217L809.017 404.548C809.017 404.548 766.707 492.202 740.566 491.965C714.425 491.727 676.661 426.074 663.639 397.695C650.618 369.316 658.38 345.273 684.731 371.12C711.082 396.967 720.523 407.625 721.376 407.275C722.971 406.632 738.188 355.217 738.188 355.217Z" fill="#0081FF"/>
<path d="M809.017 404.548C809.017 404.548 779.645 465.334 754.763 485.531C749.769 489.587 744.972 492.007 740.566 491.951C714.425 491.727 676.661 426.059 663.57 397.694C655.471 380.127 655.401 364.224 662.758 360.798C667.304 358.686 674.647 361.287 684.675 371.162C711.25 397.191 720.453 407.653 721.32 407.303C722.971 406.632 738.202 355.231 738.202 355.231L809.017 404.548Z" fill="#0081FF"/>
<path d="M765.183 475.181C764.316 476.188 763.434 477.167 762.553 478.118C754.583 483.136 745.641 486.411 736.314 487.727C733.742 488.011 731.153 488.114 728.566 488.034L726.957 487.027C730.045 487.214 733.142 487.134 736.216 486.79C739.896 486.388 743.516 485.552 747 484.3L749.643 483.433L752.203 482.356C753.056 481.992 753.937 481.685 754.763 481.265L757.238 480.006C759.992 478.579 762.647 476.967 765.183 475.181ZM711.446 397.96C703.364 401.636 695.992 406.707 689.669 412.94C685.567 416.981 681.776 421.324 678.326 425.934C678.493 426.241 678.675 426.563 678.871 426.871C682.362 422.184 686.211 417.774 690.382 413.681C695.681 408.475 701.718 404.078 708.299 400.632L710.775 399.373C711.229 399.143 711.696 398.937 712.173 398.758L711.446 397.96ZM772.624 402.422C765.907 399.135 758.878 396.525 751.644 394.632C750.888 394.45 750.133 394.268 749.364 394.114C748.874 394.002 748.371 393.89 747.881 393.806C741.767 392.525 735.491 392.204 729.279 392.855C728.37 392.981 727.475 393.121 726.565 393.289C726.468 393.611 726.356 393.946 726.258 394.254C727.293 394.072 728.342 393.918 729.391 393.792C735.157 393.183 740.982 393.424 746.678 394.506L748.203 394.785C749.28 395.009 750.357 395.247 751.434 395.513C758.607 397.361 765.579 399.92 772.246 403.149C782.232 408.048 791.919 413.536 801.254 419.584C801.394 419.346 801.52 419.108 801.632 418.884C792.299 412.825 782.612 407.328 772.624 402.422ZM779.967 384.323C768.627 384.792 757.578 388.049 747.797 393.806L746.594 394.506C744.125 395.986 741.739 397.601 739.447 399.345C727.461 408.464 717.894 420.185 708.788 431.976C704.229 437.892 699.753 443.851 695.026 449.613C694.69 450.033 694.34 450.438 693.991 450.858L694.522 451.627C694.928 451.152 695.333 450.676 695.725 450.229C700.48 444.452 704.97 438.494 709.544 432.591C718.649 420.843 728.202 409.206 740.063 400.212C742.633 398.251 745.324 396.453 748.119 394.827C748.497 394.59 748.888 394.366 749.28 394.156C752.537 392.328 755.932 390.756 759.434 389.456L762.05 388.505C762.917 388.198 763.826 387.988 764.721 387.722L767.393 386.981L770.19 386.435C773.801 385.621 777.496 385.236 781.197 385.288H781.365L779.967 384.323ZM693.039 379.442C688.153 381.614 683.046 383.25 677.808 384.323L675.081 384.855C674.171 385.023 673.248 385.079 672.283 385.205L669.486 385.526L666.689 385.638C664.135 385.815 661.57 385.769 659.024 385.498L659.276 386.421C671.098 387.284 682.948 385.148 693.725 380.211C693.571 379.946 693.305 379.694 693.039 379.442ZM672.871 362.071C667.918 365.435 662.781 368.522 657.485 371.316C657.485 371.693 657.485 372.071 657.485 372.463C663.136 369.507 668.601 366.21 673.85 362.588C673.514 362.406 673.192 362.224 672.871 362.071Z" fill="white"/>
<path d="M792.275 412.772C790.401 411.22 788.513 409.709 786.61 408.198C782.75 405.149 778.89 402.114 775.029 399.093C767.337 393.093 759.476 387.302 751.56 381.61C747.07 378.365 742.65 374.952 738.021 371.917C737.999 371.9 737.974 371.888 737.947 371.882C737.92 371.875 737.892 371.873 737.865 371.877C737.838 371.881 737.812 371.89 737.788 371.904C737.764 371.918 737.744 371.937 737.727 371.959C737.711 371.981 737.698 372.006 737.692 372.033C737.685 372.059 737.683 372.087 737.687 372.114C737.691 372.142 737.7 372.168 737.714 372.192C737.728 372.215 737.747 372.236 737.769 372.253C741.447 375.498 745.392 378.463 749.21 381.554C753.028 384.645 756.819 387.75 760.693 390.771C768.395 396.757 776.19 402.627 784.079 408.38C786.275 410.003 788.443 411.709 790.723 413.234C791.883 414.017 792.988 414.884 794.163 415.639C795.338 416.395 796.597 417.038 797.744 417.891C797.77 417.906 797.801 417.911 797.83 417.905C797.86 417.9 797.886 417.883 797.905 417.86C797.924 417.836 797.933 417.806 797.932 417.776C797.931 417.746 797.918 417.717 797.898 417.695C795.981 416.087 794.191 414.339 792.275 412.772Z" fill="#263238"/>
<path d="M721.922 405.709C719.219 413.016 716.995 420.491 715.264 428.088C714.341 431.836 713.614 435.626 712.9 439.403C712.146 443.156 711.641 446.954 711.39 450.774C711.39 450.914 711.6 450.914 711.628 450.774C712.803 447.123 713.67 443.319 714.509 439.585C715.348 435.85 716.299 432.088 717.138 428.395C718.831 420.87 720.817 413.416 722.285 405.849C722.295 405.825 722.299 405.799 722.298 405.774C722.298 405.748 722.292 405.723 722.282 405.7C722.271 405.676 722.256 405.655 722.238 405.638C722.219 405.62 722.198 405.606 722.174 405.597C722.15 405.588 722.124 405.583 722.099 405.584C722.073 405.585 722.048 405.59 722.025 405.601C722.001 405.611 721.98 405.626 721.962 405.645C721.945 405.663 721.931 405.685 721.922 405.709Z" fill="#263238"/>
<path opacity="0.1" d="M754.763 485.531C749.769 489.587 744.972 492.007 740.566 491.951C714.425 491.727 676.661 426.059 663.57 397.694C655.471 380.127 655.401 364.224 662.758 360.798L754.763 485.531Z" fill="black"/>
<path d="M714.215 549.464H544.179C542.305 546.023 570.167 397.093 627.512 355.147C640.24 345.846 662.814 351.832 669.08 360.881C700.634 406.352 714.215 549.464 714.215 549.464Z" fill="#0081FF"/>
<path d="M705.376 483.349C701.131 481.846 696.971 480.114 692.914 478.16C687.221 475.432 681.724 472.411 676.255 469.222L675.458 468.747C669.864 465.432 664.269 461.921 658.786 458.383L658.003 457.879L654.282 455.473C641.694 447.403 629.302 439.095 615.861 432.633C609.217 429.311 602.163 426.884 594.881 425.416C591.227 424.764 587.507 424.558 583.804 424.801C582.88 424.801 581.971 424.997 581.006 425.122C580.377 425.248 579.747 425.332 579.104 425.458C579.202 425.234 579.286 425.025 579.398 424.801C579.901 424.703 580.419 424.619 580.922 424.507C581.845 424.395 582.783 424.255 583.72 424.185C587.46 423.934 591.217 424.136 594.909 424.787C602.267 426.242 609.398 428.674 616.113 432.018C629.624 438.48 642.1 446.788 654.66 454.83L658.353 457.194L659.15 457.697C664.744 461.292 670.339 464.859 676.144 468.229L676.941 468.705C682.256 471.796 687.669 474.733 693.235 477.377C697.124 479.237 701.106 480.894 705.166 482.342L705.376 483.349ZM690.242 412.339L689.669 412.884C678.885 423.388 670.829 436.2 663.234 449.012C661.63 451.744 660.017 454.471 658.395 457.194C658.269 457.432 658.143 457.655 658.003 457.879C655.947 461.348 653.877 464.803 651.723 468.201C649.835 471.195 647.863 474.146 645.765 476.999C645.569 477.265 645.387 477.53 645.191 477.782C643.068 480.65 640.78 483.391 638.338 485.992C635.792 488.693 632.981 491.13 629.946 493.265L628.813 494.063C628.435 494.328 628.015 494.538 627.624 494.776L625.232 496.175C623.584 497.006 621.883 497.731 620.141 498.343C613.086 500.686 605.7 501.88 598.266 501.881C590.858 501.852 583.476 501.012 576.251 499.378C569.257 497.895 562.474 495.909 555.634 493.923C555.634 494.147 555.523 494.37 555.453 494.58C562.278 496.58 569.132 498.594 576.097 500.091C583.408 501.759 590.879 502.622 598.378 502.664C605.896 502.668 613.366 501.469 620.505 499.112C622.287 498.499 624.025 497.766 625.708 496.916L628.155 495.517C628.569 495.297 628.971 495.054 629.358 494.79L630.519 493.979C633.6 491.822 636.454 489.357 639.037 486.622C641.641 483.835 644.079 480.897 646.338 477.824C646.548 477.558 646.73 477.307 646.911 477.041C648.898 474.327 650.772 471.544 652.506 468.719C654.674 465.32 656.702 461.865 658.8 458.411L659.206 457.725L664.059 449.529C671.668 436.731 679.724 424.031 690.396 413.653L690.578 413.486C690.452 413.08 690.34 412.702 690.242 412.339ZM698.312 445.557C697.235 446.956 696.144 448.27 695.04 449.613C690.408 455.435 685.233 460.802 679.584 465.642C678.465 466.523 677.346 467.404 676.186 468.229L675.458 468.747C673.839 469.889 672.143 470.917 670.381 471.824L669.164 472.481C668.759 472.705 668.311 472.859 667.891 473.055L665.346 474.146C663.61 474.772 661.835 475.282 660.031 475.67C655.696 476.599 651.275 477.067 646.842 477.069H645.765C643.135 477.069 640.506 476.859 637.89 476.579C630.509 475.65 623.253 473.91 616.253 471.39C609.259 468.971 602.364 465.991 595.51 462.998C588.689 459.912 581.682 457.254 574.53 455.04C572.418 454.438 570.334 453.907 568.097 453.515L567.887 454.117C570.069 454.522 572.237 455.04 574.349 455.655C581.459 457.877 588.424 460.539 595.203 463.628C602.056 466.579 608.91 469.572 615.973 472.02C623.033 474.56 630.35 476.323 637.792 477.279C640.254 477.558 642.715 477.74 645.177 477.782C645.541 477.782 645.89 477.782 646.254 477.782C650.95 477.858 655.641 477.417 660.241 476.467C662.08 476.061 663.892 475.543 665.668 474.915L668.269 473.796C668.703 473.6 669.136 473.446 669.556 473.223L670.801 472.551C672.711 471.578 674.543 470.46 676.283 469.208L677.011 468.691C678.074 467.922 679.123 467.11 680.158 466.285C685.864 461.426 691.091 456.03 695.767 450.173C696.699 449.026 697.632 447.865 698.564 446.69C698.48 446.326 698.396 445.935 698.312 445.557ZM680.745 383.666C679.766 383.904 678.787 384.128 677.808 384.323L675.081 384.855C674.171 385.023 673.248 385.079 672.283 385.204L669.486 385.526L666.689 385.638C662.995 385.877 659.286 385.68 655.639 385.051C649.917 384.062 644.374 382.228 639.191 379.61L637.792 378.924C636.813 378.421 635.848 377.889 634.897 377.344C628.494 373.585 622.487 369.189 616.966 364.224L616.351 364.84C621.923 369.858 627.981 374.309 634.435 378.127C635.107 378.519 635.834 378.897 636.477 379.26L637.876 379.959C643.406 382.861 649.35 384.894 655.499 385.988C664.023 387.184 672.697 386.709 681.039 384.589C680.983 384.281 680.857 383.974 680.745 383.666ZM670.787 363.455C663.359 368.438 655.432 372.633 647.135 375.973C644.126 377.146 641.048 378.131 637.918 378.924L636.603 379.26C632.968 380.106 629.274 380.681 625.554 380.98L622.756 381.162C621.833 381.232 620.91 381.162 619.959 381.162H617.162L614.364 380.939C610.995 380.744 607.656 380.186 604.406 379.274C604.21 379.54 604.014 379.806 603.833 380.085C615.003 382.891 626.699 382.847 637.848 379.959L639.247 379.61C642.037 378.871 644.783 377.974 647.471 376.924C655.81 373.562 663.779 369.343 671.248 364.336L670.787 363.455ZM712.621 534.834C711.222 534.834 709.712 534.96 708.257 535.002H708.145L707.292 535.072C700.124 535.822 693.158 537.894 686.745 541.184C682.157 543.58 677.774 546.349 673.64 549.464H674.521C678.466 546.543 682.638 543.943 686.997 541.687C693.465 538.385 700.497 536.331 707.725 535.631H708.243H708.579C709.977 535.631 711.292 535.477 712.635 535.491C712.663 535.239 712.649 535.044 712.621 534.834ZM713.348 541.268C711.828 539.338 710.257 537.44 708.635 535.575C708.481 535.379 708.313 535.197 708.145 535.016L707.572 534.344C702.685 528.649 697.064 523.626 690.858 519.407C687.708 517.351 684.316 515.693 680.759 514.469C679.878 514.176 678.955 513.924 678.06 513.672C677.165 513.42 676.228 513.224 675.262 513.099C673.416 512.749 671.528 512.721 669.668 512.539C662.148 512.264 654.647 513.457 647.583 516.05C640.584 518.711 633.9 522.135 627.652 526.26C616.462 533.463 606.266 541.939 595.371 549.464H595.832C606.672 542.065 616.812 533.743 627.89 526.694C634.115 522.597 640.776 519.206 647.751 516.581C654.744 514.021 662.17 512.848 669.612 513.127C671.444 513.322 673.318 513.35 675.137 513.7C676.06 513.826 676.941 514.092 677.85 514.273C678.759 514.455 679.64 514.763 680.507 515.057C684.012 516.27 687.353 517.915 690.452 519.952C696.605 524.143 702.17 529.139 706.998 534.806C707.082 534.904 707.166 534.988 707.236 535.086L707.725 535.631C709.684 537.911 711.6 540.233 713.446 542.624C713.46 542.177 713.404 541.743 713.32 541.268H713.348Z" fill="white"/>
<path d="M604.937 373.4C570.32 413.443 523.661 484.174 542.725 499.811C574.069 525.519 665.611 540.372 686.619 542.862C695.683 543.953 713.837 484.705 707.781 477.041C701.725 469.376 604.937 463.963 604.28 458.019C603.902 454.648 618.602 425.332 628.057 389.372C638.925 347.916 614.686 362.112 604.937 373.4Z" fill="#AD6359"/>
<path d="M691.921 472.159C691.921 472.159 719.698 471.95 737.867 472.663C748.007 473.055 765.323 475.292 772.638 478.999C783.575 484.524 825.787 514.665 818.71 525.057C812.29 534.456 779.309 503.965 779.309 503.965C779.309 503.965 815.311 531.799 805.506 541.729C795.702 551.66 763.015 512.245 763.015 512.245C763.015 512.245 799.38 541.617 787.645 550.289C778.778 556.793 747.168 522.777 747.168 522.777C747.168 522.777 778.232 548.275 769.407 555.366C759.616 563.199 728.496 533.631 728.496 533.631C703.04 547.869 685.137 544.233 672.549 540.135C669.598 539.086 691.921 472.159 691.921 472.159Z" fill="#AD6359"/>
<path d="M767.476 493.545C771.826 496.664 776.246 499.783 780.302 503.336C784.358 506.888 788.289 510.455 792.009 514.315C801.114 523.77 805.338 531.099 805.017 530.68C797.688 520.623 783.365 507.91 779.309 504.413C775.253 500.916 771.379 497.238 767.337 493.755C767.239 493.601 767.378 493.475 767.476 493.545Z" fill="#263238"/>
<path d="M754.609 507.965C759.98 512.161 765.477 516.162 770.666 520.623C775.855 525.085 782.876 531.519 787.729 536.302C788.093 536.666 787.729 537.365 787.338 537.016C782.302 532.428 774.82 526.162 769.729 521.63C764.637 517.099 759.728 512.385 754.497 508.063C754.413 508.049 754.525 507.895 754.609 507.965Z" fill="#263238"/>
<path d="M741.293 518.343C749.839 524.372 757.266 531.967 764.371 539.589C764.735 539.967 764.371 540.023 763.924 539.659C756.385 532.456 750.511 526.75 741.084 518.679C740.972 518.511 741.154 518.218 741.293 518.343Z" fill="#263238"/>
<path d="M688.018 471.278C700.69 471.194 737.909 471.096 750.553 472.075C761.742 472.929 770.959 475.334 780.344 481.544C800.485 494.86 813.465 510.497 816.71 515.112C818.668 517.91 821.507 522.427 818.92 525.56C815.745 529.365 804.066 525.644 791.743 514.497C791.296 514.091 791.576 513.84 792.037 514.217C809.339 528.204 816.22 526.609 818.024 524.218C819.199 522.665 818.024 520.022 817.017 517.924C815.333 514.955 813.274 512.214 810.891 509.77C802.944 501.268 794.152 493.596 784.652 486.873C774.474 479.276 762.349 474.722 749.686 473.74C736.734 472.677 700.9 473.013 687.962 471.768C687.697 471.684 687.739 471.292 688.018 471.278Z" fill="#263238"/>
<path d="M807.562 536.134C806.849 532.68 804.359 529.519 802.387 526.665C799.991 523.075 797.241 519.734 794.177 516.693C794.051 516.567 793.813 516.693 793.939 516.889C796.549 519.939 798.973 523.143 801.198 526.484C802.382 528.321 803.456 530.227 804.415 532.19C805.324 534.078 806.401 536.26 805.926 538.414C805.031 542.526 799.8 542.428 796.709 541.324C794.706 540.57 792.777 539.634 790.946 538.526C788.452 536.937 786.086 535.155 783.869 533.197C783.687 533.029 783.184 533.099 783.379 533.281C787.995 537.673 796.737 546.806 803.87 543.463C805.239 542.859 806.355 541.797 807.029 540.46C807.702 539.124 807.891 537.595 807.562 536.134Z" fill="#263238"/>
<path d="M692.34 468.565L659.066 544.093C659.066 544.093 542.781 517.84 536.039 495.769C529.298 473.698 565.733 414.646 598.616 377.777C630.953 341.552 635.736 366.126 627.694 394.142C619.652 422.157 606.462 454.452 607.931 456.872C609.399 459.292 692.34 468.565 692.34 468.565Z" fill="#0081FF"/>
<path d="M615.413 431.682C615.329 431.892 615.259 432.116 615.176 432.326C608.716 429.148 601.87 426.826 594.811 425.416C591.157 424.764 587.437 424.558 583.734 424.801C582.81 424.801 581.901 424.997 580.936 425.122C579.971 425.248 579.118 425.402 578.223 425.654C576.405 426.046 574.684 426.745 572.908 427.29C566.054 429.898 559.767 433.802 554.39 438.787L555.271 437.263C560.4 432.734 566.303 429.166 572.698 426.731C574.488 426.171 576.237 425.458 578.083 425.066C578.992 424.815 579.929 424.703 580.88 424.507C581.831 424.311 582.74 424.255 583.678 424.185C587.418 423.934 591.175 424.136 594.867 424.787C601.986 426.182 608.893 428.5 615.413 431.682ZM676.955 468.705L676.157 468.229L672.968 466.341L671.038 466.117C672.437 466.998 673.962 467.894 675.43 468.747L676.227 469.222C680.423 471.67 684.619 474.02 688.927 476.216L689.263 475.446C685.123 473.306 681.025 471.055 676.955 468.705ZM654.254 464.075C653.415 465.474 652.562 466.873 651.695 468.201C649.807 471.194 647.834 474.146 645.736 476.999C645.541 477.265 645.359 477.53 645.163 477.782C643.04 480.65 640.752 483.391 638.31 485.992C635.764 488.693 632.953 491.13 629.918 493.265L628.785 494.063C628.407 494.328 627.987 494.538 627.596 494.776L625.204 496.175C623.556 497.006 621.855 497.731 620.113 498.343C613.058 500.686 605.672 501.88 598.238 501.881C590.839 501.85 583.467 501.01 576.251 499.378C568.964 497.825 561.816 495.713 554.641 493.629C548.277 491.783 541.871 489.923 535.326 488.706C535.326 488.93 535.326 489.153 535.326 489.363C541.802 490.58 548.137 492.454 554.473 494.286C561.635 496.384 568.81 498.482 576.125 500.091C583.436 501.759 590.907 502.622 598.406 502.664C605.924 502.668 613.394 501.469 620.532 499.112C622.315 498.499 624.053 497.766 625.736 496.916L628.183 495.517C628.597 495.297 628.998 495.054 629.386 494.79L630.547 493.979C633.628 491.822 636.482 489.357 639.065 486.622C641.669 483.835 644.107 480.897 646.366 477.824C646.576 477.558 646.757 477.307 646.939 477.041C648.925 474.327 650.8 471.544 652.534 468.719C653.485 467.236 654.408 465.726 655.331 464.229L654.254 464.075ZM677.92 466.873C677.346 467.32 676.759 467.768 676.157 468.187L675.43 468.705C673.811 469.847 672.115 470.875 670.353 471.782L669.136 472.439C668.731 472.663 668.283 472.817 667.863 473.013L665.318 474.104C663.582 474.73 661.807 475.24 660.003 475.628C655.668 476.557 651.247 477.025 646.813 477.027H645.736C643.107 477.027 640.477 476.817 637.862 476.537C630.481 475.608 623.224 473.868 616.225 471.348C609.231 468.929 602.336 465.949 595.482 462.956C588.661 459.87 581.654 457.212 574.502 454.998C567.327 452.942 559.676 451.823 552.25 453.278C549.887 453.753 547.6 454.548 545.452 455.641C545.312 455.921 545.172 456.215 545.046 456.495C547.345 455.269 549.809 454.383 552.361 453.865C559.663 452.466 567.215 453.557 574.321 455.613C581.431 457.835 588.396 460.497 595.175 463.586C602.028 466.537 608.882 469.53 615.945 471.978C623.013 474.534 630.338 476.312 637.792 477.279C640.254 477.558 642.715 477.74 645.177 477.782C645.541 477.782 645.89 477.782 646.254 477.782C650.95 477.858 655.641 477.417 660.241 476.467C662.08 476.061 663.892 475.543 665.667 474.915L668.269 473.796C668.703 473.6 669.136 473.446 669.556 473.223L670.801 472.551C672.71 471.578 674.543 470.46 676.283 469.208L677.011 468.691C677.738 468.159 678.409 467.6 679.193 467.04L677.92 466.873ZM617.022 364.155C616.42 363.623 615.833 363.106 615.246 362.56L614.49 363.05L616.448 364.798C621.002 368.875 625.865 372.593 630.995 375.917C630.995 375.568 630.995 375.218 630.995 374.882C626.085 371.675 621.424 368.103 617.05 364.196L617.022 364.155ZM625.526 380.939L622.728 381.12C621.805 381.19 620.882 381.12 619.931 381.12H617.134L614.336 380.897C610.638 380.675 606.977 380.028 603.427 378.966C601.874 378.505 600.336 377.973 598.825 377.358L598.489 377.736L598.168 378.099C599.798 378.783 601.465 379.376 603.161 379.876C612.02 382.241 621.271 382.755 630.337 381.386C630.337 381.036 630.435 380.701 630.491 380.351C628.938 380.659 627.246 380.855 625.554 380.98L625.526 380.939ZM669.668 512.497C662.145 512.236 654.644 513.442 647.583 516.05C640.584 518.711 633.9 522.135 627.652 526.26C624.155 528.526 620.742 530.904 617.371 533.351L617.917 533.505C621.19 531.141 624.505 528.861 627.903 526.694C634.129 522.597 640.79 519.206 647.765 516.581C654.758 514.021 662.183 512.848 669.626 513.127C670.591 513.224 671.556 513.28 672.521 513.364L672.787 512.777C671.794 512.693 670.731 512.637 669.696 512.539L669.668 512.497Z" fill="white"/>
<path d="M645.723 531.603C646.856 529.449 647.947 527.295 649.037 525.127C651.229 520.735 653.411 516.334 655.583 511.924C659.891 503.168 663.975 494.3 667.905 485.349C670.157 480.286 672.605 475.279 674.633 470.117C674.657 470.066 674.66 470.006 674.64 469.952C674.62 469.899 674.58 469.855 674.528 469.831C674.476 469.807 674.417 469.804 674.363 469.824C674.309 469.843 674.266 469.884 674.241 469.936C671.822 474.202 669.724 478.663 667.486 483.041C665.248 487.419 662.968 491.755 660.814 496.175C656.525 504.93 652.366 513.756 648.338 522.651C647.205 525.141 645.974 527.603 644.953 530.148C644.422 531.449 643.806 532.708 643.289 534.023C642.771 535.337 642.38 536.68 641.89 537.981C641.884 537.995 641.88 538.009 641.88 538.025C641.879 538.04 641.881 538.055 641.886 538.069C641.892 538.084 641.9 538.097 641.91 538.108C641.92 538.119 641.932 538.128 641.946 538.135C641.96 538.141 641.975 538.145 641.99 538.145C642.005 538.146 642.02 538.144 642.035 538.139C642.049 538.133 642.062 538.125 642.073 538.115C642.085 538.105 642.094 538.092 642.1 538.079C643.233 535.911 644.562 533.813 645.723 531.603Z" fill="#263238"/>
<path d="M661.57 538.904L659.234 544.191L659.164 544.359H658.94C647.933 542.317 636.995 539.869 626.127 537.142C615.26 534.414 604.476 531.323 593.804 527.882C583.094 524.497 572.591 520.49 562.348 515.882C557.209 513.57 552.244 510.887 547.494 507.853C545.124 506.308 542.884 504.573 540.795 502.664C538.641 500.818 536.99 498.455 535.997 495.797C537.234 498.293 539.04 500.463 541.27 502.133C543.478 503.829 545.822 505.34 548.278 506.651C553.136 509.351 558.152 511.757 563.299 513.854C573.579 518.12 584.139 521.756 594.755 525.169C605.371 528.582 616.085 531.757 626.827 534.806C637.568 537.855 648.352 540.876 659.15 543.771L658.87 543.911L661.57 538.904Z" fill="#263238"/>
<path d="M691.012 471.502L692.172 468.495L692.298 468.705C680.633 467.936 668.983 466.999 657.332 465.782C645.681 464.565 634.1 463.236 622.519 461.502C619.624 461.054 616.728 460.579 613.833 460.019C612.434 459.725 610.938 459.446 609.441 459.026C609.078 458.914 608.7 458.802 608.294 458.648C608.062 458.573 607.837 458.474 607.623 458.355C607.46 458.267 607.305 458.164 607.162 458.047C607.011 457.921 606.883 457.769 606.784 457.599C606.727 457.49 606.676 457.378 606.63 457.264C606.622 457.208 606.622 457.152 606.63 457.096C606.574 456.563 606.602 456.025 606.714 455.501C606.784 455.124 606.854 454.718 606.952 454.369C608.434 448.564 610.309 443.081 612.211 437.585C616.015 426.521 620.155 415.598 624.519 404.744C621.148 415.933 617.693 427.123 614.253 438.312C612.602 443.907 610.784 449.501 609.511 455.096C609.427 455.446 609.385 455.767 609.315 456.103C609.246 456.439 609.315 456.83 609.246 456.69C609.23 456.616 609.201 456.545 609.162 456.481C609.162 456.341 608.91 456.201 608.966 456.229C609.022 456.257 608.896 456.229 608.966 456.229L609.315 456.369L610.239 456.662C611.637 457.026 613.036 457.292 614.435 457.572C617.232 458.089 620.155 458.537 623.022 458.97C628.785 459.837 634.557 460.653 640.338 461.418L657.695 463.754C669.262 465.292 680.829 466.943 692.396 468.635H692.606L692.522 468.817L691.012 471.502Z" fill="#263238"/>
<path d="M625.764 411.891C624.945 413.865 623.908 415.742 622.673 417.486C621.513 419.271 620.1 420.878 618.477 422.255C619.54 420.395 620.672 418.633 621.875 416.884C623.047 415.126 624.346 413.457 625.764 411.891Z" fill="#263238"/>
<path d="M659.653 386.072C649.779 388.869 631.988 374.421 624.687 362.378C624.183 361.553 626.169 327.537 625.862 320.754C625.862 319.355 668.857 329.146 668.857 329.146C668.857 329.146 665.318 343.552 665.933 355.371C665.975 356.378 669.178 383.358 659.653 386.072Z" fill="#AD6359"/>
<path d="M625.204 342.056C645.331 356.266 664.94 350.811 665.765 350.559C666.096 343.35 667.094 336.186 668.745 329.16C668.745 329.16 625.666 319.369 625.736 320.768C625.987 323.943 625.638 333.118 625.204 342.056Z" fill="#263238"/>
<path d="M668.647 301.131C669.752 311.173 677.794 318.53 686.592 317.551C695.389 316.572 701.641 307.662 700.578 297.634C699.515 287.605 691.445 280.234 682.634 281.214C673.822 282.193 667.542 291.102 668.647 301.131Z" fill="#455A64"/>
<path d="M663.556 302.333C664.786 313.523 673.724 321.677 683.514 320.6C693.305 319.523 700.298 309.607 699.026 298.431C697.753 287.256 688.871 279.088 679.067 280.165C669.262 281.242 662.325 291.172 663.556 302.333Z" fill="#C7C7C7"/>
<path d="M619.903 269.647C615.204 284.724 622.91 328.391 633.582 338.181C649.065 352.378 674.549 353.874 686.634 335.244C698.355 317.173 687.305 260.457 675.36 251.548C657.779 238.4 626.841 247.394 619.903 269.647Z" fill="#AD6359"/>
<path d="M656.185 297.06C656.185 296.963 655.989 297.242 656.017 297.368C656.66 300.277 656.926 303.732 654.465 305.215C654.381 305.215 654.465 305.41 654.465 305.369C657.667 304.292 657.276 299.718 656.185 297.06Z" fill="#263238"/>
<path d="M652.981 294.501C648.198 295.046 649.639 304.585 654.072 304.082C658.506 303.578 656.996 294.053 652.981 294.501Z" fill="#263238"/>
<path d="M673.164 294.767C673.164 294.655 673.416 294.879 673.43 295.004C673.78 297.97 674.689 301.299 677.5 301.886C677.584 301.886 677.612 302.054 677.5 302.054C674.158 302.082 673.025 297.634 673.164 294.767Z" fill="#263238"/>
<path d="M675.332 291.256C680.032 290.179 681.836 299.648 677.486 300.655C673.136 301.662 671.36 292.193 675.332 291.256Z" fill="#263238"/>
<path d="M648.562 290.71C649.762 290.157 650.929 289.536 652.059 288.85C653.38 288.367 654.505 287.463 655.262 286.277C655.425 285.857 655.446 285.394 655.319 284.962C655.193 284.529 654.926 284.15 654.562 283.885C653.766 283.467 652.873 283.271 651.975 283.315C651.078 283.359 650.208 283.643 649.457 284.137C647.771 284.897 646.43 286.258 645.695 287.955C645.548 288.351 645.519 288.781 645.614 289.193C645.708 289.605 645.92 289.98 646.225 290.273C646.529 290.566 646.913 290.763 647.328 290.841C647.743 290.918 648.172 290.873 648.562 290.71Z" fill="#263238"/>
<path d="M678.353 285.927C677.032 285.862 675.716 285.726 674.409 285.521C673.005 285.574 671.623 285.161 670.479 284.347C670.164 284.02 669.968 283.598 669.919 283.147C669.871 282.696 669.975 282.243 670.213 281.857C670.799 281.173 671.555 280.656 672.405 280.359C673.255 280.062 674.168 279.995 675.052 280.165C676.898 280.241 678.649 281.004 679.962 282.304C680.243 282.616 680.428 283.002 680.495 283.416C680.561 283.831 680.506 284.255 680.336 284.639C680.165 285.022 679.887 285.348 679.535 285.577C679.184 285.806 678.773 285.927 678.353 285.927Z" fill="#263238"/>
<path d="M657.807 324.74C658.618 325.327 659.471 326.139 660.604 326.139C661.7 325.954 662.744 325.539 663.667 324.922C663.684 324.901 663.708 324.888 663.734 324.886C663.761 324.883 663.787 324.891 663.807 324.908C663.828 324.924 663.841 324.949 663.843 324.975C663.846 325.001 663.838 325.027 663.821 325.048C663.489 325.695 662.987 326.239 662.368 326.621C661.749 327.003 661.038 327.209 660.311 327.216C659.686 327.152 659.094 326.904 658.611 326.503C658.127 326.102 657.775 325.566 657.597 324.964C657.471 324.824 657.681 324.656 657.807 324.74Z" fill="#263238"/>
<path d="M659.569 315.439C660.496 316.492 661.63 317.343 662.901 317.938C664.172 318.532 665.552 318.858 666.954 318.894C668.183 318.942 669.412 318.815 670.605 318.516C670.835 318.474 671.06 318.408 671.276 318.32C671.489 318.266 671.699 318.2 671.906 318.124C672.059 318.073 672.191 317.972 672.282 317.838C672.373 317.704 672.418 317.545 672.409 317.383C672.401 317.282 672.377 317.183 672.339 317.089V316.837C672.045 314.558 671.304 311.131 671.304 311.131C672.199 311.425 676.731 312.683 676.479 311.509C674.409 301.718 672.101 290.92 667.975 281.675C667.947 281.614 667.898 281.565 667.837 281.537C667.777 281.509 667.708 281.504 667.643 281.523C667.579 281.542 667.523 281.583 667.487 281.639C667.45 281.695 667.435 281.762 667.444 281.829C669.066 291.27 672.339 300.361 674.129 309.802C672.517 309.329 670.845 309.089 669.164 309.089C668.856 309.229 670.717 315.677 670.759 316.712C670.768 316.748 670.768 316.787 670.759 316.824C667.01 317.887 663.961 317.173 659.863 315.173C659.555 315.033 659.359 315.229 659.569 315.439Z" fill="#263238"/>
<path d="M669.08 317.565C668.086 319.375 666.64 320.898 664.884 321.985C663.904 322.543 662.777 322.787 661.653 322.684C659.206 322.418 658.856 320.264 658.968 318.348C659.061 317.329 659.272 316.325 659.597 315.355C662.443 317.082 665.765 317.856 669.08 317.565Z" fill="#263238"/>
<path d="M664.87 322.027C663.89 322.585 662.763 322.829 661.64 322.726C659.192 322.46 658.842 320.306 658.954 318.39C661.57 318.222 664.283 319.565 664.87 322.027Z" fill="#FF99BA"/>
<path opacity="0.2" d="M627.064 285.158C625.344 289.494 621.805 299.676 619.791 300.389C617.875 286.235 617.805 273.395 621.316 265.507C622.768 262.248 624.806 259.285 627.33 256.765C627.624 260.555 628.897 280.626 627.064 285.158Z" fill="#263238"/>
<path d="M664.898 264.919C663.701 266.995 661.99 268.728 659.931 269.953C657.871 271.177 655.531 271.852 653.136 271.912C650.697 271.976 648.283 271.416 646.121 270.285C643.96 269.154 642.123 267.49 640.785 265.451C640.778 265.438 640.768 265.426 640.757 265.417C640.745 265.408 640.731 265.402 640.717 265.398C640.703 265.394 640.688 265.393 640.673 265.395C640.659 265.396 640.644 265.401 640.632 265.409C640.619 265.416 640.607 265.426 640.598 265.437C640.589 265.449 640.583 265.463 640.579 265.477C640.575 265.491 640.574 265.506 640.576 265.521C640.577 265.535 640.582 265.55 640.59 265.562C641.806 267.839 643.622 269.739 645.841 271.058C648.059 272.377 650.597 273.064 653.178 273.045C655.706 272.903 658.152 272.097 660.271 270.71C662.39 269.323 664.106 267.403 665.248 265.143C665.278 265.096 665.288 265.04 665.276 264.986C665.264 264.933 665.231 264.886 665.185 264.856C665.139 264.826 665.082 264.816 665.029 264.828C664.975 264.84 664.928 264.873 664.898 264.919Z" fill="#263238"/>
<path d="M694.074 242.415C692.06 238.698 688.794 235.814 684.857 234.274C679.402 232.12 673.934 233.561 668.521 235.113C668.491 235.113 668.463 235.125 668.442 235.146C668.421 235.167 668.409 235.196 668.409 235.225C668.409 235.255 668.421 235.283 668.442 235.304C668.463 235.325 668.491 235.337 668.521 235.337C673.122 234.036 677.878 232.987 682.577 234.414C686.467 235.578 689.836 238.048 692.116 241.407C694.34 244.886 695.237 249.049 694.644 253.135C694.051 257.221 692.007 260.957 688.885 263.66C687.046 265.17 684.917 266.287 682.629 266.944C680.342 267.601 677.944 267.782 675.584 267.479C675.402 267.479 675.318 267.73 675.514 267.758C678.727 268.303 682.028 267.942 685.047 266.714C688.066 265.487 690.682 263.442 692.603 260.809C694.524 258.177 695.673 255.061 695.92 251.811C696.168 248.562 695.504 245.308 694.005 242.415H694.074Z" fill="#263238"/>
<path d="M618.63 278.36C618.63 278.36 608.518 265.367 613.413 255.982C616.211 250.653 628.253 249.184 628.253 249.184C628.253 249.184 631.051 243.016 640.576 239.016C650.1 235.016 662.954 237.365 662.954 237.365C662.954 237.365 671.5 230.26 681.291 233.785C694.942 238.708 696.676 257.884 685.263 266.136C677.235 271.94 663.975 266.262 663.975 266.262C662.856 266.611 652.366 275.731 641.681 266.821C641.681 266.821 635.596 274.486 628.337 271.129C627.65 273.181 626.352 274.973 624.617 276.266C622.882 277.559 620.793 278.289 618.63 278.36Z" fill="#263238"/>
<path d="M629.008 305.242C629.008 305.242 618.952 291.256 612.602 294.878C606.252 298.501 614.001 318.824 621.498 321.453C622.439 321.867 623.454 322.087 624.483 322.099C625.511 322.111 626.531 321.915 627.482 321.524C628.433 321.132 629.295 320.552 630.017 319.819C630.738 319.085 631.304 318.214 631.68 317.257L629.008 305.242Z" fill="#AD6359"/>
<path d="M614.952 300.669C614.826 300.669 614.812 300.823 614.952 300.865C620.253 302.935 623.092 307.774 625.106 312.809C623.512 310.879 621.372 309.844 618.784 311.746C618.644 311.844 618.784 312.054 618.924 312.026C619.846 311.732 620.835 311.729 621.758 312.017C622.682 312.305 623.494 312.869 624.085 313.635C625.08 314.936 625.929 316.343 626.617 317.831C626.869 318.292 627.708 318.026 627.526 317.495V317.369C627.526 310.572 622.169 301.242 614.952 300.669Z" fill="#263238"/>
<path d="M620.63 295.452C620.63 295.452 615.19 273.773 619.428 260.485C624.141 245.715 641.918 231.253 662.926 237.393C662.926 237.393 639.61 240.4 628.281 259.884C623.078 268.835 628.071 294.683 628.071 294.683L620.63 295.452Z" fill="#C7C7C7"/>
<path d="M643.205 302.753C645.331 313.942 639.135 324.488 629.344 326.362C619.554 328.237 609.875 320.768 607.735 309.578C605.595 298.389 611.805 287.843 621.596 285.969C631.386 284.095 641.065 291.592 643.205 302.753Z" fill="#C7C7C7"/>
<path d="M637.918 303.117C639.834 313.145 634.254 322.698 625.456 324.334C616.658 325.971 607.959 319.229 606.043 309.215C604.126 299.2 609.693 289.633 618.491 287.997C627.288 286.361 635.988 293.074 637.918 303.117Z" fill="#455A64"/>
<path d="M82.9408 549.464H254.501L220.29 350.475H92.0042L82.9408 549.464Z" fill="#DBDBDB"/>
<path d="M82.9408 549.464H97.9765L106.424 350.475H92.0042L82.9408 549.464Z" fill="#A6A6A6"/>
<path d="M184.624 263.688C168.693 279.535 164.119 305.648 164.119 305.648C164.119 305.648 148.846 331.929 153.112 346.21C154.24 350.259 156.334 353.974 159.213 357.036C162.093 360.098 165.672 362.416 169.644 363.791L168.134 355.902C168.134 355.902 173.253 366.043 190.358 370.127C207.464 374.211 230.095 368.952 241.871 362.994C248.851 359.499 254.807 354.257 259.159 347.776L254.753 359.245C254.753 359.245 271.355 358.658 281.216 340.993C291.076 323.327 262.753 297.942 260.348 292.473C257.942 287.004 254.893 247.156 212.975 254.024C213.031 253.926 195.645 252.779 184.624 263.688Z" fill="#263238"/>
<path d="M163.644 362.658C159.28 359.399 154.972 355.665 152.566 351.049C149.943 346.265 149.012 340.735 149.923 335.356C151.084 328.908 154.483 323.216 157.783 317.663C161.084 312.11 165.057 306.473 168.371 300.641C168.553 300.319 168.064 300.054 167.84 300.305C164.115 304.679 160.641 309.26 157.434 314.026C154.152 318.384 151.392 323.111 149.21 328.111C147.17 332.714 146.499 337.808 147.28 342.783C148.105 346.826 149.9 350.609 152.511 353.804C155.602 357.651 159.504 360.112 163.42 363.008C163.644 363.189 163.882 362.84 163.644 362.658Z" fill="#263238"/>
<path d="M284.81 322.726C279.775 308.054 266.628 298.739 258.557 285.941C254.222 279.018 250.851 271.353 245.2 265.339C245.046 265.171 244.767 265.437 244.906 265.605C249.55 271.017 252.235 277.535 255.592 283.787C259.169 289.94 263.348 295.721 268.068 301.047C276.376 311.005 286.321 322.796 284.419 336.741C283.538 343.175 279.733 350.308 273.132 352.308C272.88 352.392 273.034 352.811 273.285 352.699C275.889 351.654 278.252 350.089 280.231 348.101C282.21 346.112 283.764 343.741 284.796 341.133C287.021 335.2 287.026 328.662 284.81 322.726Z" fill="#263238"/>
<path d="M285.412 326.67C285.866 321.113 284.586 315.552 281.747 310.753C278.852 306.026 274.306 302.613 269.761 299.564C264.516 296.081 258.991 292.767 255.662 287.242C255.522 287.004 255.187 287.242 255.313 287.48C260.599 296.599 270.698 300.851 277.453 308.53C285.216 317.299 285.23 330.069 279.887 340.097C276.492 346.21 271.699 351.434 265.9 355.343C265.803 355.343 265.9 355.553 266.012 355.483C275.901 348.993 284.615 339.006 285.412 326.67Z" fill="#263238"/>
<path d="M222.024 393.513C264.474 416.814 315.287 446.06 346.422 439.179C360.226 436.13 422.215 354.867 424.845 345.468C427.097 337.398 370.968 304.907 364.702 311.271C354.128 321.943 325.54 382.03 321.344 383.037C317.148 384.044 281.51 376.812 244.417 370.113C208.723 363.707 192.554 377.344 222.024 393.513Z" fill="#EB9481"/>
<path d="M418.817 355.595C423.656 349.496 443.405 319.593 447.028 310.04C450.65 300.487 459.126 272.276 452.105 268.723C445.084 265.171 441.979 273.213 441.979 273.213C441.979 273.213 443.671 260.723 436.272 257.828C428.873 254.933 424.397 267.619 424.397 267.619C424.397 267.619 425.195 254.667 417.6 252.233C410.005 249.799 407.655 263.423 407.655 263.423C407.655 263.423 408.942 251.618 401.865 252.233C393.361 253.058 393.473 275.101 388.661 285.34C387.57 287.661 363.192 330.908 363.192 330.908L418.817 355.595Z" fill="#EB9481"/>
<path d="M407.823 262.318C407.823 278.528 405.026 285.633 396.634 299.145C396.466 299.396 396.816 299.704 397.025 299.452C406.536 286.976 411.32 278.584 408.662 262.276C408.48 261.478 407.823 261.548 407.823 262.318Z" fill="#263238"/>
<path d="M424.313 266.346C422.915 283.13 419.922 290.906 412.075 305.718C411.963 305.928 412.313 306.138 412.439 305.928C421.348 292.053 425.936 283.549 425.153 266.556C425.194 265.786 424.383 265.577 424.313 266.346Z" fill="#263238"/>
<path d="M441.503 273.955C438.943 290.151 436.062 298.767 426.607 312.166C426.582 312.196 426.564 312.231 426.553 312.269C426.541 312.306 426.537 312.346 426.541 312.385C426.545 312.424 426.557 312.461 426.575 312.496C426.594 312.53 426.619 312.561 426.649 312.586C426.679 312.61 426.714 312.629 426.752 312.64C426.789 312.652 426.829 312.655 426.868 312.652C426.907 312.648 426.944 312.636 426.979 312.618C427.013 312.599 427.044 312.574 427.069 312.544C438.048 299.816 441.727 289.102 441.993 274.08C441.979 273.073 441.671 272.933 441.503 273.955Z" fill="#263238"/>
<path d="M351.177 335.804C351.177 335.804 349.989 315.537 351.443 306.516C352.898 297.494 370.647 265.856 377.64 269.297C386.745 273.759 380.088 294.039 375.528 303.55C375.528 303.55 396.592 313.817 394.97 329.412C393.347 345.007 351.177 335.804 351.177 335.804Z" fill="#EB9481"/>
<path d="M379.794 271.339C385.165 281.395 378.395 293.494 374.647 303.047C374.586 303.185 374.559 303.335 374.568 303.486C374.578 303.637 374.624 303.783 374.702 303.912C374.781 304.041 374.889 304.149 375.018 304.228C375.147 304.306 375.293 304.352 375.444 304.361C383.99 309.257 394.62 318.656 395.529 329.006C395.529 329.069 395.554 329.129 395.598 329.174C395.643 329.219 395.704 329.244 395.767 329.244C395.83 329.244 395.89 329.219 395.935 329.174C395.979 329.129 396.004 329.069 396.004 329.006C396.536 317.817 386.843 307.69 377.15 302.921C381.123 293.13 387.403 280.752 379.948 271.283C379.85 271.241 379.766 271.283 379.794 271.339Z" fill="#263238"/>
<path d="M311.245 379.722L260.152 422.549C260.152 422.549 228.962 406.324 205.926 387.68C182.89 369.036 208.401 359.972 247.956 366.616C287.51 373.26 311.245 379.722 311.245 379.722Z" fill="#0081FF"/>
<path d="M250.725 388.323C249.277 386.347 247.601 384.549 245.732 382.967C247.801 387.413 250.79 391.37 254.501 394.576C253.499 392.347 252.231 390.248 250.725 388.323ZM205.968 387.708L206.583 388.184C206.989 387.75 207.394 387.288 207.772 386.785C207.129 387.079 206.527 387.386 205.94 387.764L205.968 387.708ZM291.496 387.988C289.079 387.633 286.629 387.558 284.195 387.764C286.478 388.626 288.853 389.222 291.272 389.54C293.688 389.907 296.139 389.987 298.573 389.778C296.282 388.908 293.898 388.308 291.468 387.988H291.496ZM274.39 371.428C274.359 372.361 274.392 373.296 274.488 374.225C274.829 373.386 275.119 372.526 275.356 371.651L274.39 371.428Z" fill="white"/>
<path d="M248.711 413.402C259.103 403.415 270.208 394.142 281.468 385.107C284.657 382.561 287.902 380.071 291.258 377.68C291.356 377.61 291.482 377.68 291.384 377.806C286.097 382.687 280.601 387.344 275.132 392.03C269.663 396.716 264.124 401.401 258.516 405.947C255.341 408.52 252.18 411.094 248.963 413.597C248.767 413.695 248.585 413.527 248.711 413.402Z" fill="#263238"/>
<path d="M281.859 404.352L260.138 422.535C260.138 422.535 228.948 406.324 205.912 387.68C197.729 381.064 195.673 375.666 198.177 371.735L281.859 404.352Z" fill="#263238"/>
<path d="M271.341 549.296H108.522C108.522 549.296 143.895 412.688 176.638 374.225C177.365 373.344 178.12 372.504 178.875 371.721C179.029 371.539 179.169 371.414 179.323 371.26C181.858 368.552 184.809 366.267 188.065 364.49C188.638 364.182 189.212 363.889 189.813 363.637C202.401 357.832 215.744 362.644 225.353 370.868C228.402 373.47 262.921 418.423 265.914 435.5C268.558 450.62 258.348 466.859 258.348 466.859L271.341 549.296Z" fill="#0081FF"/>
<path d="M233.955 461.012C227.022 461.688 220.15 462.881 213.394 464.579C210.038 465.474 206.765 466.509 203.478 467.614C201.841 468.173 200.205 468.677 198.555 469.166C196.836 469.725 195.056 470.073 193.254 470.201C193.22 470.201 193.188 470.215 193.165 470.238C193.141 470.262 193.128 470.294 193.128 470.327C193.128 470.361 193.141 470.393 193.165 470.416C193.188 470.44 193.22 470.453 193.254 470.453C194.961 470.525 196.672 470.479 198.373 470.313C200.011 470.108 201.632 469.791 203.226 469.362C206.639 468.481 209.996 467.46 213.394 466.565C220.248 464.747 227.087 462.928 234.053 461.6C234.131 461.587 234.2 461.543 234.246 461.479C234.292 461.415 234.311 461.335 234.298 461.257C234.285 461.179 234.241 461.109 234.177 461.064C234.113 461.018 234.033 460.999 233.955 461.012Z" fill="#263238"/>
<path d="M251.159 467.013C245.437 466.463 239.688 466.234 233.941 466.327C231.144 466.397 228.22 466.621 225.353 466.915C223.954 467.068 222.556 467.236 221.269 467.418C219.982 467.6 218.304 468.02 216.807 468.201C216.653 468.201 216.653 468.467 216.807 468.453C218.206 468.327 219.675 468.453 221.101 468.383L225.395 468.229C228.192 468.145 231.116 468.075 233.983 467.95C239.717 467.712 245.438 467.53 251.173 467.474C251.48 467.488 251.452 467.04 251.159 467.013Z" fill="#263238"/>
<path d="M161.168 406.338C160.399 405.359 159.616 404.394 158.763 403.541L158.161 404.8C158.721 405.667 159.322 406.52 159.937 407.345C161.386 409.308 163.062 411.092 164.931 412.66C163.91 410.423 162.648 408.303 161.168 406.338ZM180.064 370.505C179.779 372.689 179.732 374.898 179.924 377.092C180.793 374.799 181.38 372.408 181.673 369.973C181.673 369.609 181.771 369.232 181.813 368.868C181.225 369.386 180.638 369.931 180.064 370.505ZM229.479 416.017C228.608 418.308 228.007 420.692 227.689 423.122C227.336 425.544 227.257 427.998 227.451 430.437C228.329 428.151 228.921 425.764 229.213 423.332C229.597 420.913 229.687 418.457 229.479 416.017ZM198.359 494.79C197.497 497.072 196.905 499.447 196.596 501.867C196.242 504.289 196.167 506.743 196.373 509.182C198.035 504.577 198.712 499.674 198.359 494.79ZM145.461 435.319C144.607 437.618 144.016 440.006 143.699 442.438C143.343 444.855 143.268 447.305 143.475 449.739C144.331 447.446 144.918 445.062 145.223 442.634C145.59 440.213 145.67 437.758 145.461 435.319ZM189.239 425.332C186.822 424.977 184.373 424.902 181.938 425.108C184.222 425.97 186.596 426.566 189.016 426.885C191.432 427.251 193.882 427.331 196.317 427.123C194.041 426.237 191.671 425.617 189.253 425.276L189.239 425.332ZM247.816 492.468C245.394 492.113 242.939 492.038 240.501 492.244C245.106 493.907 250.009 494.583 254.893 494.231C252.614 493.367 250.245 492.766 247.83 492.44L247.816 492.468ZM138.468 486.02C136.092 485.676 133.686 485.592 131.293 485.769H131.153H131.279C133.538 486.602 135.884 487.179 138.272 487.489C140.689 487.844 143.139 487.919 145.573 487.713C143.278 486.876 140.894 486.308 138.468 486.02ZM199.897 543.771C197.48 543.417 195.03 543.341 192.596 543.548C197.206 545.213 202.115 545.885 207.003 545.52C204.69 544.666 202.287 544.079 199.841 543.771H199.897ZM133.824 536.694C131.403 536.339 128.948 536.264 126.509 536.47C128.794 537.321 131.168 537.908 133.587 538.219C136.006 538.594 138.463 538.67 140.902 538.442C138.599 537.587 136.205 537.001 133.768 536.694H133.824ZM201.492 390.561C199.522 392.027 197.724 393.711 196.135 395.583C198.367 394.567 200.478 393.305 202.429 391.82C204.395 390.36 206.18 388.67 207.744 386.785C205.527 387.81 203.431 389.076 201.492 390.561ZM218.919 465.432C216.954 466.877 215.169 468.554 213.604 470.425C215.829 469.416 217.928 468.149 219.856 466.649C221.825 465.208 223.61 463.531 225.171 461.656C222.948 462.679 220.85 463.955 218.919 465.46V465.432ZM157.811 511.196C155.835 512.638 154.045 514.32 152.483 516.204C154.699 515.179 156.796 513.912 158.735 512.427C160.701 510.968 162.498 509.293 164.091 507.434C161.846 508.426 159.736 509.7 157.811 511.224V511.196ZM259.299 445.361C257.851 443.385 256.175 441.587 254.305 440.004C256.374 444.451 259.363 448.408 263.075 451.613C262.07 449.395 260.803 447.305 259.299 445.389V445.361ZM238.473 530.078C237.013 528.112 235.338 526.315 233.479 524.721C234.46 526.967 235.724 529.078 237.242 531.001C238.687 532.971 240.363 534.76 242.235 536.33C241.215 534.114 239.953 532.017 238.473 530.078ZM177.155 463.446C175.703 461.473 174.028 459.676 172.162 458.089C173.153 460.332 174.422 462.442 175.938 464.369C177.379 466.342 179.056 468.132 180.931 469.698C179.913 467.478 178.646 465.381 177.155 463.446Z" fill="white"/>
<path d="M173.309 375.288C141.993 400.534 61.7931 500.58 79.8778 523.7C97.9626 546.82 218.164 536.288 253.061 525.351C263.439 522.106 235.13 456.243 223.912 453.208C214.569 450.676 162.763 465.991 161.756 462.998C160.623 459.614 174.554 440.885 192.261 400.31C212.681 353.511 187.142 364.14 173.309 375.288Z" fill="#EB9481"/>
<path d="M280.489 447.711C304.42 450.508 310.14 454.858 331.582 446.466C345.652 440.969 355.205 447.585 344.911 459.46C328.127 478.887 296.461 481.838 285.202 479.657L280.489 447.711Z" fill="#EB9481"/>
<path d="M213.366 454.047C213.366 454.047 243.06 446.368 268.852 446.788C286.699 447.081 325.442 452.047 351.737 498.357C357.975 509.336 359.08 529.421 342.365 515.141C330.505 505.028 326.043 495.028 318.071 490.398C318.071 490.398 316.434 516.092 305.189 521.924C295.353 527.009 285.169 531.389 274.712 535.03C273.604 533.269 272.614 531.438 271.747 529.547C271.747 529.547 260.725 533.995 243.773 527.826L213.366 454.047Z" fill="#EB9481"/>
<path d="M285.845 449.795C292.839 456.061 307.273 469.572 315.217 484.761C324.113 501.629 336.701 536.512 324.183 542.96C315.008 547.687 309.021 534.778 309.021 534.778C309.021 534.778 311.189 550.303 302.028 552.751C293.636 554.988 289.594 544.722 289.594 544.722C289.594 544.722 289.286 554.359 280.782 554.961C270.544 555.66 272.866 535.379 261.872 527.113C259.397 525.253 285.845 449.795 285.845 449.795Z" fill="#EB9481"/>
<path d="M295.888 491.265C301.482 498.259 310.028 517.28 309.301 534.526C309.301 534.918 308.979 535.113 308.923 534.75C306.3 519.816 301.871 505.256 295.734 491.391C295.717 491.371 295.709 491.344 295.712 491.318C295.715 491.292 295.727 491.268 295.748 491.251C295.768 491.235 295.794 491.227 295.821 491.229C295.847 491.232 295.871 491.245 295.888 491.265Z" fill="#263238"/>
<path d="M279.118 500.664C283.314 507.168 291.272 527.239 289.929 544.652C289.929 545.044 289.58 545.212 289.538 544.848C287.689 529.79 284.137 514.991 278.95 500.734C278.95 500.715 278.955 500.696 278.966 500.679C278.977 500.663 278.992 500.65 279.01 500.643C279.028 500.635 279.048 500.633 279.067 500.637C279.087 500.641 279.104 500.65 279.118 500.664Z" fill="#263238"/>
<path d="M318.113 490.286C325.106 494.482 329.008 499.42 334.211 505.476C336.754 508.508 339.463 511.399 342.324 514.133C344.953 516.581 348.827 520.26 352.772 518.511C354.968 517.532 355.569 514.903 355.751 512.721C355.923 510.268 355.565 507.806 354.702 505.504C354.702 505.392 354.87 505.308 354.912 505.434C355.77 507.465 356.335 509.608 356.59 511.798C356.922 513.856 356.625 515.967 355.737 517.854C353.555 521.714 348.52 520.987 345.359 518.959C343.489 517.664 341.751 516.188 340.17 514.553C338.617 513.029 337.135 511.434 335.694 509.812C332.743 506.455 329.987 502.944 327.078 499.573C324.227 496.359 321.172 493.331 317.931 490.51C317.805 490.398 317.973 490.202 318.113 490.286Z" fill="#263238"/>
<path d="M327.008 520.861C326.183 516.064 320.253 495.447 317.903 490.426C317.888 490.4 317.884 490.369 317.892 490.341C317.9 490.312 317.919 490.287 317.945 490.272C317.971 490.257 318.002 490.254 318.03 490.261C318.059 490.269 318.084 490.288 318.099 490.314C322.532 497.406 328.127 514.623 329.106 519.924C330.085 525.225 331.022 531.785 329.666 537.002C327.624 544.862 322.029 545.002 320.001 544.89C317.605 544.715 315.34 543.728 313.581 542.093C311.577 540.003 310.016 537.529 308.993 534.82C308.993 534.694 309.119 534.582 309.189 534.708C311.119 538.512 314.854 542.75 319.273 543.296C320.252 543.447 321.251 543.402 322.212 543.162C323.173 542.921 324.076 542.491 324.868 541.897C326.528 540.308 327.557 538.171 327.763 535.883C328.373 530.869 328.118 525.788 327.008 520.861Z" fill="#263238"/>
<path d="M289.93 544.652C290.783 545.869 292.195 549.715 295.594 551.338C296.776 552.011 298.104 552.388 299.464 552.434C300.823 552.48 302.174 552.195 303.399 551.604C305.735 550.153 307.415 547.851 308.084 545.184C308.65 541.771 308.953 538.32 308.993 534.862C308.993 534.694 309.203 534.68 309.217 534.862C309.653 538.613 309.521 542.409 308.826 546.121C308.497 547.575 307.881 548.949 307.014 550.162C306.147 551.375 305.046 552.403 303.776 553.184C302.432 553.919 300.91 554.267 299.379 554.19C297.849 554.114 296.37 553.616 295.105 552.751C293.832 551.869 290.139 547.883 289.51 544.75C289.524 544.652 289.888 544.596 289.93 544.652Z" fill="#263238"/>
<path d="M262.949 525.882C263.961 527.003 264.838 528.238 265.565 529.561C266.39 530.959 267.173 532.288 267.915 533.687C269.388 536.514 270.564 539.485 271.425 542.554C272.32 545.632 273.02 548.988 275.132 551.52C276.12 552.771 277.478 553.68 279.012 554.117C280.545 554.554 282.178 554.497 283.678 553.954C285.265 553.323 286.585 552.161 287.412 550.667C288.371 549.055 289.012 547.275 289.3 545.422C289.294 545.405 289.292 545.387 289.294 545.369C289.296 545.351 289.303 545.334 289.313 545.319C289.324 545.304 289.337 545.292 289.353 545.284C289.369 545.275 289.387 545.271 289.405 545.271C289.423 545.271 289.441 545.275 289.457 545.284C289.473 545.292 289.487 545.304 289.497 545.319C289.507 545.334 289.514 545.351 289.516 545.369C289.518 545.387 289.516 545.405 289.51 545.422C289.391 547.102 289.1 548.766 288.643 550.387C288.114 551.844 287.212 553.136 286.027 554.135C284.785 555.084 283.306 555.672 281.751 555.835C280.197 555.998 278.627 555.729 277.216 555.058C274.083 553.66 272.32 550.499 271.229 547.366C270.013 543.883 269.201 540.289 267.817 536.848C267.103 535.03 266.418 533.211 265.551 531.463C264.684 529.715 263.481 527.896 262.754 526.022C262.67 525.91 262.837 525.756 262.949 525.882Z" fill="#263238"/>
<path d="M252.026 530.218C256.447 530.857 260.92 531.077 265.383 530.876C265.523 530.876 265.607 531.281 265.467 531.309C263.254 531.724 261.003 531.897 258.753 531.827C256.472 531.731 254.218 531.292 252.068 530.526C251.886 530.428 251.886 530.19 252.026 530.218Z" fill="#263238"/>
<path d="M114.691 477.978C122.167 474.369 129.894 471.303 137.81 468.803C145.644 466.354 153.648 464.484 161.756 463.208C166.385 462.439 171.029 461.893 175.742 461.32C175.882 461.32 175.91 461.516 175.742 461.53C167.595 462.848 159.531 464.632 151.587 466.873C143.68 469.026 135.82 471.325 128.006 473.768C123.586 475.167 119.222 476.733 114.844 478.258C114.691 478.37 114.551 478.076 114.691 477.978Z" fill="#263238"/>
<path d="M107.879 436.032L174.162 443.235C174.162 443.235 191.072 412.464 199.869 384.113C208.667 355.763 183.687 361.273 154.497 388.757C125.307 416.241 107.879 436.032 107.879 436.032Z" fill="#0081FF"/>
<path d="M107.879 436.032L174.162 443.235C174.162 443.235 191.072 412.464 199.869 384.113C208.667 355.763 183.687 361.273 154.497 388.757C125.307 416.241 107.879 436.032 107.879 436.032Z" fill="#0081FF"/>
<path d="M180.176 369.581C180.183 369.651 180.183 369.721 180.176 369.791C179.821 372.213 179.746 374.667 179.952 377.106C180.821 374.813 181.408 372.422 181.701 369.987C181.701 369.567 181.813 369.162 181.855 368.742L180.176 369.581ZM145.461 435.319C144.854 436.845 144.386 438.422 144.063 440.032L145.461 440.172C145.615 438.558 145.615 436.933 145.461 435.319ZM122.467 420.395L121.824 421.066C122.551 421.066 123.223 421.066 124.02 420.94C123.488 420.731 122.985 420.549 122.467 420.395ZM181.953 425.053C182.344 425.206 182.75 425.36 183.155 425.486C183.228 425.304 183.312 425.126 183.407 424.955C182.932 424.969 182.442 424.997 181.953 425.053ZM161.168 406.338C159.709 404.372 158.034 402.575 156.175 400.981C157.159 403.23 158.423 405.345 159.938 407.275C161.386 409.238 163.063 411.022 164.931 412.59C163.905 410.377 162.644 408.281 161.168 406.338Z" fill="white"/>
<path d="M171.477 442.62C171.84 442.62 174.274 442.62 174.274 442.62C174.568 441.767 180.274 428.633 181.673 425.836C184.554 420.087 187.771 414.493 190.904 408.884C191.002 408.702 191.282 408.884 191.184 409.01C188.974 413.905 186.848 418.8 184.596 423.724C185.155 423.066 185.715 422.409 186.26 421.738C187.365 420.339 188.372 418.94 189.421 417.458C189.519 417.332 189.715 417.458 189.645 417.612C188.644 419.635 187.379 421.516 185.883 423.206C185.248 423.949 184.56 424.645 183.827 425.29C183.645 425.696 183.463 426.116 183.267 426.507C181.869 429.304 174.973 443.403 174.721 443.389L171.532 442.997C171.295 443.053 171.295 442.606 171.477 442.62Z" fill="#263238"/>
<path d="M120.369 424.773C134.748 425.738 149.084 427.71 163.336 429.948C167.383 430.591 171.402 431.323 175.393 432.144C175.505 432.144 175.505 432.34 175.393 432.326C168.232 431.696 161.084 430.773 153.937 429.892C146.79 429.011 139.587 428.06 132.44 426.927C128.412 426.311 124.369 425.696 120.355 425.011C120.187 425.025 120.187 424.759 120.369 424.773Z" fill="#263238"/>
<path d="M196.554 365.525C196.806 368.435 207.632 388.659 220.598 389.904C224.794 390.296 228.024 367.344 228.024 367.344L228.64 365.707L237.354 342.741L212.038 320.852L208.359 317.915C208.359 317.915 206.387 324.349 204.023 332.391C203.911 332.769 203.786 333.146 203.674 333.538C203.562 333.929 203.394 334.419 203.268 334.839C202.904 336.041 202.527 337.258 202.191 338.489C201.925 339.426 201.66 340.335 201.408 341.286C201.156 342.237 200.904 343.245 200.625 344.224C198.785 351.223 197.425 358.34 196.554 365.525Z" fill="#EB9481"/>
<path d="M204.023 332.391C205.465 339.397 208.413 346.006 212.664 351.759C216.915 357.512 222.366 362.271 228.64 365.707L237.354 342.741L212.038 320.852L208.359 317.915C208.359 317.915 206.387 324.349 204.023 332.391Z" fill="#263238"/>
<path d="M245.018 307.467C247.242 317.257 256.054 323.705 264.698 321.761C273.341 319.817 278.53 310.236 276.307 300.389C274.083 290.543 265.271 284.137 256.627 286.095C247.984 288.053 242.795 297.606 245.018 307.467Z" fill="#455A64"/>
<path d="M240.081 309.229C242.571 320.181 252.361 327.3 261.984 325.132C271.607 322.964 277.369 312.32 274.894 301.354C272.418 290.389 262.614 283.284 253.005 285.452C243.396 287.62 237.605 298.249 240.081 309.229Z" fill="#C7C7C7"/>
<path d="M268.362 295.214C280.111 336.685 256.599 348.363 247.648 350.937C239.522 353.231 211.576 360 195.604 319.957C179.631 279.913 195.198 261.338 213.492 255.114C231.787 248.89 256.613 253.73 268.362 295.214Z" fill="#EB9481"/>
<path d="M253.928 289.997C252.943 290.095 251.953 290.137 250.963 290.123C249.922 290.322 248.844 290.169 247.9 289.689C247.631 289.482 247.438 289.19 247.352 288.861C247.266 288.532 247.291 288.184 247.424 287.871C247.781 287.295 248.286 286.825 248.886 286.51C249.486 286.195 250.16 286.047 250.837 286.081C252.215 285.928 253.6 286.292 254.725 287.102C254.968 287.305 255.147 287.574 255.241 287.876C255.336 288.178 255.341 288.501 255.257 288.806C255.173 289.111 255.003 289.385 254.767 289.597C254.532 289.808 254.24 289.947 253.928 289.997Z" fill="#263238"/>
<path d="M226.584 299.648C227.534 299.354 228.468 299.008 229.381 298.613C230.417 298.384 231.35 297.825 232.039 297.019C232.202 296.721 232.263 296.377 232.213 296.041C232.162 295.705 232.003 295.395 231.759 295.158C231.204 294.768 230.556 294.532 229.879 294.476C229.203 294.419 228.525 294.544 227.913 294.837C226.586 295.236 225.455 296.113 224.738 297.298C224.59 297.578 224.527 297.894 224.556 298.209C224.585 298.524 224.704 298.823 224.899 299.072C225.094 299.32 225.357 299.507 225.656 299.609C225.955 299.711 226.277 299.725 226.584 299.648Z" fill="#263238"/>
<path d="M234.976 306.963C234.976 306.851 234.794 307.159 234.836 307.271C235.731 310.068 236.235 313.425 233.997 315.089C233.927 315.089 233.997 315.271 234.067 315.243C237.032 313.914 236.249 309.439 234.976 306.963Z" fill="#263238"/>
<path d="M231.591 304.725C226.948 305.676 229.185 314.879 233.493 313.998C237.801 313.117 235.479 303.928 231.591 304.725Z" fill="#263238"/>
<path d="M229.899 305.648C229.228 306.376 228.654 307.48 227.717 307.816C226.78 308.152 225.535 307.439 224.584 306.683C224.486 306.613 224.416 306.683 224.444 306.837C224.85 308.599 225.969 310.25 227.927 310.054C229.885 309.858 230.57 308.012 230.57 306.124C230.584 305.774 230.179 305.368 229.899 305.648Z" fill="#263238"/>
<path d="M251.326 301.914C251.326 301.802 251.592 301.998 251.606 302.11C252.193 304.991 253.34 308.194 256.152 308.529C256.236 308.529 256.264 308.683 256.152 308.697C252.907 308.991 251.424 304.725 251.326 301.914Z" fill="#263238"/>
<path d="M253.159 298.333C257.662 296.935 260.152 306.026 255.956 307.355C251.76 308.683 249.396 299.522 253.159 298.333Z" fill="#263238"/>
<path d="M255.257 298.403C256.11 298.683 257.061 299.368 257.942 299.186C258.823 299.005 259.425 297.788 259.802 296.655C259.802 296.543 259.942 296.655 259.97 296.655C260.502 298.389 260.432 300.361 258.837 301.159C257.243 301.956 255.858 300.697 254.963 299.075C254.795 298.851 254.907 298.249 255.257 298.403Z" fill="#263238"/>
<path d="M241.438 329.957C242.249 330.503 243.116 331.356 244.235 331.174C245.305 330.942 246.315 330.49 247.2 329.845C247.217 329.825 247.241 329.812 247.267 329.809C247.293 329.807 247.32 329.815 247.34 329.831C247.36 329.848 247.373 329.872 247.376 329.898C247.379 329.925 247.371 329.951 247.354 329.971C247.051 330.618 246.579 331.171 245.989 331.572C245.398 331.973 244.71 332.208 243.997 332.251C243.373 332.22 242.773 332.002 242.274 331.625C241.775 331.249 241.401 330.731 241.2 330.139C241.102 329.985 241.312 329.887 241.438 329.957Z" fill="#263238"/>
<path d="M250.823 315.747C250.823 315.747 252.487 319.845 253.005 321.845C253.005 322.041 246.123 325.397 241.676 321.285C241.629 321.254 241.597 321.205 241.587 321.15C241.576 321.095 241.588 321.038 241.62 320.992C241.651 320.945 241.7 320.913 241.755 320.903C241.81 320.892 241.867 320.904 241.913 320.936C244.913 322.028 248.185 322.121 251.242 321.201C251.242 320.614 248.137 314.278 248.445 314.208C250.035 313.947 251.654 313.9 253.257 314.068C250.012 305.438 245.424 297.396 242.333 288.738C242.306 288.674 242.303 288.602 242.326 288.537C242.349 288.471 242.396 288.416 242.457 288.383C242.518 288.349 242.589 288.34 242.657 288.357C242.725 288.373 242.784 288.415 242.822 288.473C248.235 296.571 252.18 306.432 255.746 315.257C256.222 316.334 251.76 315.886 250.823 315.747Z" fill="#263238"/>
<path d="M251.229 322.167C250.486 324.023 249.282 325.659 247.732 326.922C246.862 327.575 245.812 327.946 244.725 327.985C242.333 327.985 241.704 326.013 241.62 324.153C241.586 323.168 241.666 322.182 241.857 321.215C244.799 322.527 248.084 322.86 251.229 322.167Z" fill="#263238"/>
<path d="M247.732 326.922C246.861 327.575 245.812 327.946 244.725 327.985C242.333 327.985 241.704 326.013 241.62 324.153C244.067 323.719 246.865 324.67 247.732 326.922Z" fill="#FF99BA"/>
<path d="M197.604 318.572C205.632 319.089 206.555 300.725 206.555 300.725C206.555 300.725 240.123 292.906 241.326 265.101C241.326 265.101 248.221 282.36 266.502 289.242C266.502 289.242 263.467 259.031 239.102 254.611C239.102 254.611 208.639 245.576 193.324 270.248C178.008 294.921 192.219 318.222 197.604 318.572Z" fill="#263238"/>
<path d="M241.326 263.045C241.989 267.287 241.736 271.622 240.585 275.759C239.498 279.963 237.545 283.893 234.85 287.298C234.189 288.154 233.475 288.967 232.71 289.731L231.591 290.92C231.2 291.284 230.78 291.62 230.36 291.969C229.521 292.641 228.71 293.368 227.843 293.997C226.976 294.627 226.025 295.144 225.045 295.704C224.584 295.969 224.136 296.263 223.647 296.515L222.248 297.186L219.325 298.515C217.311 299.214 215.269 299.802 213.241 300.361C215.129 299.396 217.087 298.627 218.947 297.662L221.675 296.123L223.073 295.354C223.507 295.074 223.913 294.753 224.332 294.445C225.171 293.829 226.011 293.228 226.864 292.641C227.717 292.053 228.402 291.242 229.172 290.613L230.332 289.591L231.367 288.445C232.079 287.71 232.747 286.935 233.368 286.123C235.909 282.88 237.882 279.229 239.2 275.325C239.875 273.365 240.389 271.354 240.738 269.311C241.11 267.242 241.307 265.146 241.326 263.045Z" fill="#263238"/>
<path d="M203.59 318.138C203.59 318.138 191.813 306.683 186.456 311.145C181.099 315.607 191.715 333.426 199.254 334.685C200.209 334.914 201.201 334.948 202.17 334.785C203.139 334.621 204.065 334.264 204.892 333.733C205.719 333.203 206.43 332.511 206.983 331.698C207.535 330.886 207.918 329.97 208.107 329.006L203.59 318.138Z" fill="#EB9481"/>
<path d="M189.631 316.166C189.605 316.166 189.58 316.177 189.562 316.195C189.544 316.213 189.533 316.238 189.533 316.264C189.533 316.29 189.544 316.315 189.562 316.333C189.58 316.352 189.605 316.362 189.631 316.362C194.96 317.411 198.429 321.495 201.17 325.887C199.352 324.349 197.156 323.733 195.044 325.887C194.932 326.013 195.044 326.181 195.226 326.125C196.043 325.685 196.976 325.508 197.897 325.618C198.818 325.728 199.683 326.12 200.373 326.74C201.521 327.782 202.553 328.945 203.45 330.209C203.758 330.615 204.513 330.209 204.247 329.747L204.177 329.635C203.086 323.425 196.499 315.509 189.631 316.166Z" fill="#263238"/>
<path d="M195.534 312.306C195.534 312.306 187.897 291.955 190.54 278.668C193.478 263.87 211.814 246.988 232.78 253.31C232.78 253.31 207.842 257.045 199.03 277.088C194.974 286.319 202.639 310.753 202.639 310.753L195.534 312.306Z" fill="#C7C7C7"/>
<path d="M207.311 341.309C216.567 338.427 221.406 327.534 218.119 316.98C214.832 306.426 204.663 300.208 195.408 303.091C186.152 305.973 181.313 316.866 184.6 327.42C187.888 337.974 198.056 344.192 207.311 341.309Z" fill="#C7C7C7"/>
<path d="M213.073 317.831C216.024 327.314 211.674 337.104 203.282 339.692C194.89 342.279 185.827 336.699 182.862 327.216C179.896 317.733 184.26 307.942 192.652 305.341C201.044 302.739 210.122 308.404 213.073 317.831Z" fill="#455A64"/>
<path d="M228.542 365.847L220.849 385.26L196.653 360.854L189.869 368.742C189.869 368.742 213.646 407.597 213.73 405.835L221.647 389.051L233.228 400.618L232.179 371.497L228.542 365.847Z" fill="#EBEBEB"/>
<path d="M233.577 386.211C233.228 381.414 233.032 376.547 232.472 371.763C232.472 371.595 232.179 371.525 232.137 371.763C231.199 376.407 232.584 394.799 232.584 399.205C232.109 398.702 221.856 389.023 221.758 389.177C220.038 391.834 214.234 404.031 213.842 405.135C210.08 398.967 194.163 374.645 189.729 368.77C189.703 368.743 189.668 368.726 189.631 368.721C189.593 368.717 189.555 368.725 189.523 368.744C189.491 368.763 189.466 368.793 189.453 368.828C189.439 368.863 189.438 368.902 189.449 368.938C192.764 375.456 213.325 407.555 213.618 407.471C216.677 401.718 219.441 395.813 221.898 389.778C223.633 391.89 233.983 402.814 234.011 402.1C234.141 396.8 233.996 391.497 233.577 386.211Z" fill="#263238"/>
<path d="M368.521 236.498C367.681 244.544 364.622 252.198 359.686 258.607C354.749 265.015 348.129 269.926 340.564 272.791C332.999 275.656 324.787 276.362 316.844 274.832C308.9 273.301 301.539 269.593 295.58 264.122L273.733 267.325L284.671 248.443C282.195 242.301 281.149 235.677 281.612 229.071C282.076 222.465 284.035 216.052 287.344 210.315C290.652 204.579 295.222 199.671 300.708 195.962C306.193 192.253 312.451 189.84 319.007 188.907C325.563 187.974 332.245 188.545 338.547 190.576C344.85 192.607 350.608 196.045 355.385 200.631C360.163 205.216 363.834 210.828 366.122 217.042C368.41 223.257 369.254 229.91 368.591 236.498H368.521Z" fill="#F8B607"/>
<path d="M368.521 236.498C367.675 244.548 364.626 252.209 359.709 258.639C357.294 261.851 354.408 264.68 351.149 267.031C347.931 269.47 344.386 271.443 340.617 272.892C336.846 274.367 332.886 275.308 328.854 275.689C326.841 275.873 324.817 275.91 322.798 275.801C320.771 275.753 318.75 275.542 316.756 275.171C308.7 273.721 301.207 270.055 295.119 264.583L295.636 264.737L273.817 268.094L272.236 268.332L273.034 266.933L283.929 248.009V248.765C281.367 242.506 280.279 235.741 280.747 228.995C281.215 222.248 283.227 215.699 286.629 209.854C290.025 204.03 294.697 199.052 300.294 195.294C305.886 191.59 312.243 189.201 318.89 188.305C325.537 187.409 332.3 188.029 338.673 190.118C344.968 192.269 350.703 195.801 355.457 200.455C360.218 205.084 363.867 210.733 366.129 216.976C368.392 223.219 369.21 229.894 368.521 236.498ZM368.521 236.498C369.218 229.923 368.397 223.276 366.12 217.068C363.843 210.86 360.172 205.258 355.388 200.693C350.605 196.129 344.837 192.723 338.529 190.739C332.222 188.756 325.543 188.247 319.008 189.251C312.533 190.224 306.366 192.664 300.979 196.385C295.644 200.127 291.186 204.986 287.916 210.623C284.697 216.281 282.804 222.594 282.377 229.089C281.951 235.584 283.003 242.091 285.454 248.121L285.608 248.513L285.398 248.862L274.404 267.716L273.621 266.556L295.482 263.493H295.79L296 263.702C301.858 269.17 309.122 272.899 316.98 274.472C318.93 274.864 320.908 275.102 322.896 275.185C324.884 275.325 326.88 275.325 328.868 275.185C332.856 274.874 336.782 274.013 340.533 272.626C344.307 271.267 347.856 269.353 351.065 266.947C354.345 264.612 357.242 261.781 359.653 258.555C364.585 252.16 367.654 244.527 368.521 236.498Z" fill="#322401"/>
<path d="M344.156 238.568C347.076 238.568 349.443 236.201 349.443 233.281C349.443 230.361 347.076 227.994 344.156 227.994C341.236 227.994 338.869 230.361 338.869 233.281C338.869 236.201 341.236 238.568 344.156 238.568Z" fill="#322401"/>
<path d="M325.204 238.568C328.124 238.568 330.491 236.201 330.491 233.281C330.491 230.361 328.124 227.994 325.204 227.994C322.284 227.994 319.917 230.361 319.917 233.281C319.917 236.201 322.284 238.568 325.204 238.568Z" fill="#322401"/>
<path d="M306.266 238.568C309.186 238.568 311.553 236.201 311.553 233.281C311.553 230.361 309.186 227.994 306.266 227.994C303.346 227.994 300.979 230.361 300.979 233.281C300.979 236.201 303.346 238.568 306.266 238.568Z" fill="#322401"/>
<path d="M802.834 236.498C801.995 244.544 798.936 252.198 794 258.607C789.063 265.015 782.443 269.926 774.878 272.791C767.313 275.656 759.101 276.362 751.158 274.832C743.214 273.301 735.853 269.593 729.894 264.122L708.047 267.325L718.97 248.443C716.484 242.298 715.43 235.668 715.887 229.055C716.344 222.442 718.301 216.02 721.609 210.275C724.917 204.531 729.49 199.615 734.98 195.9C740.47 192.186 746.734 189.77 753.296 188.836C759.859 187.902 766.548 188.474 772.857 190.509C779.165 192.544 784.928 195.989 789.707 200.583C794.487 205.176 798.157 210.797 800.442 217.02C802.726 223.243 803.563 229.904 802.89 236.498H802.834Z" fill="#F8B607"/>
<path d="M802.835 236.498C801.983 244.547 798.934 252.206 794.023 258.639C792.795 260.231 791.473 261.749 790.065 263.185C788.608 264.579 787.067 265.883 785.449 267.087C782.235 269.532 778.689 271.505 774.917 272.947C771.151 274.423 767.196 275.365 763.168 275.745C761.15 275.929 759.122 275.966 757.098 275.857C755.071 275.808 753.05 275.597 751.056 275.227C743.007 273.749 735.53 270.059 729.461 264.569L729.978 264.723L708.159 268.08L706.578 268.318L707.376 266.919L718.243 247.995V248.751C715.682 242.492 714.593 235.729 715.058 228.983C715.524 222.236 717.532 215.687 720.929 209.84C724.33 204.016 729.007 199.038 734.608 195.28C740.2 191.576 746.557 189.187 753.204 188.291C759.851 187.395 766.614 188.015 772.987 190.104C779.283 192.254 785.018 195.786 789.771 200.441C794.536 205.07 798.188 210.72 800.451 216.967C802.714 223.213 803.529 229.891 802.835 236.498ZM802.835 236.498C803.532 229.923 802.711 223.276 800.434 217.068C798.157 210.86 794.486 205.258 789.702 200.693C784.919 196.129 779.151 192.723 772.843 190.739C766.536 188.756 759.857 188.247 753.322 189.251C746.847 190.224 740.68 192.664 735.293 196.384C729.958 200.127 725.5 204.986 722.229 210.623C718.989 216.278 717.076 222.596 716.635 229.099C716.224 235.589 717.271 242.088 719.698 248.121L719.866 248.513L719.656 248.862L708.662 267.716L707.879 266.556L729.74 263.492H730.048L730.258 263.702C736.096 269.159 743.335 272.887 751.168 274.472C753.118 274.864 755.097 275.102 757.084 275.185C759.073 275.325 761.068 275.325 763.057 275.185C767.044 274.874 770.97 274.013 774.721 272.626C778.494 271.264 782.043 269.35 785.253 266.947C788.525 264.607 791.417 261.776 793.827 258.555C798.814 252.179 801.933 244.543 802.835 236.498Z" fill="#322401"/>
<path d="M778.4 238.568C781.32 238.568 783.687 236.201 783.687 233.281C783.687 230.361 781.32 227.994 778.4 227.994C775.48 227.994 773.113 230.361 773.113 233.281C773.113 236.201 775.48 238.568 778.4 238.568Z" fill="#322401"/>
<path d="M759.462 238.568C762.382 238.568 764.749 236.201 764.749 233.281C764.749 230.361 762.382 227.994 759.462 227.994C756.542 227.994 754.175 230.361 754.175 233.281C754.175 236.201 756.542 238.568 759.462 238.568Z" fill="#322401"/>
<path d="M745.811 233.281C745.814 234.328 745.506 235.351 744.927 236.222C744.348 237.094 743.523 237.773 742.557 238.176C741.591 238.578 740.528 238.685 739.501 238.482C738.475 238.28 737.531 237.777 736.791 237.039C736.05 236.3 735.545 235.358 735.34 234.332C735.135 233.306 735.238 232.242 735.638 231.275C736.038 230.308 736.716 229.482 737.585 228.9C738.455 228.319 739.478 228.008 740.524 228.008C741.924 228.008 743.266 228.563 744.257 229.552C745.249 230.54 745.807 231.882 745.811 233.281Z" fill="#322401"/>
<path d="M296.238 546.051H286.88V552.163H296.238V546.051Z" fill="#455A64"/>
<path d="M308.378 545.646H299.021V551.758H308.378V545.646Z" fill="#455A64"/>
<path d="M320.518 545.24H311.161V551.352H320.518V545.24Z" fill="#455A64"/>
<path d="M332.645 544.834H323.288V550.947H332.645V544.834Z" fill="#455A64"/>
<path d="M344.785 544.429H335.428V550.541H344.785V544.429Z" fill="#455A64"/>
<path d="M356.926 544.037H347.569V550.149H356.926V544.037Z" fill="#455A64"/>
<path d="M369.052 543.631H359.695V549.744H369.052V543.631Z" fill="#455A64"/>
<path d="M381.193 543.226H371.835V549.338H381.193V543.226Z" fill="#455A64"/>
<path d="M393.319 542.82H383.962V548.932H393.319V542.82Z" fill="#455A64"/>
<path d="M395.613 555.674H284.587V548.233L395.613 545.142V555.674Z" fill="#37474F"/>
<path d="M503.982 526.358H320.7L349.849 389.904H533.13L503.982 526.358Z" fill="#455A64"/>
<path d="M510.765 526.358H327.47L356.618 389.904H539.913L510.765 526.358Z" fill="#37474F"/>
<path d="M449.531 450.229C448.97 453.335 447.359 456.154 444.969 458.216C442.578 460.278 439.553 461.458 436.398 461.558C434.974 461.602 433.559 461.323 432.259 460.742C430.958 460.16 429.806 459.292 428.89 458.202C427.973 457.111 427.315 455.828 426.966 454.447C426.617 453.066 426.585 451.624 426.873 450.229C427.429 447.121 429.036 444.298 431.424 442.233C433.812 440.169 436.837 438.987 439.993 438.885C441.419 438.838 442.837 439.116 444.141 439.697C445.444 440.278 446.599 441.148 447.517 442.24C448.436 443.332 449.094 444.619 449.443 446.003C449.792 447.386 449.822 448.831 449.531 450.229Z" fill="#263238"/>
<path d="M458.931 561.996H368.787V554.989L458.931 552.079V561.996Z" fill="#455A64"/>
<path d="M483.435 561.982H435.027L405.879 485.517H454.287L483.435 561.982Z" fill="#455A64"/>
<path d="M491.394 561.982H443L413.852 485.517H462.245L491.394 561.982Z" fill="#263238"/>
<path d="M281.132 563.856H188.233C180.302 563.856 191.771 541.268 220.724 532.61C249.676 523.952 290.293 555.38 281.132 563.856Z" fill="#37474F"/>
<path d="M244.767 563.856C244.829 561.283 245.253 558.731 246.026 556.275C246.771 553.793 247.819 551.411 249.145 549.184C250.474 546.943 252.139 544.919 254.082 543.184C256.009 541.461 258.225 540.093 260.628 539.142C259.635 539.953 258.502 540.54 257.592 541.421L256.194 542.638L254.879 544.037C253.161 545.836 251.655 547.826 250.389 549.967C249.103 552.109 247.999 554.355 247.089 556.681C246.156 559.018 245.38 561.415 244.767 563.856Z" fill="#263238"/>
<path d="M255.704 542.359C261.233 544.108 266.463 546.688 271.216 550.009C273.621 551.672 275.798 553.642 277.691 555.87C279.677 558.086 280.885 560.89 281.132 563.856C280.362 561.121 278.886 558.637 276.852 556.653C274.87 554.635 272.702 552.808 270.376 551.198C268.069 549.534 265.649 548.037 263.187 546.569C260.726 545.1 258.25 543.715 255.704 542.359Z" fill="#263238"/>
<path d="M725.432 546.051H716.075V552.163H725.432V546.051Z" fill="#455A64"/>
<path d="M737.573 545.646H728.216V551.758H737.573V545.646Z" fill="#455A64"/>
<path d="M749.714 545.24H740.356V551.352H749.714V545.24Z" fill="#455A64"/>
<path d="M761.84 544.834H752.483V550.947H761.84V544.834Z" fill="#455A64"/>
<path d="M773.98 544.429H764.623V550.541H773.98V544.429Z" fill="#455A64"/>
<path d="M786.12 544.037H776.763V550.149H786.12V544.037Z" fill="#455A64"/>
<path d="M798.247 543.631H788.89V549.744H798.247V543.631Z" fill="#455A64"/>
<path d="M810.387 543.226H801.03V549.338H810.387V543.226Z" fill="#455A64"/>
<path d="M822.528 542.82H813.171V548.932H822.528V542.82Z" fill="#455A64"/>
<path d="M824.822 555.674H713.796V548.233L824.822 545.142V555.674Z" fill="#37474F"/>
<path d="M933.176 526.358H749.895L779.043 389.904H962.325L933.176 526.358Z" fill="#455A64"/>
<path d="M939.96 526.358H756.679L785.827 389.904H969.108L939.96 526.358Z" fill="#37474F"/>
<path d="M878.726 450.229C878.165 453.333 876.556 456.15 874.169 458.212C871.782 460.274 868.76 461.455 865.607 461.558C864.182 461.604 862.765 461.327 861.463 460.746C860.161 460.166 859.007 459.298 858.089 458.207C857.171 457.117 856.512 455.832 856.162 454.45C855.812 453.068 855.78 451.625 856.068 450.229C856.627 447.122 858.234 444.301 860.622 442.236C863.009 440.172 866.033 438.989 869.187 438.885C870.614 438.838 872.032 439.116 873.336 439.697C874.639 440.278 875.794 441.148 876.712 442.24C877.631 443.332 878.289 444.619 878.638 446.003C878.987 447.386 879.017 448.831 878.726 450.229Z" fill="#263238"/>
<path d="M888.125 561.996H797.981V554.989L888.125 552.079V561.996Z" fill="#455A64"/>
<path d="M912.63 561.982H864.222L835.074 485.517H883.482L912.63 561.982Z" fill="#455A64"/>
<path d="M920.602 561.982H872.195L843.046 485.517H891.454L920.602 561.982Z" fill="#263238"/>
<path d="M710.369 563.856H617.427C609.497 563.856 620.966 541.268 649.918 532.61C678.871 523.952 719.488 555.38 710.369 563.856Z" fill="#37474F"/>
<path d="M673.892 563.856C673.96 561.283 674.384 558.732 675.15 556.275C675.902 553.795 676.949 551.414 678.269 549.184C679.607 546.949 681.272 544.927 683.207 543.184C685.134 541.461 687.35 540.093 689.752 539.142C688.759 539.953 687.627 540.54 686.717 541.421L685.319 542.638L684.004 544.037C682.277 545.832 680.766 547.822 679.5 549.967C678.214 552.109 677.11 554.355 676.199 556.681C675.271 559.019 674.5 561.416 673.892 563.856Z" fill="#263238"/>
<path d="M684.899 542.359C690.427 544.108 695.657 546.688 700.41 550.009C702.817 551.675 704.998 553.645 706.9 555.87C708.88 558.071 710.096 560.852 710.369 563.8C709.593 561.064 708.113 558.58 706.075 556.597C704.093 554.579 701.925 552.752 699.599 551.142C697.305 549.478 694.871 547.981 692.41 546.513C689.948 545.044 687.458 543.715 684.899 542.359Z" fill="#263238"/>
</svg>
