<svg width="199" height="93" viewBox="0 0 199 93" fill="none" xmlns="http://www.w3.org/2000/svg">
<path d="M25.109 46.725C23.4586 47.6022 20.9716 48.0385 17.6482 48.034C9.78947 48.034 5.86012 43.9509 5.86012 35.7847V19.2082H0V10.9809H5.8669V3.18102L16.9835 0V10.9809H25.1225V19.2082H16.9835V33.8381C16.9835 37.6092 18.4802 39.4925 21.4735 39.488C22.7526 39.4605 24.0036 39.108 25.109 38.4638V46.725Z" fill="white"/>
<path d="M86.8979 42.9335H86.7554V63.7695H75.5981V10.9809H86.7554V16.407H86.8979C88.0997 14.4262 89.8048 12.799 91.8396 11.6911C93.8745 10.5831 96.1665 10.0339 98.4825 10.0992C103.167 10.0992 106.784 11.7067 109.335 14.9216C111.885 18.1365 113.162 22.509 113.167 28.039C113.167 34.0619 111.677 38.8979 108.697 42.5469C105.717 46.1959 101.758 48.0204 96.8207 48.0204C92.5025 48.0204 89.1949 46.3248 86.8979 42.9335ZM86.5791 28.1069V31.003C86.483 33.2087 87.1836 35.3754 88.5528 37.1073C89.1787 37.8745 89.973 38.4872 90.874 38.8977C91.7751 39.3082 92.7586 39.5056 93.7482 39.4744C94.9021 39.5209 96.049 39.2755 97.0829 38.761C98.1167 38.2464 99.004 37.4794 99.6626 36.5308C101.06 34.5639 101.758 31.7785 101.758 28.1747C101.758 21.8172 99.2873 18.6407 94.3451 18.6452C93.2752 18.6173 92.2134 18.8373 91.2427 19.288C90.272 19.7386 89.4187 20.4077 88.7495 21.2429C87.298 22.9747 86.5746 25.2627 86.5791 28.1069Z" fill="white"/>
<path d="M199 47.1387H187.877V41.6313H187.7C184.947 45.8907 181.261 48.0204 176.645 48.0204C168.266 48.0204 164.077 42.9471 164.077 32.8004V10.981H175.2V31.8034C175.2 36.9084 177.223 39.4609 181.27 39.4609C182.178 39.4969 183.082 39.3264 183.913 38.9622C184.745 38.5979 185.484 38.0495 186.072 37.3583C187.275 35.9611 187.877 34.062 187.877 31.6609V10.981H199V47.1387Z" fill="white"/>
<path d="M135.509 46.2976C134.674 69.4125 116.117 88.1595 93.6604 88.1595C71.2033 88.1595 52.6463 69.4125 51.8121 46.2976H46.1418C46.1418 71.7932 67.595 92.7716 93.6604 92.7716C119.726 92.7716 141.213 71.8203 141.213 46.2976H135.509Z" fill="white"/>
<path d="M49.3029 15.5049H49.0994C48.9121 15.5049 48.7603 15.6567 48.7603 15.844V17.1123C48.7603 17.2996 48.9121 17.4515 49.0994 17.4515H49.3029C49.4901 17.4515 49.642 17.2996 49.642 17.1123V15.844C49.642 15.6567 49.4901 15.5049 49.3029 15.5049Z" fill="white"/>
<path d="M49.33 40.6682H49.1265C48.9392 40.6682 48.7874 40.82 48.7874 41.0073V42.2757C48.7874 42.463 48.9392 42.6148 49.1265 42.6148H49.33C49.5172 42.6148 49.6691 42.463 49.6691 42.2757V41.0073C49.6691 40.82 49.5172 40.6682 49.33 40.6682Z" fill="white"/>
<path d="M62.7319 29.443C62.9679 29.443 63.1592 29.2517 63.1592 29.0157C63.1592 28.7797 62.9679 28.5884 62.7319 28.5884H61.5788C61.3429 28.5884 61.1515 28.7797 61.1515 29.0157C61.1515 29.2517 61.3429 29.443 61.5788 29.443H62.7319Z" fill="white"/>
<path d="M36.7819 29.4632C37.0179 29.4632 37.2092 29.2719 37.2092 29.0359C37.2092 28.7999 37.0179 28.6086 36.7819 28.6086H35.6289C35.3929 28.6086 35.2016 28.7999 35.2016 29.0359C35.2016 29.2719 35.3929 29.4632 35.6289 29.4632H36.7819Z" fill="white"/>
<path d="M37.0666 22.2465C37.0989 22.1944 37.1502 22.1568 37.2096 22.1417C37.269 22.1265 37.332 22.1349 37.3854 22.1651L38.7419 22.9112C38.7681 22.926 38.7911 22.9458 38.8095 22.9697C38.8279 22.9935 38.8413 23.0208 38.8489 23.0499C38.8565 23.079 38.8582 23.1094 38.8538 23.1392C38.8493 23.169 38.839 23.1975 38.8233 23.2232C38.7909 23.2753 38.7397 23.3129 38.6803 23.3281C38.6208 23.3433 38.5578 23.3349 38.5045 23.3046L37.148 22.5585C37.1217 22.5438 37.0987 22.5239 37.0803 22.5001C37.0619 22.4763 37.0485 22.449 37.0409 22.4198C37.0333 22.3907 37.0317 22.3604 37.0361 22.3306C37.0405 22.3008 37.0509 22.2722 37.0666 22.2465Z" fill="white"/>
<path d="M42.2217 17.309C42.2772 17.2806 42.3413 17.2739 42.4015 17.2902C42.4617 17.3065 42.5137 17.3446 42.5473 17.3972L43.3137 18.6858C43.3291 18.7119 43.3391 18.7409 43.343 18.771C43.347 18.801 43.3447 18.8316 43.3365 18.8607C43.3282 18.8899 43.3142 18.9171 43.2951 18.9407C43.276 18.9642 43.2523 18.9837 43.2255 18.9978C43.171 19.0258 43.108 19.0323 43.0489 19.0159C42.9899 18.9996 42.9391 18.9617 42.9067 18.9097L42.1403 17.621C42.1246 17.5953 42.1142 17.5667 42.1098 17.5369C42.1054 17.5072 42.1071 17.4768 42.1147 17.4477C42.1223 17.4185 42.1357 17.3913 42.1541 17.3674C42.1724 17.3436 42.1955 17.3237 42.2217 17.309Z" fill="white"/>
<path d="M56.1935 17.2887C56.2203 17.3028 56.244 17.3223 56.2631 17.3459C56.2822 17.3694 56.2962 17.3966 56.3045 17.4258C56.3127 17.455 56.315 17.4855 56.311 17.5156C56.3071 17.5456 56.2971 17.5746 56.2817 17.6007L55.5085 18.8894C55.4762 18.9415 55.4249 18.9791 55.3655 18.9942C55.3061 19.0094 55.2431 19.001 55.1897 18.9708C55.1629 18.9566 55.1392 18.9372 55.1202 18.9136C55.1011 18.89 55.087 18.8628 55.0787 18.8337C55.0705 18.8045 55.0683 18.7739 55.0722 18.7439C55.0761 18.7138 55.0861 18.6849 55.1015 18.6588L55.8747 17.3701C55.8901 17.3436 55.9107 17.3205 55.9351 17.302C55.9595 17.2835 55.9874 17.2701 56.0171 17.2625C56.0467 17.255 56.0776 17.2534 56.1079 17.2579C56.1382 17.2624 56.1673 17.2728 56.1935 17.2887Z" fill="white"/>
<path d="M61.3213 22.2398C61.3376 22.2651 61.3484 22.2936 61.3528 22.3234C61.3572 22.3532 61.3552 22.3836 61.3468 22.4126C61.3385 22.4415 61.324 22.4683 61.3044 22.4912C61.2847 22.514 61.2604 22.5324 61.2331 22.5451L59.8766 23.2911C59.8232 23.3214 59.7602 23.3298 59.7008 23.3146C59.6414 23.2994 59.5901 23.2619 59.5578 23.2097C59.5421 23.1841 59.5317 23.1555 59.5273 23.1257C59.5229 23.0959 59.5245 23.0656 59.5321 23.0364C59.5397 23.0073 59.5531 22.98 59.5715 22.9562C59.5899 22.9324 59.6129 22.9125 59.6392 22.8977L60.9957 22.1517C61.0228 22.1359 61.0528 22.1257 61.0839 22.1217C61.115 22.1176 61.1466 22.1197 61.1769 22.1279C61.2071 22.1361 61.2355 22.1502 61.2603 22.1694C61.2851 22.1886 61.3058 22.2126 61.3213 22.2398Z" fill="white"/>
<path d="M61.2739 35.7984C61.2415 35.8505 61.1903 35.8881 61.1309 35.9033C61.0714 35.9185 61.0084 35.91 60.9551 35.8798L59.5986 35.1337C59.571 35.1203 59.5466 35.1013 59.527 35.0778C59.5073 35.0543 59.4928 35.027 59.4845 34.9975C59.4762 34.968 59.4742 34.9371 59.4786 34.9068C59.4831 34.8766 59.4939 34.8475 59.5104 34.8217C59.5427 34.7696 59.594 34.732 59.6534 34.7169C59.7128 34.7017 59.7758 34.7101 59.8292 34.7403L61.1857 35.4864C61.2125 35.5006 61.2362 35.52 61.2552 35.5436C61.2743 35.5671 61.2884 35.5943 61.2966 35.6235C61.3049 35.6527 61.3071 35.6832 61.3032 35.7133C61.2993 35.7434 61.2893 35.7723 61.2739 35.7984Z" fill="white"/>
<path d="M56.2274 40.7631C56.1746 40.7951 56.1117 40.8058 56.0513 40.7932C55.9909 40.7806 55.9375 40.7457 55.9018 40.6953L55.0879 39.427C55.0719 39.4017 55.0612 39.3735 55.0563 39.344C55.0513 39.3145 55.0524 39.2843 55.0594 39.2552C55.0663 39.2261 55.079 39.1987 55.0967 39.1747C55.1145 39.1506 55.1368 39.1303 55.1625 39.115C55.2157 39.082 55.2797 39.0714 55.3406 39.0853C55.4016 39.0993 55.4546 39.1368 55.4881 39.1896L56.302 40.4511C56.318 40.4764 56.3287 40.5046 56.3337 40.5341C56.3386 40.5636 56.3375 40.5938 56.3305 40.6229C56.3236 40.652 56.3109 40.6794 56.2932 40.7035C56.2754 40.7275 56.2531 40.7478 56.2274 40.7631Z" fill="white"/>
<path d="M42.1878 40.7496C42.1609 40.7354 42.1373 40.716 42.1182 40.6924C42.0991 40.6688 42.085 40.6416 42.0768 40.6125C42.0686 40.5833 42.0663 40.5527 42.0702 40.5227C42.0742 40.4926 42.0841 40.4636 42.0996 40.4376L42.8728 39.1489C42.9051 39.0968 42.9564 39.0592 43.0158 39.044C43.0752 39.0288 43.1382 39.0372 43.1916 39.0675C43.2184 39.0816 43.2421 39.1011 43.2611 39.1247C43.2802 39.1482 43.2943 39.1754 43.3025 39.2046C43.3108 39.2338 43.313 39.2643 43.3091 39.2944C43.3052 39.3244 43.2952 39.3534 43.2797 39.3795L42.5065 40.6682C42.4742 40.7203 42.423 40.7579 42.3635 40.773C42.3041 40.7882 42.2411 40.7798 42.1878 40.7496Z" fill="white"/>
<path d="M37.1211 35.8184C37.1029 35.7933 37.0904 35.7645 37.0843 35.7341C37.0782 35.7037 37.0787 35.6723 37.0858 35.6421C37.0929 35.6119 37.1063 35.5835 37.1253 35.5589C37.1442 35.5344 37.1682 35.5142 37.1957 35.4997L38.4979 34.7129C38.5511 34.6799 38.6151 34.6693 38.676 34.6832C38.737 34.6972 38.79 34.7347 38.8235 34.7875C38.8395 34.8128 38.8502 34.841 38.8551 34.8705C38.86 34.9 38.859 34.9301 38.852 34.9592C38.8451 34.9883 38.8324 35.0157 38.8146 35.0398C38.7969 35.0639 38.7746 35.0842 38.7489 35.0995L37.4398 35.8727C37.3897 35.9056 37.3289 35.9183 37.2698 35.9082C37.2106 35.8982 37.1575 35.8661 37.1211 35.8184Z" fill="white"/>
<path d="M49.2281 30.2501C49.8911 30.2501 50.4286 29.7308 50.4286 29.0902C50.4286 28.4497 49.8911 27.9304 49.2281 27.9304C48.5651 27.9304 48.0276 28.4497 48.0276 29.0902C48.0276 29.7308 48.5651 30.2501 49.2281 30.2501Z" fill="white"/>
<path d="M53.9795 37.4717L54.2391 37.3225C54.4803 37.1839 54.5634 36.876 54.4248 36.6349L49.7211 28.4504C49.5825 28.2093 49.2747 28.1261 49.0335 28.2647L48.7739 28.4139C48.5327 28.5525 48.4496 28.8604 48.5882 29.1016L53.2919 37.286C53.4305 37.5272 53.7383 37.6103 53.9795 37.4717Z" fill="white"/>
<path d="M49.8587 21.8395C49.8587 21.4911 49.5763 21.2087 49.2279 21.2087C48.8796 21.2087 48.5972 21.4911 48.5972 21.8395V28.7577C48.5972 29.1061 48.8796 29.3885 49.2279 29.3885C49.5763 29.3885 49.8587 29.1061 49.8587 28.7577V21.8395Z" fill="white"/>
<path d="M63.6203 15.1657C60.2109 11.788 55.5038 10.0991 49.499 10.0991C43.4038 10.0991 38.5656 11.788 34.9844 15.1657C31.4032 18.5434 29.6149 23.2211 29.6194 29.1988C29.6194 34.9911 31.3444 39.5761 34.7945 42.9538C38.2445 46.3315 42.9923 48.0203 49.0378 48.0203C55.1557 48.0203 59.9758 46.2795 63.4982 42.7978C67.0206 39.3161 68.7795 34.5683 68.775 28.5544C68.7524 23.0108 67.0342 18.5479 63.6203 15.1657ZM49.1803 42.6146C41.4617 42.6146 35.2014 36.5443 35.2014 29.0496C35.2014 21.5548 41.4617 15.4845 49.1803 15.4845C56.8988 15.4845 63.1591 21.5548 63.1591 29.0496C63.1591 36.5443 56.8988 42.6146 49.1803 42.6146Z" fill="white"/>
<path d="M50.8079 6.63317C50.8079 5.76787 50.108 5.06641 49.2445 5.06641C48.3811 5.06641 47.6812 5.76787 47.6812 6.63317V10.0584C47.6812 10.9237 48.3811 11.6251 49.2445 11.6251C50.108 11.6251 50.8079 10.9237 50.8079 10.0584V6.63317Z" fill="white"/>
<path d="M47.525 5.06636C46.6597 5.06636 45.9583 5.76631 45.9583 6.62974C45.9583 7.49317 46.6597 8.19312 47.525 8.19312H50.9502C51.8155 8.19312 52.517 7.49317 52.517 6.62974C52.517 5.76631 51.8155 5.06636 50.9502 5.06636H47.525Z" fill="white"/>
<path d="M138.303 15.9457C138.303 15.7023 138.106 15.5049 137.862 15.5049C137.619 15.5049 137.421 15.7023 137.421 15.9457V17.0106C137.421 17.2541 137.619 17.4515 137.862 17.4515C138.106 17.4515 138.303 17.2541 138.303 17.0106V15.9457Z" fill="white"/>
<path d="M138.33 41.1091C138.33 40.8656 138.133 40.6682 137.889 40.6682C137.646 40.6682 137.448 40.8656 137.448 41.1091V42.1739C137.448 42.4174 137.646 42.6148 137.889 42.6148C138.133 42.6148 138.33 42.4174 138.33 42.1739V41.1091Z" fill="white"/>
<path d="M151.393 29.4498C151.629 29.4498 151.82 29.2585 151.82 29.0225C151.82 28.7865 151.629 28.5952 151.393 28.5952H150.24C150.004 28.5952 149.813 28.7865 149.813 29.0225C149.813 29.2585 150.004 29.4498 150.24 29.4498H151.393Z" fill="white"/>
<path d="M125.443 29.4701C125.679 29.4701 125.87 29.2788 125.87 29.0428C125.87 28.8068 125.679 28.6155 125.443 28.6155H124.29C124.054 28.6155 123.863 28.8068 123.863 29.0428C123.863 29.2788 124.054 29.4701 124.29 29.4701H125.443Z" fill="white"/>
<path d="M125.728 22.2466C125.762 22.194 125.814 22.1562 125.875 22.1411C125.935 22.1259 125.999 22.1346 126.054 22.1652L127.41 22.9113C127.437 22.9254 127.461 22.9449 127.48 22.9684C127.499 22.992 127.513 23.0192 127.521 23.0484C127.53 23.0775 127.532 23.1081 127.528 23.1381C127.524 23.1682 127.514 23.1972 127.498 23.2233C127.465 23.2759 127.412 23.3136 127.352 23.3287C127.291 23.3439 127.227 23.3353 127.173 23.3046L125.816 22.5586C125.79 22.5444 125.766 22.525 125.747 22.5014C125.728 22.4778 125.714 22.4506 125.705 22.4215C125.697 22.3923 125.695 22.3617 125.699 22.3317C125.703 22.3016 125.713 22.2727 125.728 22.2466Z" fill="white"/>
<path d="M130.89 17.3089C130.944 17.2793 131.007 17.2719 131.067 17.2884C131.126 17.3048 131.177 17.3438 131.208 17.3971L131.982 18.6858C132.011 18.7389 132.018 18.8015 132.002 18.8599C131.985 18.9183 131.946 18.9679 131.893 18.9978C131.838 19.0262 131.774 19.0329 131.714 19.0166C131.653 19.0003 131.601 18.9621 131.568 18.9096L130.801 17.6209C130.772 17.5678 130.765 17.5052 130.781 17.4468C130.798 17.3884 130.837 17.3389 130.89 17.3089Z" fill="white"/>
<path d="M144.855 17.2887C144.882 17.3028 144.906 17.3223 144.925 17.3459C144.944 17.3694 144.958 17.3966 144.966 17.4258C144.974 17.455 144.976 17.4855 144.973 17.5156C144.969 17.5456 144.959 17.5746 144.943 17.6007L144.177 18.8894C144.143 18.942 144.091 18.9797 144.03 18.9949C143.97 19.01 143.906 19.0014 143.851 18.9708C143.825 18.956 143.802 18.9362 143.784 18.9123C143.765 18.8885 143.752 18.8612 143.744 18.8321C143.737 18.8029 143.735 18.7726 143.739 18.7428C143.744 18.713 143.754 18.6844 143.77 18.6588L144.536 17.3701C144.552 17.3436 144.572 17.3205 144.597 17.302C144.621 17.2835 144.649 17.2701 144.679 17.2625C144.708 17.255 144.739 17.2534 144.769 17.2579C144.8 17.2624 144.829 17.2728 144.855 17.2887Z" fill="white"/>
<path d="M149.983 22.2401C149.998 22.2653 150.009 22.2934 150.013 22.3226C150.017 22.3519 150.015 22.3817 150.008 22.4103C150 22.4389 149.987 22.4656 149.969 22.4889C149.95 22.5121 149.927 22.5313 149.901 22.5454L148.545 23.2914C148.49 23.3221 148.426 23.3307 148.366 23.3155C148.305 23.3004 148.253 23.2627 148.219 23.2101C148.204 23.184 148.194 23.155 148.19 23.1249C148.186 23.0949 148.188 23.0643 148.196 23.0352C148.205 23.006 148.219 22.9788 148.238 22.9552C148.257 22.9316 148.281 22.9122 148.307 22.8981L149.664 22.152C149.691 22.1364 149.72 22.1263 149.751 22.1223C149.781 22.1183 149.812 22.1205 149.842 22.1287C149.872 22.1369 149.899 22.151 149.924 22.1702C149.948 22.1893 149.968 22.2131 149.983 22.2401Z" fill="white"/>
<path d="M149.942 35.7982C149.908 35.8508 149.856 35.8886 149.795 35.9037C149.735 35.9188 149.671 35.9102 149.616 35.8796L148.26 35.1335C148.233 35.1194 148.209 35.0999 148.19 35.0764C148.171 35.0528 148.157 35.0256 148.149 34.9964C148.141 34.9672 148.138 34.9367 148.142 34.9066C148.146 34.8766 148.156 34.8476 148.172 34.8215C148.205 34.7689 148.258 34.7312 148.318 34.716C148.379 34.7009 148.443 34.7095 148.497 34.7401L149.854 35.4862C149.88 35.5003 149.904 35.5198 149.923 35.5434C149.942 35.5669 149.956 35.5941 149.965 35.6233C149.973 35.6525 149.975 35.683 149.971 35.7131C149.967 35.7432 149.957 35.7721 149.942 35.7982Z" fill="white"/>
<path d="M144.889 40.7632C144.837 40.7947 144.775 40.8052 144.716 40.7926C144.657 40.78 144.605 40.7452 144.57 40.6954L143.756 39.427C143.74 39.4018 143.73 39.3735 143.725 39.344C143.72 39.3145 143.721 39.2844 143.728 39.2553C143.735 39.2262 143.747 39.1988 143.765 39.1747C143.783 39.1506 143.805 39.1303 143.831 39.115C143.885 39.0838 143.948 39.0741 144.009 39.088C144.069 39.1018 144.122 39.1382 144.157 39.1896L144.964 40.4512C144.982 40.4758 144.994 40.504 145 40.534C145.006 40.5639 145.006 40.5948 144.999 40.6245C144.992 40.6542 144.978 40.6819 144.959 40.7059C144.94 40.7299 144.916 40.7494 144.889 40.7632Z" fill="white"/>
<path d="M130.856 40.7496C130.829 40.7348 130.806 40.7149 130.788 40.6911C130.77 40.6673 130.756 40.64 130.749 40.6109C130.741 40.5817 130.739 40.5514 130.744 40.5216C130.748 40.4918 130.759 40.4632 130.774 40.4376L131.541 39.1489C131.573 39.0968 131.624 39.0592 131.684 39.044C131.743 39.0288 131.806 39.0372 131.86 39.0675C131.886 39.0816 131.91 39.1011 131.929 39.1247C131.948 39.1482 131.962 39.1754 131.971 39.2046C131.979 39.2338 131.981 39.2643 131.977 39.2944C131.973 39.3244 131.963 39.3534 131.948 39.3795L131.181 40.6682C131.148 40.7208 131.095 40.7585 131.035 40.7737C130.974 40.7888 130.91 40.7802 130.856 40.7496Z" fill="white"/>
<path d="M125.782 35.8184C125.766 35.7926 125.755 35.7639 125.75 35.7339C125.745 35.7039 125.746 35.6731 125.753 35.6435C125.76 35.6139 125.773 35.5859 125.791 35.5612C125.809 35.5365 125.831 35.5156 125.857 35.4997L127.159 34.7129C127.212 34.6799 127.276 34.6693 127.337 34.6832C127.398 34.6972 127.451 34.7347 127.485 34.7875C127.501 34.8128 127.512 34.841 127.517 34.8705C127.521 34.9 127.52 34.9301 127.513 34.9592C127.506 34.9883 127.494 35.0157 127.476 35.0398C127.458 35.0639 127.436 35.0842 127.41 35.0995L126.108 35.8727C126.057 35.906 125.995 35.9189 125.935 35.9089C125.874 35.8989 125.82 35.8666 125.782 35.8184Z" fill="white"/>
<path d="M137.896 30.2501C138.559 30.2501 139.096 29.7308 139.096 29.0902C139.096 28.4497 138.559 27.9304 137.896 27.9304C137.233 27.9304 136.695 28.4497 136.695 29.0902C136.695 29.7308 137.233 30.2501 137.896 30.2501Z" fill="white"/>
<path d="M143.311 21.2131C143.491 20.9016 143.384 20.5034 143.073 20.3236C142.761 20.1438 142.363 20.2505 142.183 20.5619L137.629 28.4505C137.449 28.762 137.556 29.1602 137.867 29.34C138.179 29.5198 138.577 29.4131 138.757 29.1016L143.311 21.2131Z" fill="white"/>
<path d="M138.608 21.7108C138.608 21.3625 138.326 21.0801 137.977 21.0801C137.629 21.0801 137.347 21.3625 137.347 21.7108V28.6291C137.347 28.9774 137.629 29.2598 137.977 29.2598C138.326 29.2598 138.608 28.9774 138.608 28.6291V21.7108Z" fill="white"/>
<path d="M152.289 15.1657C148.87 11.788 144.161 10.0991 138.161 10.0991C132.061 10.0991 127.225 11.788 123.653 15.1657C120.081 18.5434 118.292 23.2211 118.288 29.1988C118.288 34.9911 120.011 39.5761 123.456 42.9538C126.902 46.3315 131.649 48.0203 137.699 48.0203C143.822 48.0203 148.642 46.2795 152.16 42.7978C155.678 39.3161 157.437 34.5683 157.437 28.5544C157.414 23.0108 155.698 18.5479 152.289 15.1657ZM137.822 42.6146C130.103 42.6146 123.843 36.5443 123.843 29.0496C123.843 21.5548 130.103 15.4845 137.822 15.4845C145.54 15.4845 151.807 21.5548 151.807 29.0496C151.807 36.5443 145.567 42.6146 137.822 42.6146Z" fill="white"/>
<path d="M139.429 6.66711C139.429 5.80181 138.729 5.10034 137.865 5.10034C137.002 5.10034 136.302 5.80181 136.302 6.66711V10.0923C136.302 10.9576 137.002 11.6591 137.865 11.6591C138.729 11.6591 139.429 10.9576 139.429 10.0923V6.66711Z" fill="white"/>
<path d="M136.153 5.1003C135.288 5.1003 134.586 5.80024 134.586 6.66367C134.586 7.5271 135.288 8.22705 136.153 8.22705H139.578C140.444 8.22705 141.145 7.5271 141.145 6.66367C141.145 5.80024 140.444 5.1003 139.578 5.1003H136.153Z" fill="white"/>
</svg>
