<svg width="100" height="47" viewBox="0 0 100 47" fill="none" xmlns="http://www.w3.org/2000/svg">
<path d="M12.6098 23.4654C11.781 23.906 10.532 24.1251 8.86298 24.1228C4.91631 24.1228 2.94297 22.0723 2.94297 17.9712V9.64641H0V5.51467H2.94638V1.59752L8.52917 0V5.51467H12.6166V9.64641H8.52917V16.9936C8.52917 18.8875 9.28081 19.8333 10.7841 19.831C11.4264 19.8172 12.0547 19.6402 12.6098 19.3167V23.4654Z" fill="#0081FF"/>
<path d="M43.6405 21.5613H43.5689V32.0252H37.9657V5.51465H43.5689V8.23962H43.6405C44.244 7.24485 45.1003 6.42769 46.1222 5.87127C47.1441 5.31484 48.2952 5.03901 49.4583 5.07184C51.8108 5.07184 53.6275 5.87911 54.9082 7.49366C56.189 9.10821 56.8305 11.3041 56.8327 14.0813C56.8327 17.106 56.0845 19.5346 54.5881 21.3672C53.0916 23.1997 51.1035 24.116 48.6238 24.116C46.4551 24.116 44.794 23.2645 43.6405 21.5613ZM43.4804 14.1153V15.5698C43.4321 16.6775 43.7839 17.7656 44.4716 18.6354C44.7859 19.0207 45.1848 19.3284 45.6373 19.5345C46.0898 19.7407 46.5837 19.8398 47.0807 19.8242C47.6602 19.8475 48.2362 19.7243 48.7554 19.4659C49.2746 19.2075 49.7202 18.8222 50.051 18.3459C50.7527 17.3581 51.1035 15.9592 51.1035 14.1494C51.1035 10.9566 49.8625 9.3614 47.3805 9.36367C46.8432 9.34967 46.31 9.46015 45.8225 9.68647C45.335 9.91279 44.9064 10.2488 44.5704 10.6683C43.8414 11.538 43.4781 12.687 43.4804 14.1153Z" fill="#0081FF"/>
<path d="M99.9385 23.6732H94.3523V20.9074H94.2638C92.8808 23.0465 91.0301 24.116 88.7116 24.116C84.5038 24.116 82.3999 21.5682 82.3999 16.4725V5.51465H87.9861V15.9717C87.9861 18.5355 89.0023 19.8174 91.0347 19.8174C91.4904 19.8355 91.9442 19.7498 92.362 19.5669C92.7798 19.384 93.1505 19.1086 93.4463 18.7614C94.0503 18.0598 94.3523 17.106 94.3523 15.9002V5.51465H99.9385V23.6732Z" fill="#0081FF"/>
<path d="M68.053 23.2509C67.634 34.8593 58.3146 44.274 47.0366 44.274C35.7586 44.274 26.4392 34.8593 26.0202 23.2509H23.1726C23.1726 36.0548 33.9465 46.5903 47.0366 46.5903C60.1267 46.5903 70.9176 36.0685 70.9176 23.2509H68.053Z" fill="#0081FF"/>
<path d="M24.76 7.78662H24.6579C24.5638 7.78662 24.4875 7.86287 24.4875 7.95693V8.59389C24.4875 8.68795 24.5638 8.7642 24.6579 8.7642H24.76C24.8541 8.7642 24.9304 8.68795 24.9304 8.59389V7.95693C24.9304 7.86287 24.8541 7.78662 24.76 7.78662Z" fill="#F8B607"/>
<path d="M24.7737 20.4237H24.6715C24.5775 20.4237 24.5012 20.5 24.5012 20.594V21.231C24.5012 21.325 24.5775 21.4013 24.6715 21.4013H24.7737C24.8678 21.4013 24.944 21.325 24.944 21.231V20.594C24.944 20.5 24.8678 20.4237 24.7737 20.4237Z" fill="#F8B607"/>
<path d="M31.5042 14.7864C31.6227 14.7864 31.7188 14.6903 31.7188 14.5718C31.7188 14.4533 31.6227 14.3572 31.5042 14.3572H30.9251C30.8066 14.3572 30.7105 14.4533 30.7105 14.5718C30.7105 14.6903 30.8066 14.7864 30.9251 14.7864H31.5042Z" fill="#F8B607"/>
<path d="M18.4721 14.7966C18.5906 14.7966 18.6866 14.7005 18.6866 14.582C18.6866 14.4635 18.5906 14.3674 18.4721 14.3674H17.893C17.7745 14.3674 17.6784 14.4635 17.6784 14.582C17.6784 14.7005 17.7745 14.7966 17.893 14.7966H18.4721Z" fill="#F8B607"/>
<path d="M18.615 11.1724C18.6313 11.1462 18.657 11.1274 18.6868 11.1197C18.7167 11.1121 18.7483 11.1163 18.7751 11.1315L19.4564 11.5062C19.4696 11.5136 19.4811 11.5236 19.4903 11.5356C19.4996 11.5475 19.5063 11.5612 19.5101 11.5759C19.5139 11.5905 19.5148 11.6057 19.5126 11.6207C19.5103 11.6356 19.5051 11.65 19.4972 11.6629C19.481 11.6891 19.4553 11.7079 19.4254 11.7156C19.3956 11.7232 19.3639 11.719 19.3372 11.7038L18.6559 11.3291C18.6427 11.3217 18.6312 11.3117 18.6219 11.2997C18.6127 11.2878 18.606 11.2741 18.6022 11.2594C18.5983 11.2448 18.5975 11.2296 18.5997 11.2146C18.6019 11.1997 18.6071 11.1853 18.615 11.1724Z" fill="#F8B607"/>
<path d="M21.2039 8.69267C21.2318 8.67842 21.264 8.67506 21.2942 8.68325C21.3244 8.69143 21.3505 8.71058 21.3674 8.73695L21.7523 9.38413C21.76 9.39724 21.7651 9.41178 21.767 9.42688C21.769 9.44197 21.7679 9.45731 21.7637 9.47197C21.7596 9.48662 21.7525 9.50028 21.7429 9.51211C21.7334 9.52395 21.7215 9.53372 21.708 9.54082C21.6806 9.55487 21.649 9.55812 21.6193 9.54991C21.5897 9.54171 21.5642 9.52266 21.5479 9.49654L21.163 8.84935C21.1551 8.83646 21.1499 8.82211 21.1477 8.80715C21.1455 8.7922 21.1463 8.77695 21.1501 8.76232C21.1539 8.74769 21.1607 8.73398 21.1699 8.72202C21.1791 8.71005 21.1907 8.70007 21.2039 8.69267Z" fill="#F8B607"/>
<path d="M28.2207 8.68245C28.2342 8.68955 28.246 8.69932 28.2556 8.71115C28.2652 8.72299 28.2723 8.73665 28.2764 8.7513C28.2806 8.76595 28.2817 8.78129 28.2797 8.79639C28.2778 8.81149 28.2727 8.82603 28.265 8.83913L27.8767 9.48631C27.8604 9.51249 27.8347 9.53136 27.8049 9.53898C27.775 9.5466 27.7434 9.54238 27.7166 9.52719C27.7031 9.52008 27.6912 9.51032 27.6816 9.49848C27.6721 9.48665 27.665 9.47299 27.6609 9.45833C27.6567 9.44368 27.6556 9.42834 27.6576 9.41324C27.6595 9.39815 27.6645 9.3836 27.6723 9.3705L28.0606 8.72332C28.0683 8.71002 28.0786 8.6984 28.0909 8.68912C28.1032 8.67985 28.1172 8.67312 28.1321 8.66931C28.147 8.66551 28.1625 8.66471 28.1777 8.66696C28.1929 8.66922 28.2075 8.67448 28.2207 8.68245Z" fill="#F8B607"/>
<path d="M30.7957 11.169C30.8039 11.1817 30.8093 11.196 30.8115 11.211C30.8138 11.2259 30.8127 11.2412 30.8085 11.2557C30.8043 11.2703 30.7971 11.2837 30.7872 11.2952C30.7773 11.3067 30.7651 11.3159 30.7514 11.3223L30.0702 11.6969C30.0434 11.7121 30.0117 11.7164 29.9819 11.7087C29.952 11.7011 29.9263 11.6822 29.9101 11.6561C29.9022 11.6432 29.897 11.6288 29.8948 11.6139C29.8926 11.5989 29.8934 11.5837 29.8972 11.569C29.901 11.5544 29.9077 11.5407 29.917 11.5287C29.9262 11.5168 29.9378 11.5068 29.951 11.4994L30.6322 11.1247C30.6458 11.1168 30.6609 11.1117 30.6765 11.1096C30.6921 11.1076 30.708 11.1086 30.7232 11.1128C30.7384 11.1169 30.7526 11.124 30.7651 11.1336C30.7775 11.1433 30.7879 11.1553 30.7957 11.169Z" fill="#F8B607"/>
<path d="M30.772 17.978C30.7558 18.0042 30.73 18.0231 30.7002 18.0307C30.6703 18.0383 30.6387 18.0341 30.6119 18.0189L29.9307 17.6442C29.9168 17.6375 29.9046 17.6279 29.8947 17.6161C29.8848 17.6043 29.8776 17.5906 29.8734 17.5758C29.8692 17.561 29.8682 17.5455 29.8704 17.5303C29.8727 17.5151 29.8781 17.5005 29.8864 17.4875C29.9026 17.4614 29.9283 17.4425 29.9582 17.4349C29.988 17.4272 30.0197 17.4315 30.0465 17.4467L30.7277 17.8213C30.7412 17.8284 30.7531 17.8382 30.7626 17.85C30.7722 17.8619 30.7793 17.8755 30.7834 17.8902C30.7876 17.9048 30.7887 17.9202 30.7867 17.9353C30.7848 17.9504 30.7797 17.9649 30.772 17.978Z" fill="#F8B607"/>
<path d="M28.2376 20.4714C28.2111 20.4874 28.1795 20.4928 28.1492 20.4865C28.1188 20.4802 28.092 20.4626 28.0741 20.4373L27.6654 19.8003C27.6573 19.7877 27.6519 19.7735 27.6495 19.7587C27.647 19.7439 27.6475 19.7287 27.651 19.7141C27.6545 19.6995 27.6609 19.6857 27.6698 19.6736C27.6787 19.6615 27.6899 19.6513 27.7028 19.6437C27.7295 19.6271 27.7617 19.6218 27.7923 19.6288C27.8229 19.6358 27.8495 19.6546 27.8663 19.6811L28.2751 20.3147C28.2831 20.3274 28.2885 20.3415 28.291 20.3564C28.2934 20.3712 28.2929 20.3863 28.2894 20.4009C28.2859 20.4155 28.2795 20.4293 28.2707 20.4414C28.2618 20.4535 28.2505 20.4637 28.2376 20.4714Z" fill="#F8B607"/>
<path d="M21.1868 20.4646C21.1733 20.4574 21.1614 20.4477 21.1519 20.4358C21.1423 20.424 21.1352 20.4104 21.1311 20.3957C21.1269 20.381 21.1258 20.3657 21.1278 20.3506C21.1297 20.3355 21.1348 20.321 21.1425 20.3079L21.5308 19.6607C21.5471 19.6345 21.5728 19.6156 21.6026 19.608C21.6325 19.6004 21.6641 19.6046 21.6909 19.6198C21.7044 19.6269 21.7163 19.6367 21.7258 19.6485C21.7354 19.6604 21.7425 19.674 21.7466 19.6887C21.7508 19.7033 21.7519 19.7187 21.7499 19.7338C21.748 19.7488 21.743 19.7634 21.7352 19.7765L21.3469 20.4237C21.3306 20.4499 21.3049 20.4687 21.2751 20.4763C21.2452 20.484 21.2136 20.4797 21.1868 20.4646Z" fill="#F8B607"/>
<path d="M18.6423 17.9882C18.6332 17.9756 18.6269 17.9612 18.6238 17.9459C18.6208 17.9306 18.621 17.9148 18.6246 17.8997C18.6281 17.8845 18.6349 17.8703 18.6444 17.8579C18.6539 17.8456 18.666 17.8354 18.6797 17.8281L19.3337 17.433C19.3604 17.4165 19.3926 17.4111 19.4232 17.4181C19.4538 17.4252 19.4804 17.444 19.4972 17.4705C19.5053 17.4832 19.5107 17.4974 19.5131 17.5122C19.5156 17.527 19.5151 17.5421 19.5116 17.5567C19.5081 17.5714 19.5017 17.5851 19.4928 17.5972C19.4839 17.6093 19.4727 17.6195 19.4598 17.6272L18.8024 18.0155C18.7772 18.032 18.7467 18.0384 18.717 18.0333C18.6873 18.0283 18.6606 18.0122 18.6423 17.9882Z" fill="#F8B607"/>
<path d="M24.7225 15.1917C25.0555 15.1917 25.3254 14.9309 25.3254 14.6093C25.3254 14.2876 25.0555 14.0268 24.7225 14.0268C24.3896 14.0268 24.1196 14.2876 24.1196 14.6093C24.1196 14.9309 24.3896 15.1917 24.7225 15.1917Z" fill="#F8B607"/>
<path d="M27.1087 18.8185L27.2391 18.7436C27.3602 18.6739 27.4019 18.5193 27.3323 18.3982L24.9701 14.288C24.9005 14.1669 24.7459 14.1251 24.6248 14.1947L24.4944 14.2697C24.3733 14.3393 24.3316 14.4939 24.4012 14.615L26.7634 18.7252C26.833 18.8463 26.9876 18.8881 27.1087 18.8185Z" fill="#F8B607"/>
<path d="M25.0392 10.968C25.0392 10.7931 24.8974 10.6512 24.7224 10.6512C24.5475 10.6512 24.4056 10.7931 24.4056 10.968V14.4424C24.4056 14.6173 24.5475 14.7591 24.7224 14.7591C24.8974 14.7591 25.0392 14.6173 25.0392 14.4424V10.968Z" fill="#F8B607"/>
<path d="M31.9503 7.61632C30.2381 5.92002 27.8742 5.07187 24.8585 5.07187C21.7975 5.07187 19.3677 5.92002 17.5692 7.61632C15.7707 9.31261 14.8726 11.6618 14.8749 14.6638C14.8749 17.5727 15.7412 19.8753 17.4738 21.5716C19.2065 23.2679 21.5908 24.116 24.6269 24.116C27.6993 24.116 30.12 23.2418 31.8889 21.4933C33.6579 19.7447 34.5413 17.3604 34.539 14.3402C34.5276 11.5562 33.6647 9.31488 31.9503 7.61632ZM24.6984 21.4013C20.8221 21.4013 17.6782 18.3527 17.6782 14.5888C17.6782 10.825 20.8221 7.77641 24.6984 7.77641C28.5747 7.77641 31.7186 10.825 31.7186 14.5888C31.7186 18.3527 28.5747 21.4013 24.6984 21.4013Z" fill="#0081FF"/>
<path d="M25.5159 3.33127C25.5159 2.89671 25.1644 2.54443 24.7308 2.54443C24.2972 2.54443 23.9457 2.89671 23.9457 3.33127V5.05141C23.9457 5.48597 24.2972 5.83825 24.7308 5.83825C25.1644 5.83825 25.5159 5.48597 25.5159 5.05141V3.33127Z" fill="#0081FF"/>
<path d="M23.8673 2.54445C23.4327 2.54445 23.0804 2.89596 23.0804 3.32958C23.0804 3.7632 23.4327 4.11472 23.8673 4.11472H25.5874C26.022 4.11472 26.3743 3.7632 26.3743 3.32958C26.3743 2.89596 26.022 2.54445 25.5874 2.54445H23.8673Z" fill="#0081FF"/>
<path d="M69.4564 8.00803C69.4564 7.88575 69.3572 7.78662 69.235 7.78662C69.1127 7.78662 69.0135 7.88575 69.0135 8.00803V8.5428C69.0135 8.66508 69.1127 8.7642 69.235 8.7642C69.3572 8.7642 69.4564 8.66508 69.4564 8.5428V8.00803Z" fill="#F8B607"/>
<path d="M69.4699 20.6451C69.4699 20.5228 69.3708 20.4237 69.2485 20.4237C69.1262 20.4237 69.0271 20.5228 69.0271 20.6451V21.1799C69.0271 21.3022 69.1262 21.4013 69.2485 21.4013C69.3708 21.4013 69.4699 21.3022 69.4699 21.1799V20.6451Z" fill="#F8B607"/>
<path d="M76.0302 14.7898C76.1487 14.7898 76.2448 14.6937 76.2448 14.5752C76.2448 14.4567 76.1487 14.3606 76.0302 14.3606H75.4511C75.3326 14.3606 75.2365 14.4567 75.2365 14.5752C75.2365 14.6937 75.3326 14.7898 75.4511 14.7898H76.0302Z" fill="#F8B607"/>
<path d="M62.9981 14.8C63.1166 14.8 63.2126 14.7039 63.2126 14.5854C63.2126 14.4669 63.1166 14.3708 62.9981 14.3708H62.419C62.3005 14.3708 62.2044 14.4669 62.2044 14.5854C62.2044 14.7039 62.3005 14.8 62.419 14.8H62.9981Z" fill="#F8B607"/>
<path d="M63.1412 11.1724C63.158 11.146 63.1844 11.127 63.2148 11.1194C63.2452 11.1118 63.2774 11.1161 63.3047 11.1315L63.9859 11.5062C63.9994 11.5133 64.0113 11.5231 64.0208 11.5349C64.0304 11.5467 64.0375 11.5604 64.0416 11.5751C64.0458 11.5897 64.0469 11.605 64.0449 11.6201C64.043 11.6352 64.038 11.6498 64.0302 11.6629C64.0133 11.6893 63.987 11.7083 63.9566 11.7159C63.9262 11.7235 63.894 11.7191 63.8667 11.7038L63.1855 11.3291C63.172 11.322 63.1601 11.3122 63.1505 11.3004C63.1409 11.2885 63.1339 11.2749 63.1297 11.2602C63.1256 11.2456 63.1245 11.2302 63.1264 11.2151C63.1284 11.2 63.1334 11.1855 63.1412 11.1724Z" fill="#F8B607"/>
<path d="M65.7331 8.69265C65.7603 8.67776 65.7923 8.67406 65.8222 8.68232C65.852 8.69059 65.8775 8.71018 65.8932 8.73693L66.2815 9.38412C66.2963 9.4108 66.2999 9.44222 66.2916 9.47155C66.2833 9.50089 66.2638 9.52577 66.2372 9.5408C66.2094 9.55505 66.1772 9.55841 66.147 9.55022C66.1167 9.54204 66.0906 9.52289 66.0737 9.49652L65.6888 8.84934C65.6741 8.82265 65.6705 8.79123 65.6788 8.7619C65.6871 8.73257 65.7066 8.70769 65.7331 8.69265Z" fill="#F8B607"/>
<path d="M72.7468 8.68245C72.7603 8.68955 72.7722 8.69932 72.7818 8.71115C72.7913 8.72299 72.7984 8.73665 72.8025 8.7513C72.8067 8.76595 72.8078 8.78129 72.8058 8.79639C72.8039 8.81149 72.7989 8.82603 72.7911 8.83913L72.4062 9.48631C72.3893 9.51273 72.363 9.53169 72.3326 9.53929C72.3022 9.54689 72.27 9.54256 72.2427 9.52719C72.2295 9.51979 72.218 9.50981 72.2087 9.49784C72.1995 9.48587 72.1928 9.47217 72.1889 9.45754C72.1851 9.44291 72.1843 9.42766 72.1865 9.41271C72.1887 9.39775 72.1939 9.3834 72.2018 9.3705L72.5867 8.72332C72.5945 8.71002 72.6048 8.6984 72.617 8.68912C72.6293 8.67985 72.6433 8.67312 72.6582 8.66931C72.6731 8.66551 72.6886 8.66471 72.7038 8.66696C72.719 8.66922 72.7337 8.67448 72.7468 8.68245Z" fill="#F8B607"/>
<path d="M75.3218 11.169C75.3296 11.1816 75.3348 11.1957 75.337 11.2104C75.3392 11.2251 75.3383 11.2401 75.3345 11.2544C75.3306 11.2688 75.3239 11.2822 75.3147 11.2939C75.3055 11.3055 75.294 11.3152 75.281 11.3223L74.5997 11.6969C74.5724 11.7123 74.5402 11.7166 74.5098 11.709C74.4794 11.7014 74.4531 11.6825 74.4362 11.6561C74.4285 11.643 74.4234 11.6284 74.4215 11.6133C74.4195 11.5982 74.4206 11.5829 74.4248 11.5682C74.4289 11.5536 74.436 11.5399 74.4456 11.5281C74.4551 11.5163 74.467 11.5065 74.4805 11.4994L75.1617 11.1247C75.1751 11.1169 75.1899 11.1118 75.2053 11.1098C75.2206 11.1078 75.2362 11.1089 75.2511 11.113C75.2661 11.1171 75.28 11.1242 75.2922 11.1338C75.3043 11.1434 75.3144 11.1554 75.3218 11.169Z" fill="#F8B607"/>
<path d="M75.3013 17.978C75.2844 18.0044 75.2581 18.0234 75.2277 18.031C75.1973 18.0386 75.1651 18.0343 75.1378 18.0189L74.4566 17.6442C74.4431 17.6371 74.4312 17.6273 74.4216 17.6155C74.4121 17.6037 74.405 17.59 74.4008 17.5753C74.3967 17.5607 74.3956 17.5454 74.3975 17.5303C74.3995 17.5152 74.4045 17.5006 74.4123 17.4875C74.4291 17.4611 74.4555 17.4421 74.4859 17.4345C74.5163 17.4269 74.5485 17.4313 74.5758 17.4466L75.257 17.8213C75.2705 17.8284 75.2824 17.8382 75.292 17.85C75.3015 17.8619 75.3086 17.8755 75.3128 17.8902C75.3169 17.9048 75.318 17.9202 75.316 17.9353C75.3141 17.9504 75.3091 17.9649 75.3013 17.978Z" fill="#F8B607"/>
<path d="M72.7639 20.4714C72.7379 20.4872 72.7068 20.4925 72.6771 20.4861C72.6473 20.4798 72.6211 20.4623 72.6038 20.4373L72.195 19.8003C72.187 19.7876 72.1816 19.7735 72.1791 19.7587C72.1767 19.7438 72.1772 19.7287 72.1807 19.7141C72.1842 19.6995 72.1906 19.6857 72.1995 19.6736C72.2084 19.6615 72.2196 19.6513 72.2325 19.6436C72.2594 19.628 72.2913 19.6231 72.3217 19.6301C72.352 19.637 72.3786 19.6553 72.396 19.6811L72.8013 20.3147C72.8104 20.327 72.8167 20.3412 72.8197 20.3562C72.8227 20.3713 72.8225 20.3868 72.8189 20.4017C72.8153 20.4166 72.8086 20.4306 72.7991 20.4426C72.7896 20.4546 72.7776 20.4644 72.7639 20.4714Z" fill="#F8B607"/>
<path d="M65.7162 20.4646C65.703 20.4572 65.6915 20.4472 65.6822 20.4352C65.673 20.4232 65.6663 20.4095 65.6625 20.3949C65.6586 20.3803 65.6578 20.365 65.66 20.3501C65.6622 20.3351 65.6674 20.3208 65.6753 20.3079L66.0602 19.6607C66.0765 19.6345 66.1022 19.6156 66.1321 19.608C66.1619 19.6004 66.1935 19.6046 66.2203 19.6198C66.2338 19.6269 66.2457 19.6367 66.2553 19.6485C66.2648 19.6604 66.2719 19.674 66.2761 19.6887C66.2802 19.7033 66.2813 19.7187 66.2793 19.7338C66.2774 19.7488 66.2724 19.7634 66.2646 19.7765L65.8797 20.4237C65.8628 20.4501 65.8365 20.4691 65.8061 20.4767C65.7757 20.4843 65.7435 20.4799 65.7162 20.4646Z" fill="#F8B607"/>
<path d="M63.1684 17.9882C63.1603 17.9753 63.1548 17.9609 63.1523 17.9458C63.1498 17.9307 63.1503 17.9153 63.1538 17.9004C63.1573 17.8855 63.1637 17.8715 63.1726 17.8591C63.1816 17.8467 63.1929 17.8362 63.2059 17.8281L63.8599 17.433C63.8866 17.4165 63.9187 17.4111 63.9493 17.4181C63.9799 17.4252 64.0065 17.444 64.0234 17.4705C64.0314 17.4832 64.0368 17.4974 64.0393 17.5122C64.0417 17.527 64.0412 17.5421 64.0377 17.5567C64.0342 17.5714 64.0278 17.5851 64.0189 17.5972C64.01 17.6093 63.9988 17.6195 63.9859 17.6272L63.3319 18.0155C63.3062 18.0322 63.2751 18.0387 63.2449 18.0337C63.2146 18.0286 63.1873 18.0124 63.1684 17.9882Z" fill="#F8B607"/>
<path d="M69.2518 15.1917C69.5848 15.1917 69.8547 14.9309 69.8547 14.6093C69.8547 14.2876 69.5848 14.0268 69.2518 14.0268C68.9189 14.0268 68.6489 14.2876 68.6489 14.6093C68.6489 14.9309 68.9189 15.1917 69.2518 15.1917Z" fill="#F8B607"/>
<path d="M71.9714 10.6533C72.0617 10.4969 72.0081 10.2969 71.8517 10.2066C71.6953 10.1163 71.4953 10.1699 71.405 10.3263L69.1177 14.288C69.0274 14.4444 69.081 14.6443 69.2374 14.7346C69.3938 14.8249 69.5938 14.7714 69.6841 14.615L71.9714 10.6533Z" fill="#F8B607"/>
<path d="M69.6095 10.9033C69.6095 10.7283 69.4677 10.5865 69.2927 10.5865C69.1178 10.5865 68.976 10.7283 68.976 10.9033V14.3776C68.976 14.5526 69.1178 14.6944 69.2927 14.6944C69.4677 14.6944 69.6095 14.5526 69.6095 14.3776V10.9033Z" fill="#F8B607"/>
<path d="M76.4799 7.61632C74.7632 5.92002 72.3981 5.07187 69.3848 5.07187C66.3214 5.07187 63.8928 5.92002 62.0989 7.61632C60.3049 9.31261 59.4068 11.6618 59.4045 14.6638C59.4045 17.5727 60.2697 19.8753 62.0001 21.5716C63.7304 23.2679 66.1148 24.116 69.1531 24.116C72.2278 24.116 74.6485 23.2418 76.4152 21.4933C78.1819 19.7447 79.0652 17.3604 79.0652 14.3402C79.0539 11.5562 78.1921 9.31488 76.4799 7.61632ZM69.2145 21.4013C65.3382 21.4013 62.1942 18.3527 62.1942 14.5888C62.1942 10.825 65.3382 7.77641 69.2145 7.77641C73.0907 7.77641 76.2381 10.825 76.2381 14.5888C76.2381 18.3527 73.1044 21.4013 69.2145 21.4013Z" fill="#0081FF"/>
<path d="M70.0216 3.3483C70.0216 2.91374 69.67 2.56146 69.2364 2.56146C68.8028 2.56146 68.4513 2.91374 68.4513 3.3483V5.06844C68.4513 5.503 68.8028 5.85528 69.2364 5.85528C69.67 5.85528 70.0216 5.503 70.0216 5.06844V3.3483Z" fill="#0081FF"/>
<path d="M68.3767 2.56148C67.9421 2.56148 67.5898 2.91299 67.5898 3.34661C67.5898 3.78023 67.9421 4.13174 68.3767 4.13174H70.0968C70.5314 4.13174 70.8837 3.78023 70.8837 3.34661C70.8837 2.91299 70.5314 2.56148 70.0968 2.56148H68.3767Z" fill="#0081FF"/>
</svg>
